<svg width="22" height="22" viewBox="0 0 22 22" fill="none" xmlns="http://www.w3.org/2000/svg">
<path fill="var(--icon-color-fill)" d="M9.05202 7.44688L6.76035 5.15521L9.69369 2.22187C9.87702 2.03854 10.0833 1.90104 10.3124 1.80937C10.5416 1.71771 10.7708 1.67188 10.9999 1.67188C11.2291 1.67188 11.4583 1.71771 11.6874 1.80937C11.9166 1.90104 12.1229 2.03854 12.3062 2.22187L15.2395 5.15521L12.9479 7.44688L10.9999 5.49896L9.05202 7.44688ZM5.15618 15.2385L2.22285 12.3052C2.03952 12.1219 1.90202 11.9156 1.81035 11.6865C1.71868 11.4573 1.67285 11.2281 1.67285 10.999C1.67285 10.7698 1.71868 10.5406 1.81035 10.3115C1.90202 10.0823 2.03952 9.87604 2.22285 9.69271L5.15618 6.75938L7.44785 9.05104L5.49994 10.999L7.44785 12.9469L5.15618 15.2385ZM16.8437 15.2385L14.552 12.9469L16.4999 10.999L14.552 9.05104L16.8437 6.75938L19.777 9.69271C19.9604 9.87604 20.0979 10.0823 20.1895 10.3115C20.2812 10.5406 20.327 10.7698 20.327 10.999C20.327 11.2281 20.2812 11.4573 20.1895 11.6865C20.0979 11.9156 19.9604 12.1219 19.777 12.3052L16.8437 15.2385ZM10.9999 20.326C10.7708 20.326 10.5416 20.2802 10.3124 20.1885C10.0833 20.0969 9.87702 19.9594 9.69369 19.776L6.76035 16.8427L9.05202 14.551L10.9999 16.499L12.9479 14.551L15.2395 16.8427L12.3062 19.776C12.1229 19.9594 11.9166 20.0969 11.6874 20.1885C11.4583 20.2802 11.2291 20.326 10.9999 20.326ZM12.3062 10.999C12.3062 11.3503 12.1763 11.6559 11.9166 11.9156C11.6569 12.1753 11.3513 12.3052 10.9999 12.3052C10.6485 12.3052 10.343 12.1753 10.0833 11.9156C9.82355 11.6559 9.69369 11.3503 9.69369 10.999C9.69369 10.6476 9.82355 10.342 10.0833 10.0823C10.343 9.82257 10.6485 9.69271 10.9999 9.69271C11.3513 9.69271 11.6569 9.82257 11.9166 10.0823C12.1763 10.342 12.3062 10.6476 12.3062 10.999Z"/>
<path stroke="var(--icon-color-stroke)" d="M9.05202 6.73977L7.46746 5.15521L10.0472 2.57543L9.69511 2.22329L10.0472 2.57543C10.1852 2.43752 10.335 2.33887 10.4981 2.27361C10.6728 2.20374 10.8391 2.17188 10.9999 2.17188C11.1607 2.17188 11.327 2.20374 11.5017 2.27361C11.6649 2.33887 11.8147 2.43752 11.9526 2.57543L14.5324 5.15521L12.9479 6.73977L11.3535 5.14541L10.9999 4.79185L10.6464 5.14541L9.05202 6.73977ZM2.5764 10.0463L5.15619 7.46648L6.74075 9.05104L5.14638 10.6454L4.79283 10.999L5.14638 11.3525L6.74074 12.9469L5.15618 14.5314L2.5764 11.9517C2.43849 11.8137 2.33985 11.6639 2.27459 11.5008C2.20471 11.3261 2.17285 11.1598 2.17285 10.999C2.17285 10.8382 2.20471 10.6718 2.27459 10.4972C2.33985 10.334 2.43849 10.1842 2.5764 10.0463L2.26326 9.73312L2.5764 10.0463ZM16.8437 14.5314L15.2591 12.9469L16.8535 11.3525L17.207 10.999L16.8535 10.6454L15.2591 9.05104L16.8437 7.46648L19.4235 10.0463C19.5614 10.1842 19.66 10.334 19.7253 10.4972C19.7952 10.6718 19.827 10.8382 19.827 10.999C19.827 11.1598 19.7952 11.3261 19.7253 11.5008C19.66 11.6639 19.5614 11.8137 19.4235 11.9517L16.8437 14.5314ZM11.3535 16.8525L12.9479 15.2581L14.5324 16.8427L11.9526 19.4225C11.8147 19.5604 11.6649 19.659 11.5017 19.7243C11.327 19.7942 11.1607 19.826 10.9999 19.826C10.8391 19.826 10.6728 19.7942 10.4981 19.7243C10.335 19.659 10.1852 19.5604 10.0472 19.4225L7.46746 16.8427L9.05202 15.2581L10.6464 16.8525L10.9999 17.2061L11.3535 16.8525ZM11.8062 10.999C11.8062 11.2112 11.7337 11.3914 11.563 11.5621C11.3924 11.7328 11.2122 11.8052 10.9999 11.8052C10.7877 11.8052 10.6075 11.7328 10.4368 11.5621C10.2661 11.3914 10.1937 11.2112 10.1937 10.999C10.1937 10.7867 10.2661 10.6065 10.4368 10.4358C10.6075 10.2652 10.7877 10.1927 10.9999 10.1927C11.2122 10.1927 11.3924 10.2652 11.563 10.4358C11.7337 10.6065 11.8062 10.7867 11.8062 10.999Z"/>
</svg>
