<svg width="57" height="24" viewBox="0 0 57 24" fill="none" xmlns="http://www.w3.org/2000/svg">
<g id="Apple_Pay_logo 1">
<g clip-path="url(#clip0_1998_6677)">
<path id="XMLID_34_" d="M10.255 2.96914C9.59758 3.74703 8.54578 4.36058 7.49399 4.27293C7.36251 3.22113 7.87745 2.1036 8.48005 1.41335C9.13742 0.613549 10.2878 0.0438249 11.2191 0C11.3287 1.09562 10.9014 2.16933 10.255 2.96914ZM11.2081 4.4811C9.68523 4.39345 8.38144 5.34664 7.65833 5.34664C6.92426 5.34664 5.81768 4.52492 4.6125 4.54684C3.04575 4.56875 1.58858 5.4562 0.78877 6.86956C-0.854665 9.69627 0.361477 13.8815 1.95013 16.1824C2.72802 17.3218 3.6593 18.5708 4.8864 18.527C6.04776 18.4832 6.50792 17.771 7.91032 17.771C9.32368 17.771 9.72906 18.527 10.9562 18.5051C12.2271 18.4832 13.0269 17.3656 13.8048 16.2262C14.6922 14.9333 15.0538 13.6734 15.0757 13.6076C15.0538 13.5857 12.6215 12.6544 12.5996 9.84965C12.5777 7.50502 14.5169 6.38748 14.6046 6.32175C13.509 4.70022 11.7998 4.52492 11.2081 4.4811ZM20.006 1.30379V18.3846H22.6574V12.5449H26.3278C29.6804 12.5449 32.036 10.2441 32.036 6.91338C32.036 3.58269 29.7242 1.30379 26.4154 1.30379H20.006ZM22.6574 3.53886H25.7142C28.015 3.53886 29.3298 4.76596 29.3298 6.92434C29.3298 9.08272 28.015 10.3208 25.7032 10.3208H22.6574V3.53886ZM36.8786 18.516C38.544 18.516 40.0888 17.6724 40.79 16.3357H40.8448V18.3846H43.299V9.88252C43.299 7.41737 41.3268 5.82872 38.292 5.82872C35.4762 5.82872 33.3945 7.43928 33.3178 9.65244H35.7063C35.9035 8.60064 36.8786 7.9104 38.2153 7.9104C39.8368 7.9104 40.7462 8.66638 40.7462 10.0578V11.0001L37.4374 11.1973C34.3587 11.3835 32.6933 12.6435 32.6933 14.8347C32.6933 17.0479 34.4135 18.516 36.8786 18.516ZM37.5908 16.4891C36.1774 16.4891 35.279 15.8098 35.279 14.769C35.279 13.6953 36.1445 13.0708 37.7989 12.9722L40.7462 12.7859V13.7501C40.7462 15.3497 39.3876 16.4891 37.5908 16.4891ZM46.5749 23.03C49.1605 23.03 50.3767 22.0439 51.4394 19.0529L56.0958 5.99306H53.4006L50.2781 16.0837H50.2233L47.1008 5.99306H44.3288L48.8209 18.4284L48.5799 19.1844C48.1745 20.4662 47.5171 20.9593 46.3448 20.9593C46.1366 20.9593 45.7312 20.9374 45.5669 20.9154V22.9643C45.7203 23.0081 46.3777 23.03 46.5749 23.03Z" fill="white"/>
</g>
</g>
<defs>
<clipPath id="clip0_1998_6677">
<rect width="56.0959" height="23.03" rx="4" fill="white"/>
</clipPath>
</defs>
</svg>
