<svg width="13" height="11" viewBox="0 0 13 11" fill="none" xmlns="http://www.w3.org/2000/svg">
<path d="M12.2828 3.28284C12.4391 3.12663 12.4391 2.87337 12.2828 2.71716L9.73726 0.171573C9.58105 0.0153632 9.32778 0.0153632 9.17157 0.171573C9.01536 0.327783 9.01536 0.581048 9.17157 0.737258L11.4343 3L9.17157 5.26274C9.01536 5.41895 9.01536 5.67222 9.17157 5.82843C9.32778 5.98464 9.58105 5.98464 9.73726 5.82843L12.2828 3.28284ZM1 3.4L12 3.4V2.6L1 2.6L1 3.4Z" fill="#A1C6C2" fill-opacity="0.8"/>
<path d="M0.717157 7.71716C0.560947 7.87337 0.560947 8.12663 0.717157 8.28284L3.26274 10.8284C3.41895 10.9846 3.67222 10.9846 3.82843 10.8284C3.98464 10.6722 3.98464 10.419 3.82843 10.2627L1.56569 8L3.82843 5.73726C3.98464 5.58105 3.98464 5.32778 3.82843 5.17157C3.67222 5.01536 3.41895 5.01536 3.26274 5.17157L0.717157 7.71716ZM12 7.6L1 7.6V8.4L12 8.4V7.6Z" fill="#A1C6C2" fill-opacity="0.8"/>
</svg>
