<svg width="20" height="20" viewBox="0 0 20 20" fill="none" xmlns="http://www.w3.org/2000/svg">
<path fill-rule="evenodd" clip-rule="evenodd" d="M9.17238 1.10156C8.15493 1.10156 7.17915 1.50574 6.4597 2.22519C5.74026 2.94463 5.33608 3.92041 5.33608 4.93786C5.33608 5.95531 5.74026 6.93108 6.4597 7.65053C7.17915 8.36998 8.15493 8.77416 9.17238 8.77416C10.1898 8.77416 11.1656 8.36998 11.885 7.65053C12.6045 6.93108 13.0087 5.95531 13.0087 4.93786C13.0087 3.92041 12.6045 2.94463 11.885 2.22519C11.1656 1.50574 10.1898 1.10156 9.17238 1.10156ZM6.54754 4.93786C6.54754 4.24171 6.82409 3.57407 7.31634 3.08182C7.80859 2.58957 8.47623 2.31302 9.17238 2.31302C9.86853 2.31302 10.5362 2.58957 11.0284 3.08182C11.5207 3.57407 11.7972 4.24171 11.7972 4.93786C11.7972 5.63401 11.5207 6.30164 11.0284 6.7939C10.5362 7.28615 9.86853 7.56269 9.17238 7.56269C8.47623 7.56269 7.80859 7.28615 7.31634 6.7939C6.82409 6.30164 6.54754 5.63401 6.54754 4.93786ZM9.17238 9.98562C7.3043 9.98562 5.58241 10.4104 4.30714 11.1276C3.05045 11.8351 2.10551 12.906 2.10551 14.2257V14.3081C2.10471 15.2466 2.1039 16.4241 3.13687 17.2657C3.64488 17.6792 4.35641 17.974 5.3175 18.1678C6.28021 18.3633 7.53609 18.4659 9.17238 18.4659C10.8087 18.4659 12.0637 18.3633 13.0281 18.1678C13.9891 17.974 14.6999 17.6792 15.2087 17.2657C16.2417 16.4241 16.24 15.2466 16.2392 14.3081V14.2257C16.2392 12.906 15.2943 11.8351 14.0384 11.1276C12.7623 10.4104 11.0413 9.98562 9.17238 9.98562ZM3.31698 14.2257C3.31698 13.5384 3.81933 12.7922 4.90076 12.184C5.96362 11.5864 7.47229 11.1971 9.17318 11.1971C10.8725 11.1971 12.3811 11.5864 13.444 12.184C14.5262 12.7922 15.0278 13.5384 15.0278 14.2257C15.0278 15.2821 14.9955 15.8766 14.443 16.3256C14.1442 16.5695 13.6435 16.8078 12.7874 16.9806C11.9337 17.1534 10.7667 17.2544 9.17238 17.2544C7.57809 17.2544 6.41024 17.1534 5.55737 16.9806C4.70127 16.8078 4.20054 16.5695 3.90171 16.3264C3.34928 15.8766 3.31698 15.2821 3.31698 14.2257Z" fill="white"/>
</svg>
