<svg xmlns="http://www.w3.org/2000/svg" width="14" height="13" viewBox="0 0 14 13" fill="none">
    <path d="M0.929199 5.27865C0.929199 4.70916 0.929199 4.42442 1.03064 4.19981C1.1659 3.90033 1.42533 3.6624 1.75186 3.53835C1.99676 3.44531 2.30723 3.44531 2.92816 3.44531H10.924C11.5449 3.44531 11.8554 3.44531 12.1003 3.53835C12.4268 3.6624 12.6863 3.90033 12.8215 4.19981C12.9229 4.42442 12.9229 4.70916 12.9229 5.27865V9.55642C12.9229 10.7087 12.9229 11.2849 12.5326 11.6429C12.1423 12.0009 11.5141 12.0009 10.2577 12.0009H9.59135H4.2608H3.59448C2.33805 12.0009 1.70984 12.0009 1.31952 11.6429C0.929199 11.2849 0.929199 10.7087 0.929199 9.55642V5.27865Z" stroke="white" stroke-width="1.1" stroke-linejoin="round"/>
    <path d="M4.26068 3.44444V2.22222C4.26068 1.54721 4.85732 1 5.59332 1H8.2586C8.99461 1 9.59124 1.54721 9.59124 2.22222V3.44444" stroke="white" stroke-width="1.1" stroke-linejoin="round"/>
    <path d="M0.929199 5.27734C1.05323 6.08193 1.41894 6.82578 1.96571 7.45987C3.05784 8.72645 4.87232 9.55512 6.92607 9.55512C8.9798 9.55512 10.7943 8.72645 11.8864 7.45987C12.4332 6.82578 12.7989 6.08193 12.9229 5.27734" stroke="white" stroke-width="1.1" stroke-linecap="round"/>
    <path d="M6.59308 7.10938H7.25975" stroke="white" stroke-width="1.1" stroke-linecap="round" stroke-linejoin="round"/>
</svg>