<svg width="12" height="12" viewBox="0 0 12 12" fill="none" xmlns="http://www.w3.org/2000/svg">
<path fill-rule="evenodd" clip-rule="evenodd" d="M11.893 4.80237H6.12681C6.12681 5.40204 6.12681 6.60126 6.12313 7.20092H9.46447C9.33643 7.80059 8.88247 8.64027 8.24103 9.06304C8.24103 9.06304 8.2398 9.06657 8.23858 9.06597C7.38578 9.62906 6.26037 9.75683 5.42473 9.58892C4.1149 9.32867 3.0783 8.37874 2.65742 7.17221C2.65987 7.17041 2.66172 7.15378 2.66355 7.15258C2.40012 6.4042 2.40012 5.40204 2.66355 4.80237H2.66294C3.00234 3.70019 4.07017 2.6946 5.38183 2.41935C6.4368 2.19568 7.62717 2.43781 8.50263 3.25696C8.61904 3.14302 10.1139 1.68349 10.226 1.56476C7.23507 -1.14393 2.44606 -0.191089 0.654089 3.30676H0.653476C0.653476 3.30676 0.654093 3.3069 0.650418 3.3135C-0.236074 5.03154 -0.199316 7.05596 0.656543 8.69185C0.654092 8.69364 0.652256 8.69473 0.650418 8.69653C1.42602 10.2017 2.83754 11.356 4.53823 11.7956C6.34491 12.2693 8.64414 11.9455 10.1843 10.5525L10.1862 10.5543C11.4911 9.37891 12.3034 7.37674 11.893 4.80237Z" fill="white"/>
</svg>
