<svg width="85" height="13" viewBox="0 0 85 13" fill="none" xmlns="http://www.w3.org/2000/svg">
<g id="pay-blk 2" clip-path="url(#clip0_1998_6699)">
<path id="Vector" d="M2.82446 6.17015L1.41223 7.55994L0 6.17015L1.41223 4.78031L2.82446 6.17015ZM6.26968 2.77961L8.69065 5.17743L10.1029 3.78761L7.68192 1.38981L6.26968 0L4.85745 1.38981L2.42097 3.78761L3.83319 5.17743L6.26968 2.77961ZM11.1271 4.78031L9.7149 6.17015L11.1271 7.55994L12.5394 6.17015L11.1271 4.78031ZM6.26968 9.54537L3.84872 7.16286L2.42097 8.55266L4.84194 10.9352L6.25417 12.325L7.66641 10.9352L10.1029 8.55266L8.69065 7.16286L6.26968 9.54537ZM6.26968 7.55994L7.68192 6.17015L6.26968 4.78031L4.85745 6.17015L6.26968 7.55994ZM21.2145 7.69739V7.68213C21.2145 6.78104 20.7179 6.32285 19.9264 6.0174C20.423 5.74251 20.8265 5.31488 20.8265 4.55124V4.53598C20.8265 3.46688 19.9574 2.77961 18.5607 2.77961H15.3638V9.54537H18.6383C20.1902 9.54537 21.2145 8.93448 21.2145 7.69739ZM19.3212 4.81087C19.3212 5.31488 18.9022 5.5287 18.2348 5.5287H16.8381V4.09306H18.328C18.9642 4.09306 19.3212 4.33742 19.3212 4.79561V4.81087ZM19.7091 7.51413C19.7091 8.01813 19.3056 8.24721 18.6383 8.24721H16.8381V6.76579H18.5918C19.3677 6.76579 19.7091 7.04068 19.7091 7.49887V7.51413ZM24.3804 9.54537V2.77961H22.875V9.54537H24.3804ZM32.5123 9.54537V2.77961H31.0225V6.94905L27.7945 2.77961H26.3978V9.54537H27.8876V5.25376L31.2242 9.56067H32.5123V9.54537ZM40.8926 9.54537L37.944 2.7338H36.5473L33.5986 9.54537H35.135L35.7713 8.03339H38.6734L39.3097 9.54537H40.8926ZM38.1457 6.71993H36.3145L37.2301 4.52068L38.1457 6.71993ZM48.0934 9.54537V2.77961H46.6034V6.94905L43.3755 2.77961H41.9789V9.54537H43.4686V5.25376L46.8052 9.56067H48.0934V9.54537ZM55.9151 8.46103L54.9529 7.49887C54.4098 7.98758 53.9287 8.29302 53.1526 8.29302C51.9732 8.29302 51.1662 7.33087 51.1662 6.17015V6.15485C51.1662 4.99413 52.0043 4.04724 53.1526 4.04724C53.8356 4.04724 54.3787 4.33742 54.9062 4.81087L55.8684 3.71124C55.2321 3.08507 54.4561 2.67271 53.1526 2.67271C51.0421 2.67271 49.5677 4.24579 49.5677 6.17015V6.18541C49.5677 8.12502 51.0731 9.66756 53.0906 9.66756C54.4098 9.66756 55.2011 9.20937 55.9151 8.46103ZM62.3556 9.54537V8.21665H58.6309V6.7963H61.8745V5.46758H58.6309V4.09306H62.3088V2.76434H57.1255V9.53011H62.3556V9.54537Z" fill="#F0B90B"/>
<path id="Vector_2" d="M71.939 5.04591C71.939 3.66784 70.9377 2.78125 69.3529 2.78125H66.6694V9.52703H67.8654V7.35877H69.2169C70.7141 7.35877 71.939 6.56852 71.939 5.04591ZM70.7239 5.07481C70.7239 5.79757 70.1599 6.28908 69.2555 6.28908H67.8654V3.86058H69.2555C70.1502 3.86058 70.7239 4.27496 70.7239 5.07481Z" fill="#1E2026"/>
<path id="Vector_3" d="M75.9999 2.73438H74.8915L71.897 9.52834H73.1222L73.8222 7.89974H77.0403L77.7305 9.52834H78.9945L75.9999 2.73438ZM76.6026 6.84931H74.2595L75.4262 4.15099L76.6026 6.84931Z" fill="#1E2026"/>
<path id="Vector_4" d="M82.297 6.83835L84.9999 2.78125H83.6289L81.7041 5.76867L79.7984 2.78125H78.3887L81.0912 6.86729V9.52703H82.297V6.83835Z" fill="#1E2026"/>
</g>
<defs>
<clipPath id="clip0_1998_6699">
<rect width="85" height="12.325" fill="white"/>
</clipPath>
</defs>
</svg>
