<svg width="74" height="22" viewBox="0 0 74 22" fill="none" xmlns="http://www.w3.org/2000/svg">
<g id="capitalist 4" clip-path="url(#clip0_1998_6693)">
<g id="Group">
<path id="Vector" fill-rule="evenodd" clip-rule="evenodd" d="M2.9128 0H11.3564C11.8624 0 12.3464 0.3784 12.276 0.8272L11.5236 5.6672H11.5192V5.6716C11.5192 5.676 11.5192 5.6848 11.5192 5.6892L11.5104 5.7332C11.4752 5.8696 11.3432 5.9708 11.1804 5.9708H3.0668C2.8952 5.9708 2.75 5.8564 2.7324 5.7024L1.9932 0.8272C1.9272 0.3784 2.4068 0 2.9128 0ZM1.078 9.3852C2.8688 10.6172 4.972 11.2684 7.1412 11.2684C9.2532 11.2684 11.3212 10.67 13.068 9.482C14.1504 8.7472 14.6784 10.0232 13.9568 10.4852C11.8976 11.7964 9.5964 12.6016 7.1412 12.6016C4.686 12.6016 2.4156 11.7612 0.3388 10.494C0.1364 10.3664 0 10.1552 0 9.9088C0 9.3236 0.5544 9.0244 1.078 9.3852ZM6.3668 14.9468C6.7452 14.7752 7.5592 14.7664 7.9376 14.938C8.206 14.0228 9.0508 13.3848 10.0188 13.3848C11.2156 13.3848 12.188 14.3572 12.188 15.554C12.188 16.7508 11.2156 17.7232 10.0188 17.7232C8.822 17.7232 7.8496 16.7508 7.8496 15.554C7.8496 15.5364 7.8496 15.5144 7.8496 15.4968C7.6076 15.2768 6.7012 15.2988 6.4504 15.5056C6.4504 15.5232 6.4504 15.5364 6.4504 15.554C6.4504 16.7508 5.478 17.7232 4.2812 17.7232C3.0844 17.7232 2.112 16.7508 2.112 15.554C2.112 14.3572 3.0844 13.3848 4.2812 13.3848C5.2536 13.3804 6.1028 14.0272 6.3668 14.9468ZM10.0144 13.8864C9.0992 13.8864 8.3556 14.63 8.3556 15.5452C8.3556 16.4604 9.0992 17.204 10.0144 17.204C10.9296 17.204 11.6732 16.4604 11.6732 15.5452C11.6776 14.63 10.934 13.8864 10.0144 13.8864ZM4.2856 13.8864C3.3704 13.8864 2.6268 14.63 2.6268 15.5452C2.6268 16.4604 3.3704 17.204 4.2856 17.204C5.2008 17.204 5.9444 16.4604 5.9444 15.5452C5.9444 14.63 5.2008 13.8864 4.2856 13.8864ZM1.2496 19.6548C1.3552 20.3456 1.6324 20.9088 2.1472 21.318C3.5992 22.4664 5.8916 22.088 7.1544 20.7856C8.4128 22.0792 10.7052 22.4576 12.1528 21.3092C12.672 20.9 12.9448 20.3368 13.0504 19.646C12.1968 20.2928 11.506 20.6492 10.2652 20.152C8.9804 19.6372 8.3864 17.754 7.15 19.3688C5.9532 17.7496 5.3108 19.6504 4.0392 20.1608C2.794 20.6536 2.0988 20.3016 1.2496 19.6548ZM11.3036 7.0752L11.2992 7.0884C11.2948 7.1148 11.286 7.1412 11.2728 7.1676L11.286 7.172L10.9692 9.2268C10.8152 10.2168 7.8628 10.4764 7.0312 10.4764C6.2348 10.4764 3.41 10.1904 3.2648 9.2268L2.9392 7.062C2.9392 7.0532 2.9392 7.0444 2.9392 7.04C2.9392 6.8728 3.0888 6.7364 3.278 6.7364H10.9692C11.154 6.7364 11.308 6.8728 11.308 7.04C11.308 7.0532 11.308 7.0664 11.3036 7.0752Z" fill="#8EA652"/>
<path id="Vector_2" fill-rule="evenodd" clip-rule="evenodd" d="M60.1392 4.67168L60.1568 3.01728H62.1588L62.1368 4.67168H60.1392ZM60.1568 13.7489L60.1392 5.59568H62.1368L62.1588 13.7489H60.1568ZM41.7076 4.67168L41.7252 3.01728H43.7272L43.7052 4.67168H41.7076ZM38.1392 11.8701C38.368 11.6545 38.566 11.3289 38.6804 10.9505C38.7948 10.5721 38.852 10.1409 38.852 9.65248C38.852 9.16848 38.7992 8.73728 38.6848 8.36768C38.5704 7.99368 38.4076 7.65488 38.1612 7.41288C37.8884 7.16648 37.5584 7.02568 37.2328 7.02568C36.0668 7.02568 35.8468 8.09928 35.8468 8.61848V10.4313C35.8468 12.2001 36.96 12.2441 37.1888 12.2441C37.5232 12.2353 37.9104 12.0857 38.1392 11.8701ZM52.4656 12.2881C52.602 12.2353 52.7384 12.1561 52.8616 12.0461C52.9892 11.9405 53.0904 11.7909 53.174 11.6149C53.2532 11.4345 53.2972 11.2189 53.3016 10.9593V9.86808C53.0332 9.86368 52.7736 9.88568 52.5228 9.92968C52.272 9.96928 52.0388 10.0441 51.8364 10.1497C51.6296 10.2597 51.4668 10.4093 51.348 10.5941C51.2248 10.7877 51.1632 10.9505 51.1588 11.2453C51.1632 11.5005 51.2072 11.7117 51.2908 11.8745C51.37 12.0373 51.4888 12.1561 51.6252 12.2353C51.7616 12.3145 51.9156 12.3541 52.0784 12.3497C52.2016 12.3629 52.3292 12.3365 52.4656 12.2881ZM53.394 13.0317L53.3676 13.0537C53.1608 13.3793 52.5932 13.8985 51.4932 13.8985C51.0576 13.8941 50.688 13.7797 50.3712 13.5641C50.0588 13.3441 49.8168 13.0493 49.6452 12.6841C49.478 12.3145 49.39 11.9097 49.39 11.4653C49.39 10.9461 49.4868 10.4885 49.6716 10.1101C49.8608 9.72288 50.1204 9.40608 50.468 9.15528C50.8068 8.90008 51.2116 8.71088 51.678 8.59208C52.1444 8.46888 52.6592 8.40728 53.2136 8.40728C53.218 8.13888 53.1828 7.89688 53.1168 7.68128C53.0464 7.47448 52.9188 7.30288 52.734 7.17968C52.5536 7.05648 52.2896 6.99048 51.9552 6.99048C51.6296 6.99048 51.3216 7.04328 51.0268 7.14448C50.7276 7.24568 50.4636 7.37768 50.2348 7.54048L49.8828 6.13688C50.0368 6.03128 50.2348 5.92568 50.4724 5.81568C50.7144 5.71448 50.9872 5.62648 51.2952 5.55608C51.6076 5.48568 51.942 5.45488 52.3072 5.45048C52.8528 5.45488 53.2972 5.54728 53.658 5.72768C54.0188 5.90808 54.3004 6.15888 54.5072 6.47568C54.714 6.79248 54.8636 7.15328 54.9516 7.55368C55.0396 7.95848 55.0792 8.38528 55.0792 8.83408V11.6941C55.0792 12.0549 55.2772 12.4377 55.7964 12.4685V13.9777C54.6744 14.2593 53.8604 13.9645 53.394 13.0317ZM29.7836 12.2881C29.92 12.2353 30.0564 12.1561 30.1796 12.0461C30.3072 11.9405 30.4084 11.7909 30.492 11.6149C30.5712 11.4345 30.6152 11.2189 30.6196 10.9593V9.86808C30.3512 9.86368 30.0916 9.88568 29.8408 9.92968C29.59 9.96928 29.3568 10.0441 29.1544 10.1497C28.9476 10.2597 28.7848 10.4093 28.666 10.5941C28.5428 10.7877 28.4812 10.9505 28.4768 11.2453C28.4812 11.5005 28.5252 11.7117 28.6088 11.8745C28.688 12.0373 28.8068 12.1561 28.9432 12.2353C29.0796 12.3145 29.2336 12.3541 29.3964 12.3497C29.5196 12.3629 29.6472 12.3365 29.7836 12.2881ZM41.7252 13.7489L41.7076 5.59568H43.7052L43.7272 13.7489H41.7252ZM64.4644 13.8369C64.196 13.7885 63.9496 13.7269 63.7164 13.6433C63.4876 13.5597 63.2852 13.4673 63.1092 13.3573L63.3512 11.7689C63.492 11.8569 64.042 12.1253 64.592 12.2397C64.812 12.2969 65.0364 12.3233 65.2476 12.3277C65.604 12.3233 65.868 12.2485 66.0352 12.1033C66.2068 11.9537 66.2904 11.7557 66.2816 11.5005C66.2772 11.3377 66.242 11.1881 66.1672 11.0605C66.0968 10.9373 65.9824 10.8185 65.8152 10.7041C65.6568 10.5941 65.4324 10.4709 65.1508 10.3477C64.6712 10.1365 64.284 9.90328 63.9892 9.65248C63.6988 9.39288 63.4832 9.12448 63.3468 8.83848C63.2104 8.55248 63.1356 8.25768 63.1312 7.95408C63.118 7.45688 63.2236 7.01688 63.4392 6.62528C63.6548 6.23808 63.9716 5.93008 64.3808 5.70128C64.7944 5.47688 65.2828 5.36248 65.8504 5.35808C66.242 5.36248 66.6028 5.40648 66.9328 5.49447C67.2584 5.58248 67.5356 5.68808 67.76 5.82008L67.6104 7.39088C67.4388 7.28968 67.0384 7.15768 66.7832 7.06968C66.5324 6.97728 66.2596 6.93328 65.9692 6.92448C65.6612 6.92888 65.428 7.00808 65.274 7.14888C65.12 7.29408 65.0408 7.47888 65.0496 7.70768C65.0496 7.85728 65.0892 7.98928 65.1684 8.10368C65.2432 8.22248 65.3708 8.33248 65.5424 8.43808C65.7184 8.54808 65.9516 8.66688 66.2464 8.79888C66.8976 9.08488 67.386 9.43248 67.7028 9.84168C68.024 10.2553 68.1956 10.7437 68.2088 11.3069C68.222 11.8305 68.1164 12.2881 67.892 12.6753C67.6676 13.0625 67.3332 13.3661 66.8932 13.5817C66.4532 13.7929 65.912 13.9029 65.2784 13.9117C65.0012 13.8985 64.724 13.8809 64.4644 13.8369ZM23.1176 13.9073C22.3696 13.9029 21.7096 13.7621 21.1332 13.4849C20.5568 13.2077 20.0728 12.8117 19.6768 12.2969C19.2852 11.7865 18.986 11.1749 18.7836 10.4709C18.5768 9.76248 18.4756 8.97928 18.4756 8.11688C18.48 7.10488 18.612 6.21608 18.8672 5.45928C19.1224 4.69808 19.4744 4.06008 19.9232 3.55408C20.372 3.04368 20.8868 2.66088 21.472 2.40568C22.0572 2.15048 22.6864 2.02288 23.3508 2.02288C23.7072 2.02288 24.024 2.04928 24.2968 2.09328C24.9568 2.22528 25.6256 2.40568 26.3076 2.72248L26.136 4.37248L25.5332 4.36808C24.8688 3.96328 24.1692 3.88408 23.4388 3.88408C23.0252 3.88408 22.638 3.96768 22.2816 4.13048C21.9252 4.29768 21.6084 4.54848 21.34 4.88728C21.0716 5.22168 20.8604 5.65288 20.7108 6.16768C20.5612 6.68248 20.482 7.29408 20.4776 7.98928C20.482 8.86488 20.6052 9.59968 20.8428 10.1937C21.0848 10.7921 21.4236 11.2409 21.8636 11.5445C22.308 11.8525 22.8272 12.0021 23.43 12.0065C24.1384 11.9933 24.8204 11.8525 25.4716 11.5577L26.07 11.5445L26.2548 13.2165C25.2208 13.7665 23.914 13.9425 23.1176 13.9073ZM56.5752 11.9141V1.29688L58.6168 2.26488V11.6677C58.6212 12.2177 58.85 12.4113 59.2328 12.4201V13.8941C57.4068 14.1889 56.5752 13.4013 56.5752 11.9141ZM70.5848 13.7841C70.3076 13.6433 70.0876 13.4629 69.9292 13.2297C69.7708 13.0053 69.6564 12.7589 69.586 12.4949C69.5112 12.2309 69.4672 11.9801 69.4496 11.7293C69.432 11.4785 69.4232 11.2673 69.4276 11.0825L69.4232 7.13567H68.5036V5.60008H69.4232L69.4276 2.75768L71.4296 3.84008V5.59568H72.8068V7.17528H71.4296V11.1705C71.4296 11.7337 71.5088 11.9713 71.654 12.1913C71.8036 12.4069 72.2832 12.5829 72.8068 12.4421V13.8457C72.7012 13.8941 72.5824 13.9249 72.4592 13.9469C72.226 13.9777 71.9576 13.9953 71.6584 13.9953C71.2272 13.9953 70.8708 13.9205 70.5848 13.7841ZM46.4728 13.7841C46.1956 13.6433 45.9756 13.4629 45.8172 13.2297C45.6588 13.0053 45.5444 12.7589 45.474 12.4949C45.3992 12.2309 45.3552 11.9801 45.3376 11.7293C45.32 11.4785 45.3112 11.2673 45.3156 11.0825L45.3112 7.13567H44.3916V5.60008H45.3112L45.32 2.75328L47.322 3.83568V5.59128H48.6992V7.17088H47.322V11.1661C47.322 11.7293 47.4012 11.9669 47.5464 12.1869C47.696 12.4025 48.1756 12.5785 48.6992 12.4377V13.8413C48.5936 13.8897 48.4748 13.9205 48.3516 13.9425C48.1184 13.9733 47.85 13.9909 47.5508 13.9909C47.1152 13.9953 46.7588 13.9205 46.4728 13.7841ZM30.7164 13.0317L30.69 13.0537C30.4832 13.3793 29.9156 13.8985 28.8156 13.8985C28.38 13.8941 28.0104 13.7797 27.6936 13.5641C27.3812 13.3441 27.1392 13.0493 26.9676 12.6841C26.8004 12.3145 26.7124 11.9097 26.7124 11.4653C26.7124 10.9461 26.8092 10.4885 26.994 10.1101C27.1832 9.72288 27.4428 9.40608 27.7904 9.15528C28.1292 8.90008 28.534 8.71088 29.0004 8.59208C29.4668 8.46888 29.9816 8.40728 30.536 8.40728C30.5404 8.13888 30.5052 7.89688 30.4392 7.68128C30.3688 7.47448 30.2412 7.30288 30.0564 7.17968C29.876 7.05648 29.612 6.99048 29.2776 6.99048C28.952 6.99048 28.644 7.04328 28.3492 7.14448C28.05 7.24568 27.786 7.37768 27.5572 7.54048L27.2052 6.13688C27.3592 6.03128 27.5572 5.92568 27.7948 5.81568C28.0368 5.71448 28.3096 5.62648 28.6176 5.55608C28.93 5.48568 29.2644 5.45488 29.6296 5.45048C30.1752 5.45488 30.6196 5.54728 30.9804 5.72768C31.3412 5.90808 31.6228 6.15888 31.8296 6.47568C32.0408 6.79248 32.186 7.15328 32.274 7.55368C32.362 7.95848 32.4016 8.38528 32.4016 8.83408V11.6941C32.4016 12.0549 32.5996 12.4377 33.1188 12.4685V13.9777C31.9924 14.2593 31.1784 13.9645 30.7164 13.0317ZM35.9876 16.3229L34.0208 15.3989V8.25768C34.0208 7.73848 34.0164 7.25888 34.0032 6.81888C33.9944 6.38328 34.0208 5.84648 34.0032 5.47688H35.5212C35.6092 5.65288 35.6752 5.83768 35.7148 6.02248C36.256 5.60888 36.9116 5.39768 37.6904 5.40648C38.4956 5.40648 39.0192 5.61328 39.4416 5.96088C39.864 6.29968 40.194 6.77928 40.436 7.39968C40.678 8.02008 40.8012 8.74168 40.8056 9.57768C40.8012 10.3213 40.7132 10.9637 40.5416 11.5049C40.37 12.0461 40.1368 12.4861 39.8508 12.8381C39.5604 13.1857 39.2348 13.4453 38.8784 13.6125C38.522 13.7797 38.148 13.8633 37.7696 13.8633C37.0788 13.8853 36.476 13.7049 35.9876 13.3001V16.3229Z" fill="#8EA652"/>
<path id="Vector_3" d="M20.6228 18.8428C20.6228 19.208 20.5348 19.5028 20.3588 19.7272C20.1828 19.9516 19.9408 20.0616 19.6372 20.0616C19.4788 20.0616 19.3424 20.0352 19.228 19.9824C19.1092 19.9296 19.008 19.8504 18.9288 19.7448V20.9856H18.4668V17.4788H18.8188L18.8936 17.8044C18.9772 17.6812 19.0784 17.5888 19.2016 17.5272C19.3248 17.4612 19.47 17.4304 19.6328 17.4304C19.9452 17.4304 20.1916 17.5536 20.3632 17.8044C20.5392 18.0552 20.6228 18.3852 20.6228 18.7944V18.8428ZM20.1608 18.7944C20.1608 18.5084 20.1036 18.2708 19.9892 18.086C19.8748 17.9012 19.7076 17.8088 19.4876 17.8088C19.3556 17.8088 19.2412 17.8396 19.1488 17.9012C19.0564 17.9628 18.9772 18.042 18.92 18.1476V19.3708C18.9772 19.4764 19.052 19.5556 19.1488 19.6172C19.2412 19.6744 19.3556 19.7052 19.492 19.7052C19.712 19.7052 19.8748 19.626 19.9892 19.4676C20.1036 19.3048 20.1564 19.1024 20.1564 18.8472V18.7944H20.1608ZM22.7436 20.0132C22.7304 19.9384 22.7172 19.868 22.7084 19.8108C22.6996 19.7536 22.6952 19.692 22.6952 19.6348C22.6072 19.758 22.4972 19.8592 22.3608 19.9428C22.2244 20.0264 22.0748 20.066 21.9164 20.066C21.6524 20.066 21.45 20 21.3136 19.8636C21.1772 19.7272 21.1068 19.5424 21.1068 19.3048C21.1068 19.0628 21.2036 18.8736 21.4016 18.7372C21.5996 18.6008 21.8636 18.5304 22.198 18.5304H22.6996V18.2796C22.6996 18.13 22.6556 18.0156 22.5632 17.9276C22.4708 17.8396 22.3432 17.7956 22.1804 17.7956C22.0308 17.7956 21.912 17.8352 21.8196 17.91C21.7272 17.9848 21.6788 18.0772 21.6788 18.1828H21.2388L21.2344 18.1696C21.2256 17.9848 21.3136 17.8176 21.494 17.6636C21.6788 17.5096 21.9164 17.4348 22.2068 17.4348C22.4928 17.4348 22.726 17.5096 22.8976 17.6548C23.0736 17.8 23.1616 18.0112 23.1616 18.2884V19.5072C23.1616 19.5996 23.166 19.6832 23.1748 19.7712C23.1836 19.8548 23.2012 19.9384 23.2276 20.0176H22.7436V20.0132ZM21.978 19.6788C22.1452 19.6788 22.2948 19.6348 22.4312 19.5512C22.5676 19.4632 22.6512 19.3664 22.6952 19.2564V18.8428H22.176C21.9912 18.8428 21.8416 18.8912 21.7316 18.9836C21.6216 19.076 21.5644 19.186 21.5644 19.3136C21.5644 19.428 21.5996 19.516 21.67 19.582C21.7404 19.6436 21.8416 19.6788 21.978 19.6788ZM24.6004 19.076L24.684 19.3928H24.6972L25.322 17.4788H25.8368L24.772 20.4004C24.706 20.572 24.618 20.7172 24.4948 20.8448C24.376 20.9724 24.2132 21.034 24.0108 21.034C23.9756 21.034 23.9272 21.0296 23.87 21.0208C23.8128 21.012 23.7688 21.0032 23.738 20.9944L23.7864 20.6336C23.7776 20.6336 23.804 20.6336 23.87 20.638C23.936 20.6424 23.9756 20.6468 23.9932 20.6468C24.09 20.6468 24.1736 20.6028 24.2352 20.5148C24.2968 20.4268 24.3496 20.33 24.3936 20.2244L24.5036 19.9604L23.562 17.4788H24.0768L24.6004 19.076ZM26.6508 17.4788L26.6816 17.8132C26.7652 17.6944 26.8708 17.5976 26.9984 17.5316C27.126 17.4656 27.2712 17.4304 27.4428 17.4304C27.61 17.4304 27.7552 17.47 27.8784 17.5492C28.0016 17.6284 28.0896 17.7472 28.1512 17.9012C28.2304 17.756 28.336 17.646 28.468 17.558C28.6 17.4744 28.754 17.4304 28.9256 17.4304C29.1852 17.4304 29.3876 17.5184 29.5372 17.6944C29.6868 17.8704 29.7616 18.1388 29.7616 18.4952V20.0088H29.2996V18.4908C29.2996 18.24 29.2556 18.064 29.172 17.9628C29.084 17.8572 28.9564 17.8088 28.7892 17.8088C28.6308 17.8088 28.5032 17.8616 28.4064 17.9716C28.3096 18.0816 28.2524 18.218 28.2348 18.3852V18.4028V20.0132H27.7728V18.4952C27.7728 18.2576 27.7288 18.086 27.6408 17.976C27.5528 17.866 27.4252 17.8088 27.258 17.8088C27.1172 17.8088 27.0028 17.8396 26.9104 17.8968C26.818 17.954 26.752 18.0376 26.7036 18.1388V20.0132H26.2416V17.4788H26.6508ZM31.482 20.0616C31.13 20.0616 30.8484 19.9428 30.6416 19.7096C30.4348 19.4764 30.3292 19.1684 30.3292 18.7944V18.6932C30.3292 18.3324 30.4348 18.0332 30.6504 17.7912C30.866 17.5492 31.1168 17.4304 31.4116 17.4304C31.7548 17.4304 32.01 17.5316 32.186 17.7384C32.362 17.9452 32.45 18.218 32.45 18.5612V18.8472H30.8088L30.8 18.8604C30.8044 19.1024 30.866 19.3048 30.9848 19.4588C31.1036 19.6172 31.2708 19.6964 31.482 19.6964C31.6404 19.6964 31.7768 19.6744 31.8956 19.6304C32.0144 19.5864 32.1156 19.5248 32.1992 19.4456L32.3796 19.7448C32.2872 19.8328 32.1684 19.9076 32.0232 19.9692C31.8692 20.0352 31.6888 20.0616 31.482 20.0616ZM31.4116 17.7956C31.2576 17.7956 31.1256 17.8616 31.0156 17.9936C30.9056 18.1256 30.8396 18.2884 30.8132 18.4864L30.8176 18.4996H31.988V18.438C31.988 18.2576 31.9396 18.1036 31.8428 17.9848C31.7416 17.8572 31.6008 17.7956 31.4116 17.7956ZM33.3784 17.4788L33.4092 17.8572C33.4928 17.7208 33.5984 17.6196 33.726 17.5448C33.8536 17.47 33.9988 17.4348 34.1616 17.4348C34.4344 17.4348 34.6456 17.514 34.7952 17.6724C34.9448 17.8352 35.0196 18.0816 35.0196 18.416V20.0132H34.5576V18.4248C34.5576 18.2004 34.5136 18.042 34.4256 17.9496C34.3376 17.8572 34.2012 17.8088 34.0208 17.8088C33.8888 17.8088 33.77 17.8396 33.6688 17.9056C33.5676 17.9716 33.484 18.0596 33.4224 18.1696V20.0176H32.9604V17.4832H33.3784V17.4788ZM36.3 16.8672V17.4788H36.7796V17.822H36.3V19.362C36.3 19.4808 36.322 19.5644 36.3748 19.6128C36.4232 19.6612 36.4892 19.6876 36.5728 19.6876C36.5992 19.6876 36.63 19.6832 36.6608 19.6788C36.6916 19.6744 36.7224 19.6656 36.7444 19.6568L36.806 19.9736C36.7708 20 36.7224 20.0264 36.6564 20.044C36.5904 20.0616 36.5244 20.0704 36.454 20.0704C36.2648 20.0704 36.1196 20.0132 36.0052 19.8988C35.8952 19.7844 35.838 19.6084 35.838 19.3664V17.8264H35.4332V17.4832H35.838V16.8716H36.3V16.8672ZM39.534 19.34C39.534 19.2388 39.4944 19.1552 39.4196 19.0892C39.3404 19.0232 39.1952 18.966 38.9796 18.9176C38.6716 18.8516 38.4428 18.7592 38.2844 18.6448C38.1304 18.5304 38.0512 18.372 38.0512 18.174C38.0512 17.9672 38.1392 17.7912 38.3152 17.646C38.4912 17.5008 38.72 17.426 38.9972 17.426C39.292 17.426 39.5252 17.5008 39.7012 17.6548C39.8772 17.8088 39.9564 17.9892 39.952 18.2092L39.9476 18.2224H39.5076C39.5076 18.1124 39.4592 18.0112 39.3668 17.9232C39.2744 17.8352 39.1512 17.7912 38.9972 17.7912C38.8344 17.7912 38.7112 17.8264 38.632 17.9012C38.5528 17.9716 38.5132 18.0596 38.5132 18.1608C38.5132 18.262 38.5484 18.3412 38.6188 18.3984C38.6892 18.4556 38.8344 18.5084 39.0456 18.5524C39.3668 18.6228 39.6044 18.7152 39.7584 18.834C39.9124 18.9528 39.9916 19.1112 39.9916 19.3092C39.9916 19.5336 39.8992 19.714 39.7188 19.8548C39.5384 19.9956 39.3008 20.0616 39.006 20.0616C38.6848 20.0616 38.4296 19.978 38.2448 19.8152C38.06 19.6524 37.972 19.4588 37.9808 19.2432L37.9852 19.23H38.4252C38.434 19.3928 38.4956 19.5116 38.6056 19.5908C38.72 19.6656 38.852 19.7052 39.006 19.7052C39.1688 19.7052 39.2964 19.67 39.3932 19.604C39.49 19.538 39.534 19.45 39.534 19.34ZM41.3468 19.076L41.4304 19.3928H41.4436L42.0684 17.4788H42.5832L41.5184 20.4004C41.4524 20.572 41.3644 20.7172 41.2412 20.8448C41.1224 20.9724 40.9596 21.034 40.7572 21.034C40.722 21.034 40.6736 21.0296 40.6164 21.0208C40.5592 21.012 40.5152 21.0032 40.4844 20.9944L40.5328 20.6336C40.524 20.6336 40.5504 20.6336 40.6164 20.638C40.6824 20.6424 40.722 20.6468 40.7396 20.6468C40.8364 20.6468 40.92 20.6028 40.9816 20.5148C41.0432 20.4268 41.096 20.33 41.14 20.2244L41.25 19.9604L40.3084 17.4788H40.8232L41.3468 19.076ZM44.4576 19.34C44.4576 19.2388 44.418 19.1552 44.3432 19.0892C44.264 19.0232 44.1188 18.966 43.9032 18.9176C43.5952 18.8516 43.3664 18.7592 43.208 18.6448C43.054 18.5304 42.9748 18.372 42.9748 18.174C42.9748 17.9672 43.0628 17.7912 43.2388 17.646C43.4148 17.5008 43.6436 17.426 43.9208 17.426C44.2156 17.426 44.4488 17.5008 44.6248 17.6548C44.8008 17.8088 44.88 17.9892 44.8756 18.2092L44.8712 18.2224H44.4312C44.4312 18.1124 44.3828 18.0112 44.2904 17.9232C44.198 17.8352 44.0748 17.7912 43.9208 17.7912C43.758 17.7912 43.6348 17.8264 43.5556 17.9012C43.4764 17.9716 43.4368 18.0596 43.4368 18.1608C43.4368 18.262 43.472 18.3412 43.5424 18.3984C43.6128 18.4556 43.758 18.5084 43.9692 18.5524C44.2904 18.6228 44.528 18.7152 44.682 18.834C44.836 18.9528 44.9152 19.1112 44.9152 19.3092C44.9152 19.5336 44.8228 19.714 44.6424 19.8548C44.462 19.9956 44.2244 20.0616 43.9296 20.0616C43.6084 20.0616 43.3532 19.978 43.1684 19.8152C42.9836 19.6524 42.8956 19.4588 42.9044 19.2432L42.9088 19.23H43.3488C43.3576 19.3928 43.4192 19.5116 43.5292 19.5908C43.6436 19.6656 43.7756 19.7052 43.9296 19.7052C44.0924 19.7052 44.22 19.67 44.3168 19.604C44.4092 19.538 44.4576 19.45 44.4576 19.34ZM46.0988 16.8672V17.4788H46.5784V17.822H46.0988V19.362C46.0988 19.4808 46.1208 19.5644 46.1736 19.6128C46.222 19.6612 46.288 19.6876 46.3716 19.6876C46.398 19.6876 46.4288 19.6832 46.4596 19.6788C46.4904 19.6744 46.5212 19.6656 46.5432 19.6568L46.6048 19.9736C46.5696 20 46.5212 20.0264 46.4552 20.044C46.3892 20.0616 46.3232 20.0704 46.2528 20.0704C46.0636 20.0704 45.9184 20.0132 45.804 19.8988C45.694 19.7844 45.6368 19.6084 45.6368 19.3664V17.8264H45.232V17.4832H45.6368V16.8716H46.0988V16.8672ZM48.1976 20.0616C47.8456 20.0616 47.564 19.9428 47.3572 19.7096C47.1504 19.4764 47.0448 19.1684 47.0448 18.7944V18.6932C47.0448 18.3324 47.1504 18.0332 47.366 17.7912C47.5816 17.5492 47.8324 17.4304 48.1272 17.4304C48.4704 17.4304 48.7256 17.5316 48.9016 17.7384C49.0776 17.9452 49.1656 18.218 49.1656 18.5612V18.8472H47.5244L47.5156 18.8604C47.52 19.1024 47.5816 19.3048 47.7004 19.4588C47.8192 19.6172 47.9864 19.6964 48.1976 19.6964C48.356 19.6964 48.4924 19.6744 48.6112 19.6304C48.73 19.5864 48.8312 19.5248 48.9148 19.4456L49.0952 19.7448C49.0028 19.8328 48.884 19.9076 48.7388 19.9692C48.5892 20.0352 48.4088 20.0616 48.1976 20.0616ZM48.1272 17.7956C47.9732 17.7956 47.8412 17.8616 47.7312 17.9936C47.6212 18.1256 47.5552 18.2884 47.5288 18.4864L47.5332 18.4996H48.7036V18.438C48.7036 18.2576 48.6552 18.1036 48.5584 17.9848C48.4616 17.8572 48.3208 17.7956 48.1272 17.7956ZM50.0984 17.4788L50.1292 17.8132C50.2128 17.6944 50.3184 17.5976 50.446 17.5316C50.5736 17.4656 50.7188 17.4304 50.8904 17.4304C51.0576 17.4304 51.2028 17.47 51.326 17.5492C51.4492 17.6284 51.5372 17.7472 51.5988 17.9012C51.678 17.756 51.7836 17.646 51.9156 17.558C52.0476 17.4744 52.2016 17.4304 52.3732 17.4304C52.6328 17.4304 52.8352 17.5184 52.9848 17.6944C53.1344 17.8704 53.2092 18.1388 53.2092 18.4952V20.0088H52.7472V18.4908C52.7472 18.24 52.7032 18.064 52.6196 17.9628C52.5316 17.8572 52.404 17.8088 52.2368 17.8088C52.0784 17.8088 51.9508 17.8616 51.854 17.9716C51.7572 18.0816 51.7 18.218 51.6824 18.3852V18.4028V20.0132H51.2204V18.4952C51.2204 18.2576 51.1764 18.086 51.0884 17.976C51.0004 17.866 50.8728 17.8088 50.7056 17.8088C50.5648 17.8088 50.4504 17.8396 50.358 17.8968C50.2656 17.954 50.1996 18.0376 50.1512 18.1388V20.0132H49.6892V17.4788H50.0984Z" fill="#2B2D2D"/>
</g>
</g>
<defs>
<clipPath id="clip0_1998_6693">
<rect width="73.04" height="22" fill="white"/>
</clipPath>
</defs>
</svg>
