<svg width="20" height="18" viewBox="0 0 20 18" fill="none" xmlns="http://www.w3.org/2000/svg">
<path fill="var(--icon-color-fill)" d="M19.1663 7.33464V16.5013C19.1663 16.7444 19.0698 16.9776 18.8979 17.1495C18.7259 17.3214 18.4928 17.418 18.2497 17.418H1.74967C1.50656 17.418 1.2734 17.3214 1.10149 17.1495C0.929585 16.9776 0.833008 16.7444 0.833008 16.5013V7.33464H19.1663ZM19.1663 5.5013H0.833008V1.83464C0.833008 1.59152 0.929585 1.35836 1.10149 1.18645C1.2734 1.01455 1.50656 0.917969 1.74967 0.917969H18.2497C18.4928 0.917969 18.7259 1.01455 18.8979 1.18645C19.0698 1.35836 19.1663 1.59152 19.1663 1.83464V5.5013ZM12.7497 12.8346V14.668H16.4163V12.8346H12.7497Z"/>
<path stroke="var(--icon-color-stroke)" d="M12.7497 12.3346H12.2497V12.8346V14.668V15.168H12.7497H16.4163H16.9163V14.668V12.8346V12.3346H16.4163H12.7497ZM18.6663 7.83464V16.5013C18.6663 16.6118 18.6224 16.7178 18.5443 16.7959C18.4662 16.8741 18.3602 16.918 18.2497 16.918H1.74967C1.63917 16.918 1.53319 16.8741 1.45505 16.7959C1.37691 16.7178 1.33301 16.6118 1.33301 16.5013V7.83464H18.6663ZM18.6663 5.0013H1.33301V1.83464C1.33301 1.72413 1.37691 1.61815 1.45505 1.54001C1.53319 1.46187 1.63917 1.41797 1.74967 1.41797H18.2497C18.3602 1.41797 18.4662 1.46187 18.5443 1.54001C18.6224 1.61815 18.6663 1.72413 18.6663 1.83464V5.0013Z"/>
</svg>
