<svg xmlns="http://www.w3.org/2000/svg" width="14" height="14" viewBox="0 0 14 14" fill="none">
    <path d="M7.48112 7.51821C7.54095 7.45451 7.57353 7.37026 7.57198 7.28321C7.57043 7.19616 7.53488 7.1131 7.47282 7.05154C7.41076 6.98998 7.32703 6.95471 7.23927 6.95318C7.15151 6.95164 7.06658 6.98395 7.00237 7.04331L6.09907 7.93935C6.03563 8.00235 6 8.08775 6 8.1768C6 8.26584 6.03563 8.35124 6.09907 8.41425L7.00237 9.31028C7.03338 9.3433 7.07078 9.36978 7.11233 9.38814C7.15388 9.40651 7.19873 9.41638 7.24422 9.41718C7.2897 9.41797 7.33488 9.40967 7.37706 9.39277C7.41924 9.37587 7.45755 9.35072 7.48972 9.31881C7.52188 9.28691 7.54724 9.2489 7.56428 9.20706C7.58131 9.16522 7.58968 9.1204 7.58888 9.07529C7.58808 9.03017 7.57812 8.98568 7.55961 8.94446C7.54109 8.90324 7.5144 8.86615 7.48112 8.83538L7.15593 8.51281H11.7583C11.8481 8.51281 11.9343 8.47741 11.9978 8.41439C12.0613 8.35138 12.097 8.26591 12.097 8.1768C12.097 8.08768 12.0613 8.00221 11.9978 7.9392C11.9343 7.87618 11.8481 7.84078 11.7583 7.84078H7.15593L7.48112 7.51821ZM11.5189 10.6275C11.4554 10.6905 11.4198 10.7759 11.4198 10.8649C11.4198 10.954 11.4554 11.0394 11.5189 11.1024L11.8441 11.4249H7.24174C7.1519 11.4249 7.06574 11.4603 7.00222 11.5233C6.93869 11.5864 6.903 11.6718 6.903 11.7609C6.903 11.8501 6.93869 11.9355 7.00222 11.9985C7.06574 12.0616 7.1519 12.097 7.24174 12.097H11.8441L11.5189 12.4195C11.4856 12.4503 11.4589 12.4874 11.4404 12.5286C11.4219 12.5698 11.4119 12.6143 11.4111 12.6594C11.4103 12.7046 11.4187 12.7494 11.4357 12.7912C11.4528 12.833 11.4781 12.8711 11.5103 12.903C11.5424 12.9349 11.5808 12.96 11.6229 12.9769C11.6651 12.9938 11.7103 13.0021 11.7558 13.0013C11.8013 13.0005 11.8461 12.9907 11.8877 12.9723C11.9292 12.9539 11.9666 12.9274 11.9976 12.8944L12.9009 11.9984C12.9644 11.9354 13 11.85 13 11.7609C13 11.6719 12.9644 11.5865 12.9009 11.5235L11.9976 10.6275C11.9341 10.5645 11.848 10.5292 11.7583 10.5292C11.6685 10.5292 11.5824 10.5645 11.5189 10.6275Z" fill="white"/>
    <path d="M13 5.95979C13 3.15413 13 2.74386 12.121 1.87134C11.2426 1 9.8284 1 7 1C4.1716 1 2.758 1 1.8784 1.87134C1 2.74327 1 4.14609 1 6.95174C1 9.7574 1 11.1608 1.8784 12.0316C2.7574 12.9035 3.1716 12.9035 6 12.9035" stroke="white" stroke-width="0.7"/>
</svg>