<svg width="16" height="16" viewBox="0 0 16 16" fill="none" xmlns="http://www.w3.org/2000/svg">
<path d="M6.75861 14.3269C6.74409 14.3269 6.7296 14.3254 6.71536 14.3226C6.49745 14.2784 6.2819 14.2233 6.06953 14.1574C6.01471 14.1405 5.96885 14.1025 5.94205 14.0518C5.92878 14.0266 5.92058 13.9992 5.91793 13.9709C5.91529 13.9426 5.91823 13.9141 5.92661 13.8869C5.93499 13.8598 5.94863 13.8345 5.96675 13.8127C5.98488 13.7908 6.00714 13.7727 6.03225 13.7594C6.08298 13.7326 6.14227 13.7271 6.1971 13.744C6.39556 13.8058 6.59704 13.8574 6.80077 13.8986C6.85356 13.909 6.90056 13.9388 6.93259 13.982C6.96462 14.0252 6.97937 14.0789 6.97396 14.1324C6.96856 14.186 6.94338 14.2356 6.90336 14.2715C6.86333 14.3075 6.81134 14.3272 6.75753 14.3269H6.75861Z" fill="white"/>
<path d="M14.1501 9.2717C14.1377 9.27166 14.1254 9.27058 14.1132 9.26845C14.0567 9.25868 14.0064 9.22689 13.9734 9.18006C13.9403 9.13323 13.9272 9.0752 13.9369 9.01872C14.1582 7.73153 13.9552 6.4073 13.3585 5.2455C12.7618 4.0837 11.8038 3.14726 10.6286 2.57724C9.45353 2.00723 8.125 1.8345 6.8432 2.08509C5.56139 2.33568 4.39573 2.99601 3.5218 3.96662C3.50279 3.98774 3.47981 4.00492 3.45416 4.01716C3.42852 4.0294 3.40071 4.03647 3.37233 4.03797C3.34395 4.03946 3.31555 4.03535 3.28876 4.02588C3.26197 4.0164 3.23731 4.00173 3.21618 3.98272C3.19506 3.96371 3.17788 3.94073 3.16564 3.91508C3.1534 3.88944 3.14633 3.86163 3.14483 3.83325C3.14334 3.80487 3.14744 3.77647 3.15692 3.74968C3.1664 3.72289 3.18106 3.69823 3.20007 3.6771C4.13656 2.6363 5.38598 1.9281 6.76002 1.65924C8.13406 1.39038 9.55826 1.57542 10.818 2.18647C12.0777 2.79753 13.1047 3.80149 13.7441 5.04705C14.3835 6.2926 14.6008 7.71224 14.3631 9.09202C14.3545 9.14227 14.3284 9.18786 14.2894 9.22074C14.2504 9.25362 14.2011 9.27166 14.1501 9.2717Z" fill="white"/>
<path d="M8.31338 14.447C8.28498 14.4477 8.25673 14.4428 8.23023 14.4326C8.20373 14.4223 8.17951 14.407 8.15894 14.3874C8.11739 14.3479 8.09327 14.2934 8.09186 14.2361C8.09046 14.1787 8.11189 14.1232 8.15144 14.0816C8.191 14.0401 8.24544 14.016 8.30278 14.0146C9.10675 13.9721 9.8942 13.7699 10.6192 13.4198C11.3442 13.0698 11.9922 12.5788 12.5255 11.9756C12.5638 11.9342 12.6168 11.9094 12.6732 11.9065C12.7296 11.9037 12.7848 11.9229 12.8272 11.9603C12.8695 11.9976 12.8956 12.05 12.8998 12.1063C12.904 12.1625 12.8861 12.2183 12.8498 12.2615C12.2784 12.908 11.5839 13.4342 10.8069 13.8094C10.0299 14.1846 9.18602 14.4012 8.3244 14.4468L8.31338 14.447Z" fill="white"/>
<path d="M4.7477 13.5443C4.70803 13.5443 4.66914 13.5334 4.63526 13.5127C4.44237 13.3953 4.25607 13.2674 4.07721 13.1296C4.05473 13.1122 4.0359 13.0906 4.02178 13.066C4.00766 13.0413 3.99854 13.0141 3.99492 12.986C3.99131 12.9578 3.99328 12.9292 4.00072 12.9018C4.00816 12.8744 4.02093 12.8487 4.03829 12.8262C4.05565 12.8038 4.07727 12.7849 4.10191 12.7708C4.12655 12.7567 4.15374 12.7476 4.1819 12.7439C4.21007 12.7403 4.23868 12.7423 4.26609 12.7497C4.29349 12.7572 4.31917 12.7699 4.34164 12.7873C4.50796 12.9154 4.6812 13.0343 4.86056 13.1434C4.90085 13.168 4.932 13.205 4.94927 13.2489C4.96654 13.2928 4.96898 13.3411 4.95622 13.3866C4.94346 13.432 4.9162 13.472 4.87859 13.5004C4.84098 13.5289 4.79509 13.5443 4.74791 13.5443H4.7477Z" fill="white"/>
<path d="M3.01421 11.9678C2.98065 11.9678 2.94754 11.96 2.91752 11.945C2.88749 11.9299 2.86138 11.9081 2.84124 11.8813C2.31265 11.1775 1.93326 10.3733 1.72629 9.51775C1.51932 8.66226 1.48913 7.77352 1.63756 6.90594C1.64734 6.84943 1.67917 6.79912 1.72604 6.76607C1.77292 6.73302 1.831 6.71995 1.88751 6.72973C1.94402 6.73951 1.99434 6.77133 2.02738 6.81821C2.06043 6.86508 2.0735 6.92316 2.06373 6.97967C1.92044 7.78899 1.94624 8.6192 2.13952 9.41805C2.33279 10.2169 2.68935 10.9671 3.18675 11.6214C3.22116 11.6673 3.23593 11.7249 3.22782 11.7817C3.21971 11.8385 3.18938 11.8897 3.14351 11.9241C3.10634 11.9524 3.06092 11.9677 3.01421 11.9678Z" fill="white"/>
<path d="M14.1504 9.27449C14.1158 9.2745 14.0817 9.2662 14.0509 9.25028C14.0202 9.23436 13.9937 9.2113 13.9737 9.18303L13.1247 7.98173C13.1083 7.95854 13.0966 7.93236 13.0903 7.90466C13.084 7.87697 13.0833 7.84831 13.0881 7.82032C13.0978 7.7638 13.1295 7.71344 13.1763 7.68032C13.2232 7.64721 13.2812 7.63404 13.3377 7.64374C13.3943 7.65343 13.4446 7.68518 13.4777 7.732L14.2018 8.75687L15.2265 8.03297C15.2733 7.99988 15.3314 7.98676 15.3879 7.99649C15.4445 8.00623 15.4948 8.03801 15.5279 8.08486C15.561 8.13171 15.5741 8.18979 15.5644 8.24631C15.5546 8.30284 15.5228 8.35318 15.476 8.38627L14.2751 9.2347C14.2387 9.26054 14.1951 9.27444 14.1504 9.27449Z" fill="white"/>
<path d="M2.69904 8.36043C2.66443 8.36044 2.63031 8.35214 2.59958 8.33622C2.56884 8.32031 2.54237 8.29725 2.52239 8.26897L1.79829 7.2441L0.773636 7.968C0.726786 8.00109 0.668711 8.01421 0.612186 8.00448C0.555662 7.99474 0.505318 7.96296 0.472231 7.91611C0.439143 7.86926 0.426022 7.81118 0.435754 7.75466C0.445485 7.69813 0.477273 7.64779 0.524123 7.6147L1.72542 6.76627C1.7486 6.74987 1.77479 6.73819 1.80248 6.73191C1.83018 6.72564 1.85884 6.72487 1.88683 6.72967C1.91482 6.73447 1.94158 6.74474 1.96561 6.75988C1.98963 6.77503 2.01043 6.79476 2.02683 6.81794L2.87591 8.01924C2.89883 8.0516 2.91241 8.08964 2.91516 8.1292C2.91791 8.16875 2.90974 8.20831 2.89152 8.24353C2.87331 8.27875 2.84576 8.30829 2.81189 8.32891C2.77802 8.34953 2.73913 8.36043 2.69947 8.36043H2.69904Z" fill="white"/>
<path d="M6.26558 11.3359H5.56245V4.48281H6.26558V11.3359ZM7.75152 4.48281H8.9562C9.62183 4.48281 10.1125 4.64687 10.4281 4.975C10.7468 5.30312 10.9062 5.81094 10.9062 6.49844C10.9062 7.91406 10.2421 8.62187 8.91402 8.62187H8.48277V11.3359H7.75152V4.48281ZM8.48277 5.12969V7.975H8.87183C9.3312 7.975 9.66245 7.8625 9.86558 7.6375C10.0687 7.40937 10.1703 7.04531 10.1703 6.54531C10.1703 6.04219 10.0687 5.68125 9.86558 5.4625C9.66558 5.24062 9.35308 5.12969 8.92808 5.12969H8.48277Z" fill="white"/>
</svg>
