<svg xmlns="http://www.w3.org/2000/svg" width="20" height="20" viewBox="0 0 20 20" fill="none">
    <path d="M15.0007 12.5H5.83398L4.58398 5H17.5007L15.0007 12.5Z" fill="white" fill-opacity="0.3"/>
    <path d="M2.5 2.5H4.16667L4.58333 5M4.58333 5L5.83333 12.5H15L17.5 5H4.58333Z" stroke="white" stroke-width="0.909091" stroke-linecap="round" stroke-linejoin="round"/>
    <path d="M6.66732 17.5026C7.12756 17.5026 7.50065 17.1295 7.50065 16.6693C7.50065 16.209 7.12756 15.8359 6.66732 15.8359C6.20708 15.8359 5.83398 16.209 5.83398 16.6693C5.83398 17.1295 6.20708 17.5026 6.66732 17.5026Z" stroke="white" stroke-width="1.81818" stroke-linecap="round" stroke-linejoin="round"/>
    <path d="M14.1673 17.5026C14.6276 17.5026 15.0007 17.1295 15.0007 16.6693C15.0007 16.209 14.6276 15.8359 14.1673 15.8359C13.7071 15.8359 13.334 16.209 13.334 16.6693C13.334 17.1295 13.7071 17.5026 14.1673 17.5026Z" stroke="white" stroke-width="1.81818" stroke-linecap="round" stroke-linejoin="round"/>
</svg>