<svg xmlns="http://www.w3.org/2000/svg" width="10" height="10" viewBox="0 0 10 10" fill="none">
    <path d="M9.72565 0.226515C9.65627 0.156988 9.57385 0.101827 9.48312 0.064191C9.39239 0.0265549 9.29513 0.00718224 9.19691 0.00718224C9.09868 0.00718224 9.00142 0.0265549 8.91069 0.064191C8.81996 0.101827 8.73754 0.156988 8.66816 0.226515L5.00066 3.88652L1.33316 0.219015C1.26372 0.149579 1.18129 0.0944988 1.09056 0.0569201C0.99984 0.0193413 0.902604 7.31631e-10 0.804406 0C0.706208 -7.31632e-10 0.608972 0.0193413 0.518248 0.0569201C0.427525 0.0944988 0.345092 0.149579 0.275656 0.219015C0.206219 0.288452 0.151139 0.370885 0.113561 0.461608C0.0759819 0.552331 0.0566406 0.649568 0.0566406 0.747766C0.0566406 0.845963 0.0759819 0.9432 0.113561 1.03392C0.151139 1.12465 0.206219 1.20708 0.275656 1.27652L3.94316 4.94402L0.275656 8.61152C0.206219 8.68095 0.151139 8.76338 0.113561 8.85411C0.0759819 8.94483 0.0566406 9.04207 0.0566406 9.14026C0.0566406 9.23846 0.0759819 9.3357 0.113561 9.42642C0.151139 9.51715 0.206219 9.59958 0.275656 9.66901C0.345092 9.73845 0.427525 9.79353 0.518248 9.83111C0.608972 9.86869 0.706208 9.88803 0.804406 9.88803C0.902604 9.88803 0.99984 9.86869 1.09056 9.83111C1.18129 9.79353 1.26372 9.73845 1.33316 9.66901L5.00066 6.00151L8.66816 9.66901C8.73759 9.73845 8.82003 9.79353 8.91075 9.83111C9.00147 9.86869 9.09871 9.88803 9.19691 9.88803C9.2951 9.88803 9.39234 9.86869 9.48306 9.83111C9.57379 9.79353 9.65622 9.73845 9.72565 9.66901C9.79509 9.59958 9.85017 9.51715 9.88775 9.42642C9.92533 9.3357 9.94467 9.23846 9.94467 9.14026C9.94467 9.04207 9.92533 8.94483 9.88775 8.85411C9.85017 8.76338 9.79509 8.68095 9.72565 8.61152L6.05816 4.94402L9.72565 1.27652C10.0107 0.991516 10.0107 0.511515 9.72565 0.226515Z" fill="#EFC3C3"/>
</svg>