<svg width="19" height="18" viewBox="0 0 19 18" fill="none" xmlns="http://www.w3.org/2000/svg">
<g id="Group 116047062">
<circle id="Ellipse 85" cx="9.88867" cy="9" r="9" fill="white"/>
<path id="Vector" d="M14.669 4.22652C14.5996 4.15699 14.5172 4.10183 14.4265 4.06419C14.3358 4.02655 14.2385 4.00718 14.1403 4.00718C14.042 4.00718 13.9448 4.02655 13.854 4.06419C13.7633 4.10183 13.6809 4.15699 13.6115 4.22652L9.94402 7.88652L6.27652 4.21902C6.20708 4.14958 6.12465 4.0945 6.03392 4.05692C5.9432 4.01934 5.84596 4 5.74777 4C5.64957 4 5.55233 4.01934 5.46161 4.05692C5.37088 4.0945 5.28845 4.14958 5.21902 4.21902C5.14958 4.28845 5.0945 4.37088 5.05692 4.46161C5.01934 4.55233 5 4.64957 5 4.74777C5 4.84596 5.01934 4.9432 5.05692 5.03392C5.0945 5.12465 5.14958 5.20708 5.21902 5.27652L8.88652 8.94402L5.21902 12.6115C5.14958 12.681 5.0945 12.7634 5.05692 12.8541C5.01934 12.9448 5 13.0421 5 13.1403C5 13.2385 5.01934 13.3357 5.05692 13.4264C5.0945 13.5171 5.14958 13.5996 5.21902 13.669C5.28845 13.7385 5.37088 13.7935 5.46161 13.8311C5.55233 13.8687 5.64957 13.888 5.74777 13.888C5.84596 13.888 5.9432 13.8687 6.03392 13.8311C6.12465 13.7935 6.20708 13.7385 6.27652 13.669L9.94402 10.0015L13.6115 13.669C13.681 13.7385 13.7634 13.7935 13.8541 13.8311C13.9448 13.8687 14.0421 13.888 14.1403 13.888C14.2385 13.888 14.3357 13.8687 14.4264 13.8311C14.5171 13.7935 14.5996 13.7385 14.669 13.669C14.7385 13.5996 14.7935 13.5171 14.8311 13.4264C14.8687 13.3357 14.888 13.2385 14.888 13.1403C14.888 13.0421 14.8687 12.9448 14.8311 12.8541C14.7935 12.7634 14.7385 12.681 14.669 12.6115L11.0015 8.94402L14.669 5.27652C14.954 4.99152 14.954 4.51152 14.669 4.22652Z" fill="#E87262" fill-opacity="0.6"/>
</g>
</svg>
