<svg width="12" height="12" viewBox="0 0 12 12" fill="none" xmlns="http://www.w3.org/2000/svg">
<path d="M3.90909 2.36364H7.09091C8.1453 2.36364 9 3.17767 9 4.18182C9 5.186 8.1453 6 7.09091 6M3.90909 2.36364V6M3.90909 2.36364H2M3.90909 2.36364V1M7.09091 6H3.90909M7.09091 6C8.1453 6 9 6.814 9 7.81818C9 8.82236 8.1453 9.63636 7.09091 9.63636H3.90909M3.90909 6V9.63636M3.90909 9.63636H2M3.90909 9.63636L3.91333 11M5.81818 2.36364L5.82667 1M5.81818 11V9.63636" stroke="white" stroke-width="1.2" stroke-linecap="round" stroke-linejoin="round"/>
</svg>
