<svg width="72" height="22" viewBox="0 0 72 22" fill="none" xmlns="http://www.w3.org/2000/svg">
<path d="M21.6711 13.6625C20.2017 19.5572 14.2325 23.1429 8.3378 21.6735C2.44624 20.2042 -1.14054 14.2346 0.329512 8.3413C1.79819 2.44665 7.76711 -1.14013 13.6597 0.329233C19.5537 1.7986 23.1401 7.76888 21.6707 13.6625H21.6711Z" fill="#F7931A"/>
<path d="M15.8642 9.44446C16.0832 7.9806 14.9686 7.19366 13.4446 6.66869L13.939 4.6857L12.7319 4.38488L12.2506 6.31561C11.9291 6.23662 11.6068 6.16075 11.2839 6.08802L11.7686 4.14457L10.5619 3.84375L10.0675 5.82605C9.80486 5.76623 9.54702 5.7071 9.29674 5.64488L9.29811 5.63869L7.63347 5.22304L7.31237 6.51226C7.31237 6.51226 8.20794 6.71751 8.18904 6.73023C8.67791 6.85227 8.76626 7.17578 8.75148 7.43225L8.18835 9.69131C8.22204 9.6999 8.2657 9.71262 8.31383 9.73153L8.18629 9.6999L7.39694 12.8645C7.33712 13.013 7.18551 13.2358 6.84343 13.1512C6.85581 13.1688 5.96642 12.9322 5.96642 12.9322L5.36719 14.3143L6.93798 14.7062C7.2302 14.7791 7.51658 14.8557 7.79849 14.9279L7.29896 16.9336L8.50464 17.2344L8.99901 15.2497C9.32836 15.3395 9.64809 15.4216 9.96094 15.4997L9.46794 17.4748L10.6747 17.7756L11.1745 15.7737C13.2328 16.1632 14.7806 16.0061 15.4321 14.1448C15.957 12.6459 15.4059 11.7812 14.323 11.2171C15.1116 11.0348 15.7057 10.5161 15.8642 9.44446ZM13.106 13.3114C12.7329 14.8104 10.2092 14.0004 9.39093 13.7969L10.0538 11.1397C10.872 11.3443 13.4958 11.7486 13.106 13.3114ZM13.4793 9.42315C13.139 10.7863 11.0384 10.0935 10.357 9.92371L10.9579 7.51373C11.6393 7.68356 13.8338 8.00054 13.4793 9.4228V9.42315Z" fill="white"/>
<g clip-path="url(#clip0_1998_6705)">
<path d="M33.751 0L33.6035 0.501199V15.0448L33.751 15.192L40.502 11.2015L33.751 0Z" fill="#343434"/>
<path d="M33.751 0L27 11.2015L33.751 15.1921V8.13304V0Z" fill="#8C8C8C"/>
<path d="M33.7511 16.4729L33.668 16.5742V21.7549L33.7511 21.9977L40.5061 12.4844L33.7511 16.4729Z" fill="#3C3C3B"/>
<path d="M33.751 21.9977V16.4729L27 12.4844L33.751 21.9977Z" fill="#8C8C8C"/>
<path d="M33.751 15.1918L40.5019 11.2013L33.751 8.13281V15.1918Z" fill="#141414"/>
<path d="M27 11.2013L33.7509 15.1918V8.13281L27 11.2013Z" fill="#393939"/>
</g>
<g clip-path="url(#clip1_1998_6705)">
<path fill-rule="evenodd" clip-rule="evenodd" d="M50.5325 -0.279388L45.9421 9.36111C45.905 9.43527 45.9198 9.52426 45.9792 9.57617L58.3709 21.4562C58.4451 21.523 58.5563 21.523 58.6305 21.4562L71.0296 9.57617C71.089 9.51684 71.1038 9.43527 71.0667 9.36111L66.4764 -0.279388C66.4467 -0.34613 66.38 -0.390625 66.3058 -0.390625H50.703C50.6289 -0.390625 50.5621 -0.34613 50.5325 -0.279388Z" fill="#50AF95"/>
<path fill-rule="evenodd" clip-rule="evenodd" d="M60.0977 10.351C60.0087 10.3585 59.5489 10.3881 58.5256 10.3881C57.7098 10.3881 57.1314 10.3659 56.9312 10.351C53.7795 10.2101 51.4287 9.66137 51.4287 9.00878C51.4287 8.34878 53.7795 7.80002 56.9312 7.66653V9.80969C57.1388 9.82452 57.7247 9.8616 58.5404 9.8616C59.5193 9.8616 60.0087 9.8171 60.0977 9.80969V7.66653C63.242 7.80743 65.5928 8.3562 65.5928 9.00878C65.5928 9.66137 63.242 10.2101 60.0977 10.351ZM60.0977 7.44406V5.52337H64.4878V2.60156H52.541V5.52337H56.9312V7.44406C53.3642 7.60721 50.6797 8.3117 50.6797 9.16452C50.6797 10.0173 53.3642 10.7144 56.9312 10.885V17.0252H60.1051V10.8776C63.6647 10.7144 66.3418 10.0099 66.3418 9.16452C66.3418 8.31912 63.6647 7.60721 60.0977 7.44406Z" fill="white"/>
</g>
<defs>
<clipPath id="clip0_1998_6705">
<rect width="13.506" height="22" fill="white" transform="translate(27)"/>
</clipPath>
<clipPath id="clip1_1998_6705">
<rect width="26" height="22" fill="white" transform="translate(45.5078)"/>
</clipPath>
</defs>
</svg>
