<svg xmlns="http://www.w3.org/2000/svg" width="12" height="14" viewBox="0 0 12 14" fill="none">
    <path d="M4.18164 2.84616V1.69231C4.18138 1.60132 4.19884 1.51118 4.23301 1.42706C4.26718 1.34295 4.31739 1.26652 4.38076 1.20218C4.44412 1.13784 4.51939 1.08686 4.60223 1.05216C4.68507 1.01746 4.77385 0.999736 4.86346 1H7.13619C7.2258 0.999736 7.31458 1.01746 7.39742 1.05216C7.48026 1.08686 7.55553 1.13784 7.61889 1.20218C7.68226 1.26652 7.73247 1.34295 7.76664 1.42706C7.80081 1.51118 7.81827 1.60132 7.81801 1.69231V2.84616" stroke="white" stroke-linecap="round" stroke-linejoin="round"/>
    <path d="M1.90918 2.84375L2.47736 12.0745C2.50435 12.6079 2.88645 12.9976 3.38645 12.9976H8.61373C9.11571 12.9976 9.49071 12.6079 9.52282 12.0745L10.091 2.84375" stroke="white" stroke-linecap="round" stroke-linejoin="round"/>
    <path d="M1 2.84375H11" stroke="white" stroke-miterlimit="10" stroke-linecap="round"/>
</svg>