<svg width="22" height="22" viewBox="0 0 22 22" fill="none" xmlns="http://www.w3.org/2000/svg">
<mask id="path-1-inside-1_13_54" fill="white">
<path d="M5.85759 19C5.34675 19 4.90929 18.8162 4.5452 18.4487C4.18112 18.0812 3.99938 17.64 4 17.125C4 16.6094 4.18204 16.1678 4.54613 15.8003C4.91022 15.4328 5.34737 15.2494 5.85759 15.25C6.36842 15.25 6.80588 15.4337 7.16997 15.8012C7.53406 16.1687 7.71579 16.61 7.71517 17.125C7.71517 17.6406 7.53313 18.0822 7.16904 18.4497C6.80496 18.8172 6.3678 19.0006 5.85759 19ZM5.85759 13.375C5.34675 13.375 4.90929 13.1912 4.5452 12.8237C4.18112 12.4562 3.99938 12.015 4 11.5C4 10.9844 4.18204 10.5428 4.54613 10.1753C4.91022 9.80781 5.34737 9.62438 5.85759 9.625C6.36842 9.625 6.80588 9.80875 7.16997 10.1763C7.53406 10.5438 7.71579 10.985 7.71517 11.5C7.71517 12.0156 7.53313 12.4572 7.16904 12.8247C6.80496 13.1922 6.3678 13.3756 5.85759 13.375ZM5.85759 7.75C5.34675 7.75 4.90929 7.56625 4.5452 7.19875C4.18112 6.83125 3.99938 6.39 4 5.875C4 5.35938 4.18204 4.91781 4.54613 4.55031C4.91022 4.18281 5.34737 3.99938 5.85759 4C6.36842 4 6.80588 4.18375 7.16997 4.55125C7.53406 4.91875 7.71579 5.36 7.71517 5.875C7.71517 6.39063 7.53313 6.83219 7.16904 7.19969C6.80496 7.56719 6.3678 7.75063 5.85759 7.75ZM11.4303 13.375C10.9195 13.375 10.482 13.1912 10.118 12.8237C9.75387 12.4562 9.57214 12.015 9.57276 11.5C9.57276 10.9844 9.7548 10.5428 10.1189 10.1753C10.483 9.80781 10.9201 9.62438 11.4303 9.625C11.9412 9.625 12.3786 9.80875 12.7427 10.1763C13.1068 10.5438 13.2885 10.985 13.2879 11.5L11.4303 13.375ZM11.4303 7.75C10.9195 7.75 10.482 7.56625 10.118 7.19875C9.75387 6.83125 9.57214 6.39 9.57276 5.875C9.57276 5.35938 9.7548 4.91781 10.1189 4.55031C10.483 4.18281 10.9201 3.99938 11.4303 4C11.9412 4 12.3786 4.18375 12.7427 4.55125C13.1068 4.91875 13.2885 5.36 13.2879 5.875C13.2879 6.39063 13.1059 6.83219 12.7418 7.19969C12.3777 7.56719 11.9406 7.75063 11.4303 7.75ZM10.5015 19V17.0078L15.4241 12.0391L17.3978 14.0312L12.4752 19H10.5015ZM17.0031 7.75C16.4923 7.75 16.0548 7.56625 15.6907 7.19875C15.3266 6.83125 15.1449 6.39 15.1455 5.875C15.1455 5.35938 15.3276 4.91781 15.6916 4.55031C16.0557 4.18281 16.4929 3.99938 17.0031 4C17.5139 4 17.9514 4.18375 18.3155 4.55125C18.6796 4.91875 18.8613 5.36 18.8607 5.875C18.8607 6.39063 18.6786 6.83219 18.3146 7.19969C17.9505 7.56719 17.5133 7.75063 17.0031 7.75ZM18.048 13.375L16.0743 11.3828L16.7477 10.7031C16.9334 10.5156 17.1542 10.4219 17.4099 10.4219C17.6656 10.4219 17.8783 10.5156 18.048 10.7031L18.7214 11.3828C18.9071 11.5547 19 11.7697 19 12.0278C19 12.2859 18.9071 12.5084 18.7214 12.6953L18.048 13.375Z"/>
</mask>
<path fill="var(--icon-color-fill)" stroke="var(--icon-color-stroke)" stroke-width="1.83333" mask="url(#path-1-inside-1_13_54)" d="M5.85759 19C5.34675 19 4.90929 18.8162 4.5452 18.4487C4.18112 18.0812 3.99938 17.64 4 17.125C4 16.6094 4.18204 16.1678 4.54613 15.8003C4.91022 15.4328 5.34737 15.2494 5.85759 15.25C6.36842 15.25 6.80588 15.4337 7.16997 15.8012C7.53406 16.1687 7.71579 16.61 7.71517 17.125C7.71517 17.6406 7.53313 18.0822 7.16904 18.4497C6.80496 18.8172 6.3678 19.0006 5.85759 19ZM5.85759 13.375C5.34675 13.375 4.90929 13.1912 4.5452 12.8237C4.18112 12.4562 3.99938 12.015 4 11.5C4 10.9844 4.18204 10.5428 4.54613 10.1753C4.91022 9.80781 5.34737 9.62438 5.85759 9.625C6.36842 9.625 6.80588 9.80875 7.16997 10.1763C7.53406 10.5438 7.71579 10.985 7.71517 11.5C7.71517 12.0156 7.53313 12.4572 7.16904 12.8247C6.80496 13.1922 6.3678 13.3756 5.85759 13.375ZM5.85759 7.75C5.34675 7.75 4.90929 7.56625 4.5452 7.19875C4.18112 6.83125 3.99938 6.39 4 5.875C4 5.35938 4.18204 4.91781 4.54613 4.55031C4.91022 4.18281 5.34737 3.99938 5.85759 4C6.36842 4 6.80588 4.18375 7.16997 4.55125C7.53406 4.91875 7.71579 5.36 7.71517 5.875C7.71517 6.39063 7.53313 6.83219 7.16904 7.19969C6.80496 7.56719 6.3678 7.75063 5.85759 7.75ZM11.4303 13.375C10.9195 13.375 10.482 13.1912 10.118 12.8237C9.75387 12.4562 9.57214 12.015 9.57276 11.5C9.57276 10.9844 9.7548 10.5428 10.1189 10.1753C10.483 9.80781 10.9201 9.62438 11.4303 9.625C11.9412 9.625 12.3786 9.80875 12.7427 10.1763C13.1068 10.5438 13.2885 10.985 13.2879 11.5L11.4303 13.375ZM11.4303 7.75C10.9195 7.75 10.482 7.56625 10.118 7.19875C9.75387 6.83125 9.57214 6.39 9.57276 5.875C9.57276 5.35938 9.7548 4.91781 10.1189 4.55031C10.483 4.18281 10.9201 3.99938 11.4303 4C11.9412 4 12.3786 4.18375 12.7427 4.55125C13.1068 4.91875 13.2885 5.36 13.2879 5.875C13.2879 6.39063 13.1059 6.83219 12.7418 7.19969C12.3777 7.56719 11.9406 7.75063 11.4303 7.75ZM10.5015 19V17.0078L15.4241 12.0391L17.3978 14.0312L12.4752 19H10.5015ZM17.0031 7.75C16.4923 7.75 16.0548 7.56625 15.6907 7.19875C15.3266 6.83125 15.1449 6.39 15.1455 5.875C15.1455 5.35938 15.3276 4.91781 15.6916 4.55031C16.0557 4.18281 16.4929 3.99938 17.0031 4C17.5139 4 17.9514 4.18375 18.3155 4.55125C18.6796 4.91875 18.8613 5.36 18.8607 5.875C18.8607 6.39063 18.6786 6.83219 18.3146 7.19969C17.9505 7.56719 17.5133 7.75063 17.0031 7.75ZM18.048 13.375L16.0743 11.3828L16.7477 10.7031C16.9334 10.5156 17.1542 10.4219 17.4099 10.4219C17.6656 10.4219 17.8783 10.5156 18.048 10.7031L18.7214 11.3828C18.9071 11.5547 19 11.7697 19 12.0278C19 12.2859 18.9071 12.5084 18.7214 12.6953L18.048 13.375Z" />
</svg>
