<svg width="26" height="25" viewBox="0 0 26 25" fill="none" xmlns="http://www.w3.org/2000/svg">
<path d="M8.47926 11.1621C8.42331 11.1084 8.37881 11.0439 8.34841 10.9726C8.31801 10.9013 8.30234 10.8246 8.30234 10.7471C8.30234 10.6696 8.31801 10.5929 8.34841 10.5216C8.37881 10.4502 8.42331 10.3858 8.47926 10.332C8.53228 10.2765 8.59606 10.2323 8.66672 10.202C8.73739 10.1718 8.81346 10.1562 8.89034 10.1562C8.96722 10.1562 9.0433 10.1718 9.11396 10.202C9.18463 10.2323 9.2484 10.2765 9.30142 10.332L12.4139 13.4277V3.90625C12.4139 3.75085 12.4758 3.60181 12.5859 3.49193C12.696 3.38204 12.8454 3.32031 13.0011 3.32031C13.1569 3.32031 13.3063 3.38204 13.4164 3.49193C13.5265 3.60181 13.5884 3.75085 13.5884 3.90625V13.4277L16.7009 10.332C16.7539 10.2765 16.8177 10.2323 16.8883 10.202C16.959 10.1718 17.0351 10.1562 17.1119 10.1562C17.1888 10.1562 17.2649 10.1718 17.3356 10.202C17.4062 10.2323 17.47 10.2765 17.523 10.332C17.579 10.3858 17.6235 10.4502 17.6539 10.5216C17.6843 10.5929 17.6999 10.6696 17.6999 10.7471C17.6999 10.8246 17.6843 10.9013 17.6539 10.9726C17.6235 11.0439 17.579 11.1084 17.523 11.1621L13.4122 15.2539C13.3592 15.3095 13.2954 15.3537 13.2248 15.3839C13.1541 15.4141 13.078 15.4297 13.0011 15.4297C12.9243 15.4297 12.8482 15.4141 12.7775 15.3839C12.7069 15.3537 12.6431 15.3095 12.5901 15.2539L8.47926 11.1621ZM21.6142 14.2578C21.4585 14.2578 21.3091 14.3195 21.199 14.4294C21.0889 14.5393 21.027 14.6883 21.027 14.8438V20.3125C21.027 20.3643 21.0064 20.414 20.9697 20.4506C20.9329 20.4872 20.8832 20.5078 20.8312 20.5078H5.17105C5.11913 20.5078 5.06934 20.4872 5.03263 20.4506C4.99592 20.414 4.9753 20.3643 4.9753 20.3125V14.8438C4.9753 14.6883 4.91342 14.5393 4.80329 14.4294C4.69316 14.3195 4.54379 14.2578 4.38804 14.2578C4.23229 14.2578 4.08292 14.3195 3.97278 14.4294C3.86265 14.5393 3.80078 14.6883 3.80078 14.8438V20.3125C3.80078 20.6751 3.94515 21.0228 4.20212 21.2792C4.4591 21.5356 4.80763 21.6797 5.17105 21.6797H20.8312C21.1947 21.6797 21.5432 21.5356 21.8002 21.2792C22.0571 21.0228 22.2015 20.6751 22.2015 20.3125V14.8438C22.2015 14.6883 22.1396 14.5393 22.0295 14.4294C21.9194 14.3195 21.77 14.2578 21.6142 14.2578Z" fill="white" fill-opacity="0.5"/>
</svg>
