<svg xmlns="http://www.w3.org/2000/svg" width="14" height="14" viewBox="0 0 14 14" fill="none">
    <path d="M7.59359 6.09088L8.26721 5.9923L12.4053 1.75915C12.4443 1.72062 12.4754 1.67452 12.4968 1.62356C12.5182 1.5726 12.5294 1.51778 12.5299 1.46232C12.5304 1.40686 12.52 1.35185 12.4995 1.30051C12.479 1.24918 12.4487 1.20254 12.4103 1.16332C12.372 1.1241 12.3264 1.09308 12.2763 1.07208C12.2261 1.05107 12.1723 1.04051 12.1181 1.04099C12.0639 1.04147 12.0103 1.05299 11.9605 1.07489C11.9107 1.09678 11.8657 1.1286 11.828 1.1685L7.68912 5.40165L7.59277 6.09088H7.59359ZM12.9825 0.577008C13.0964 0.693385 13.1866 0.831567 13.2482 0.983659C13.3098 1.13575 13.3416 1.29877 13.3416 1.46341C13.3416 1.62804 13.3098 1.79106 13.2482 1.94315C13.1866 2.09524 13.0964 2.23343 12.9825 2.3498L8.74895 6.68153C8.68652 6.74565 8.60543 6.78728 8.51788 6.80017L7.17064 6.99733C7.10785 7.00656 7.04383 7.00068 6.98364 6.98018C6.92346 6.95968 6.86877 6.92512 6.82392 6.87922C6.77907 6.83333 6.74528 6.77738 6.72525 6.7158C6.70521 6.65422 6.69947 6.58871 6.70849 6.52447L6.90119 5.146C6.91356 5.05653 6.95396 4.97357 7.01632 4.90958L11.2507 0.577844C11.4804 0.342914 11.7919 0.210937 12.1166 0.210938C12.4414 0.210937 12.7529 0.342914 12.9825 0.577844V0.577008Z" fill="white"/>
    <path d="M6.95511 0.984375C4.14787 0.984375 2.74485 0.984375 1.87183 1.864C1 2.74422 1 4.16039 1 6.99274C1 9.82508 1 11.2418 1.87183 12.1209C2.74425 13.0011 4.14787 13.0011 6.95511 13.0011C9.76235 13.0011 11.1666 13.0011 12.0378 12.1209C12.9102 11.2412 12.9102 9.82508 12.9102 6.99274" stroke="white" stroke-width="0.7"/>
</svg>