<svg width="13" height="13" viewBox="0 0 13 13" fill="none" xmlns="http://www.w3.org/2000/svg">
<path d="M9.92196 0.204762C9.7776 0.0635092 9.6106 -0.00279267 9.41813 9.00327e-05C9.22566 0.00297273 9.06149 0.0808075 8.92562 0.224943L7.81889 1.3982L10.924 4.45098L12.042 3.26619C12.175 3.12782 12.2317 2.94909 12.2288 2.75307C12.226 2.55993 12.1581 2.38409 12.0222 2.25148L9.92196 0.204762ZM4.12226 11.6404C3.71183 11.773 3.30424 11.9114 2.89665 12.0469C2.48622 12.1853 2.07863 12.3265 1.67104 12.4649C0.705838 12.7878 0.165212 12.9665 0.0519915 12.9982C-0.0583982 13.0328 0.00670253 12.5716 0.250126 11.6116L1.01719 8.59919L6.83388 2.43597L9.93611 5.47722L4.12226 11.6404Z" fill="white" fill-opacity="0.6"/>
</svg>
