<svg xmlns="http://www.w3.org/2000/svg" width="13" height="12" viewBox="0 0 13 12" fill="none">
    <path d="M3.32287 1.89342C3.41671 1.79271 3.46779 1.65951 3.46536 1.52188C3.46294 1.38425 3.40718 1.25293 3.30985 1.1556C3.21251 1.05827 3.0812 1.00251 2.94357 1.00008C2.80594 0.997654 2.67274 1.04874 2.57203 1.14258L1.15537 2.55925C1.05588 2.65886 1 2.79388 1 2.93466C1 3.07545 1.05588 3.21047 1.15537 3.31008L2.57203 4.72675C2.62067 4.77894 2.67932 4.82081 2.74448 4.84984C2.80965 4.87888 2.88 4.89449 2.95133 4.89575C3.02266 4.89701 3.09351 4.88389 3.15966 4.85717C3.22581 4.83045 3.2859 4.79068 3.33635 4.74023C3.3868 4.68979 3.42657 4.6297 3.45329 4.56355C3.48001 4.4974 3.49313 4.42654 3.49187 4.35521C3.49061 4.28388 3.475 4.21353 3.44596 4.14837C3.41692 4.0832 3.37506 4.02455 3.32287 3.97591L2.81287 3.46591H10.0308C10.1717 3.46591 10.3068 3.40994 10.4064 3.31031C10.5061 3.21069 10.562 3.07556 10.562 2.93466C10.562 2.79377 10.5061 2.65864 10.4064 2.55901C10.3068 2.45939 10.1717 2.40341 10.0308 2.40341H2.81287L3.32287 1.89342ZM9.65536 6.80925C9.55588 6.90886 9.5 7.04388 9.5 7.18466C9.5 7.32545 9.55588 7.46047 9.65536 7.56008L10.1654 8.07008H2.94745C2.80655 8.07008 2.67143 8.12605 2.5718 8.22568C2.47217 8.32531 2.4162 8.46043 2.4162 8.60133C2.4162 8.74223 2.47217 8.87735 2.5718 8.97698C2.67143 9.07661 2.80655 9.13258 2.94745 9.13258H10.1654L9.65536 9.64258C9.60317 9.69122 9.56131 9.74987 9.53227 9.81503C9.50323 9.8802 9.48762 9.95055 9.48636 10.0219C9.4851 10.0932 9.49823 10.1641 9.52494 10.2302C9.55166 10.2964 9.59143 10.3565 9.64188 10.4069C9.69233 10.4573 9.75242 10.4971 9.81857 10.5238C9.88472 10.5506 9.95557 10.5637 10.0269 10.5624C10.0982 10.5612 10.1686 10.5455 10.2337 10.5165C10.2989 10.4875 10.3576 10.4456 10.4062 10.3934L11.8229 8.97675C11.9224 8.87714 11.9782 8.74211 11.9782 8.60133C11.9782 8.46055 11.9224 8.32552 11.8229 8.22591L10.4062 6.80925C10.3066 6.70976 10.1716 6.65388 10.0308 6.65388C9.89 6.65388 9.75497 6.70976 9.65536 6.80925Z" fill="white"/>
</svg>