<svg xmlns="http://www.w3.org/2000/svg" width="12" height="12" viewBox="0 0 12 12" fill="none">
    <path d="M4.30626 7.04914C4.25917 7.09967 4.2024 7.1402 4.13931 7.16831C4.07623 7.19642 4.00813 7.21153 3.93907 7.21275C3.87002 7.21397 3.80143 7.20126 3.73739 7.1754C3.67335 7.14953 3.61518 7.11103 3.56635 7.0622C3.51751 7.01336 3.47901 6.95519 3.45315 6.89115C3.42728 6.82712 3.41458 6.75852 3.41579 6.68947C3.41701 6.62042 3.43213 6.55232 3.46024 6.48923C3.48835 6.42615 3.52887 6.36937 3.5794 6.32229L5.63654 4.26514C5.73297 4.16883 5.86369 4.11474 5.99997 4.11474C6.13626 4.11474 6.26697 4.16883 6.3634 4.26514L8.42054 6.32229C8.47107 6.36937 8.5116 6.42615 8.53971 6.48923C8.56782 6.55232 8.58293 6.62042 8.58415 6.68947C8.58537 6.75852 8.57266 6.82712 8.5468 6.89115C8.52093 6.95519 8.48243 7.01336 8.4336 7.0622C8.38476 7.11103 8.32659 7.14953 8.26255 7.1754C8.19851 7.20126 8.12992 7.21397 8.06087 7.21275C7.99182 7.21153 7.92372 7.19642 7.86063 7.16831C7.79755 7.1402 7.74077 7.09967 7.69369 7.04914L6.51426 5.86971L6.51426 11.4857C6.51426 11.6221 6.46007 11.7529 6.36363 11.8494C6.26718 11.9458 6.13637 12 5.99997 12C5.86357 12 5.73276 11.9458 5.63632 11.8494C5.53987 11.7529 5.48569 11.6221 5.48569 11.4857L5.48569 5.86971L4.30626 7.04914Z" fill="white"/>
    <path d="M0 6.00134C0 6.13774 0.054183 6.26855 0.15063 6.36499C0.247077 6.46144 0.377889 6.51562 0.514285 6.51562C0.650682 6.51562 0.781493 6.46144 0.877941 6.36499C0.974388 6.26855 1.02857 6.13774 1.02857 6.00134C1.02857 5.34848 1.15716 4.70202 1.407 4.09886C1.65684 3.49569 2.02303 2.94765 2.48467 2.48601C2.94631 2.02437 3.49436 1.65818 4.09752 1.40834C4.70068 1.1585 5.34714 1.02991 6 1.02991C6.65286 1.02991 7.29932 1.1585 7.90248 1.40834C8.50564 1.65818 9.05369 2.02437 9.51533 2.48601C9.97697 2.94765 10.3432 3.49569 10.593 4.09886C10.8428 4.70202 10.9714 5.34848 10.9714 6.00134C10.9714 6.13774 11.0256 6.26855 11.1221 6.36499C11.2185 6.46144 11.3493 6.51562 11.4857 6.51562C11.6221 6.51562 11.7529 6.46144 11.8494 6.36499C11.9458 6.26855 12 6.13774 12 6.00134C12 4.41004 11.3679 2.88392 10.2426 1.7587C9.11742 0.633481 7.5913 0.00134039 6 0.00134039C4.4087 0.00134039 2.88258 0.633481 1.75736 1.7587C0.63214 2.88392 0 4.41004 0 6.00134Z" fill="white"/>
</svg>