<svg width="16" height="12" viewBox="0 0 16 12" fill="none" xmlns="http://www.w3.org/2000/svg">
<path d="M13.6421 1.47368H6.82105L5.30526 0H1.51579C0.682105 0 1.77632e-08 0.663158 0 1.47368V4.42105H15.1579V2.94737C15.1579 2.13684 14.4758 1.47368 13.6421 1.47368Z" fill="#9B9B9B"/>
<path d="M13.6421 1.26172H1.51579C0.682105 1.26172 1.77632e-08 1.95194 0 2.79555V10.4647C0 11.3083 0.682105 11.9986 1.51579 11.9986H13.6421C14.4758 11.9986 15.1579 11.3083 15.1579 10.4647V2.79555C15.1579 1.95194 14.4758 1.26172 13.6421 1.26172Z" fill="#D2D2D2"/>
<path d="M5.58352 10C5.42316 10 5.28062 9.95309 5.17372 9.85928C4.94209 9.67166 4.94209 9.34332 5.17372 9.1557L7.6147 6.99805L5.17372 4.85603C4.94209 4.6684 4.94209 4.34007 5.17372 4.15244C5.38753 3.94919 5.76169 3.94919 5.9755 4.15244L8.82628 6.65407C9.05791 6.84169 9.05791 7.17003 8.82628 7.35765L5.9755 9.85928C5.8686 9.95309 5.72606 10 5.58352 10Z" fill="#1F1D1D"/>
</svg>
