<svg width="16" height="12" viewBox="0 0 16 12" fill="none" xmlns="http://www.w3.org/2000/svg">
<path d="M13.6421 1.47368H6.82105L5.30526 0H1.51579C0.682105 0 1.77632e-08 0.663158 0 1.47368V4.42105H15.1579V2.94737C15.1579 2.13684 14.4758 1.47368 13.6421 1.47368Z" fill="#9B9B9B"/>
<path d="M13.6421 1.26172H1.51579C0.682105 1.26172 1.77632e-08 1.95194 0 2.79555V10.4647C0 11.3083 0.682105 11.9986 1.51579 11.9986H13.6421C14.4758 11.9986 15.1579 11.3083 15.1579 10.4647V2.79555C15.1579 1.95194 14.4758 1.26172 13.6421 1.26172Z" fill="#D2D2D2"/>
<path d="M8.41648 4C8.57684 4 8.71938 4.04691 8.82628 4.14072C9.05791 4.32834 9.05791 4.65668 8.82628 4.8443L6.3853 7.00195L8.82628 9.14397C9.05791 9.3316 9.05791 9.65993 8.82628 9.84756C8.61247 10.0508 8.23831 10.0508 8.0245 9.84756L5.17372 7.34593C4.94209 7.15831 4.94209 6.82997 5.17372 6.64235L8.0245 4.14072C8.1314 4.04691 8.27394 4 8.41648 4Z" fill="#1F1D1D"/>
</svg>
