<svg width="14" height="14" viewBox="0 0 14 14" fill="none" xmlns="http://www.w3.org/2000/svg">
<path d="M13.2937 5.6H12.194C12.0486 5.59694 11.9074 5.55035 11.7888 5.46625C11.6701 5.38214 11.5794 5.26439 11.5283 5.1282L11.5248 5.1191C11.4655 4.98666 11.4472 4.83953 11.4721 4.69659C11.4971 4.55366 11.5642 4.42144 11.6648 4.3169L12.4418 3.5399C12.5743 3.40732 12.6488 3.22755 12.6488 3.0401C12.6488 2.85265 12.5743 2.67288 12.4418 2.5403L11.4618 1.5603C11.3292 1.42779 11.1494 1.35335 10.962 1.35335C10.7746 1.35335 10.5948 1.42779 10.4622 1.5603L9.6852 2.3373C9.58066 2.43792 9.44844 2.50501 9.3055 2.52995C9.16257 2.5549 9.01544 2.53656 8.883 2.4773H8.8739C8.73639 2.4261 8.61755 2.33453 8.53299 2.21462C8.44842 2.0947 8.40206 1.95202 8.4 1.8053V0.7063C8.4 0.518978 8.32559 0.339327 8.19313 0.206871C8.06067 0.0744136 7.88102 0 7.6937 0H6.3063C6.11898 0 5.93933 0.0744136 5.80687 0.206871C5.67441 0.339327 5.6 0.518978 5.6 0.7063V1.8053C5.59698 1.95081 5.55042 2.09208 5.46632 2.21087C5.38222 2.32966 5.26445 2.42051 5.1282 2.4717H5.1191C4.98666 2.53096 4.83953 2.5493 4.69659 2.52435C4.55366 2.49941 4.42144 2.43232 4.3169 2.3317L3.5399 1.5547C3.40732 1.42219 3.22755 1.34775 3.0401 1.34775C2.85265 1.34775 2.67288 1.42219 2.5403 1.5547L1.5603 2.5347C1.42779 2.66728 1.35335 2.84705 1.35335 3.0345C1.35335 3.22195 1.42779 3.40172 1.5603 3.5343L2.3373 4.3113C2.43792 4.41584 2.50501 4.54806 2.52995 4.69099C2.5549 4.83393 2.53656 4.98106 2.4773 5.1135V5.1226C2.42679 5.26071 2.3356 5.38027 2.21575 5.4655C2.09591 5.55073 1.95304 5.59762 1.806 5.6H0.7063C0.518978 5.6 0.339327 5.67441 0.206871 5.80687C0.0744136 5.93933 0 6.11898 0 6.3063V7.6937C0 7.88102 0.0744136 8.06067 0.206871 8.19313C0.339327 8.32559 0.518978 8.4 0.7063 8.4H1.806C1.95142 8.40306 2.09258 8.44965 2.21124 8.53375C2.32991 8.61786 2.42064 8.73561 2.4717 8.8718V8.8809C2.53096 9.01334 2.5493 9.16047 2.52435 9.30341C2.49941 9.44634 2.43232 9.57856 2.3317 9.6831L1.5547 10.4601C1.42219 10.5927 1.34775 10.7725 1.34775 10.9599C1.34775 11.1473 1.42219 11.3271 1.5547 11.4597L2.5347 12.4397C2.66728 12.5722 2.84705 12.6467 3.0345 12.6467C3.22195 12.6467 3.40172 12.5722 3.5343 12.4397L4.3113 11.6627C4.41584 11.5621 4.54806 11.495 4.69099 11.47C4.83393 11.4451 4.98106 11.4634 5.1135 11.5227L5.1226 11.5262C5.26017 11.5765 5.37934 11.6672 5.46452 11.7863C5.5497 11.9055 5.59692 12.0476 5.6 12.194V13.2937C5.6 13.481 5.67441 13.6607 5.80687 13.7931C5.93933 13.9256 6.11898 14 6.3063 14H7.6937C7.78645 14 7.8783 13.9817 7.96399 13.9462C8.04968 13.9107 8.12754 13.8587 8.19313 13.7931C8.25872 13.7275 8.31074 13.6497 8.34624 13.564C8.38173 13.4783 8.4 13.3865 8.4 13.2937V12.194C8.40306 12.0486 8.44965 11.9074 8.53375 11.7888C8.61786 11.6701 8.73561 11.5794 8.8718 11.5283L8.8809 11.5248C9.01334 11.4655 9.16047 11.4472 9.30341 11.4721C9.44634 11.4971 9.57856 11.5642 9.6831 11.6648L10.4601 12.4418C10.5927 12.5743 10.7725 12.6488 10.9599 12.6488C11.1473 12.6488 11.3271 12.5743 11.4597 12.4418L12.4397 11.4618C12.5722 11.3292 12.6467 11.1494 12.6467 10.962C12.6467 10.7746 12.5722 10.5948 12.4397 10.4622L11.6627 9.6852C11.5621 9.58066 11.495 9.44844 11.47 9.3055C11.4451 9.16257 11.4634 9.01544 11.5227 8.883L11.5262 8.8739C11.5771 8.73699 11.668 8.61856 11.7871 8.53404C11.9062 8.44951 12.048 8.40281 12.194 8.4H13.2937C13.481 8.4 13.6607 8.32559 13.7931 8.19313C13.9256 8.06067 14 7.88102 14 7.6937V6.3063C14 6.21355 13.9817 6.1217 13.9462 6.03601C13.9107 5.95032 13.8587 5.87246 13.7931 5.80687C13.7275 5.74128 13.6497 5.68926 13.564 5.65376C13.4783 5.61827 13.3865 5.6 13.2937 5.6ZM7 9.1C6.58466 9.1 6.17865 8.97684 5.8333 8.74609C5.48796 8.51534 5.2188 8.18736 5.05985 7.80364C4.90091 7.41991 4.85932 6.99767 4.94035 6.59031C5.02138 6.18295 5.22139 5.80877 5.51508 5.51508C5.80877 5.22139 6.18295 5.02138 6.59031 4.94035C6.99767 4.85932 7.41991 4.90091 7.80364 5.05985C8.18736 5.2188 8.51534 5.48796 8.74609 5.8333C8.97684 6.17865 9.1 6.58466 9.1 7C9.1 7.55695 8.87875 8.0911 8.48492 8.48492C8.0911 8.87875 7.55695 9.1 7 9.1Z" fill="white"/>
<circle cx="7" cy="7" r="3.5" fill="#2C2E30"/>
</svg>
