<svg width="12" height="12" viewBox="0 0 12 12" fill="none" xmlns="http://www.w3.org/2000/svg">
<path fill-rule="evenodd" clip-rule="evenodd" d="M8.4 4.86299C7.7376 4.86299 7.2 5.39999 7.2 6.06299C7.2 6.72599 7.7376 7.26299 8.4 7.26299C9.0624 7.26299 9.6 6.72599 9.6 6.06299C9.6 5.39999 9.0624 4.86299 8.4 4.86299ZM3.6 4.86299C2.9376 4.86299 2.4 5.39999 2.4 6.06299C2.4 6.72599 2.9376 7.26299 3.6 7.26299C4.2624 7.26299 4.8 6.72599 4.8 6.06299C4.8 5.39999 4.2624 4.86299 3.6 4.86299ZM10.8 1.8C10.8 1.4688 10.5312 1.2 10.2 1.2H1.8C1.4688 1.2 1.2 1.4688 1.2 1.8V10.2C1.2 10.5318 1.4688 10.8 1.8 10.8H10.2C10.5312 10.8 10.8 10.5318 10.8 10.2V1.8ZM12 1.2V10.8C12 11.463 11.4624 12 10.8 12H1.2C0.5376 12 0 11.463 0 10.8V1.2C0 0.5376 0.5376 0 1.2 0H10.8C11.4624 0 12 0.5376 12 1.2ZM3.6 1.86299C2.9376 1.86299 2.4 2.39999 2.4 3.06299C2.4 3.72599 2.9376 4.26299 3.6 4.26299C4.2624 4.26299 4.8 3.72599 4.8 3.06299C4.8 2.39999 4.2624 1.86299 3.6 1.86299ZM3.6 7.86299C2.9376 7.86299 2.4 8.39999 2.4 9.06299C2.4 9.72599 2.9376 10.263 3.6 10.263C4.2624 10.263 4.8 9.72599 4.8 9.06299C4.8 8.39999 4.2624 7.86299 3.6 7.86299ZM8.4 1.86299C7.7376 1.86299 7.2 2.39999 7.2 3.06299C7.2 3.72599 7.7376 4.26299 8.4 4.26299C9.0624 4.26299 9.6 3.72599 9.6 3.06299C9.6 2.39999 9.0624 1.86299 8.4 1.86299ZM9.6 9.06299C9.6 9.72599 9.0624 10.263 8.4 10.263C7.7376 10.263 7.2 9.72599 7.2 9.06299C7.2 8.39999 7.7376 7.86299 8.4 7.86299C9.0624 7.86299 9.6 8.39999 9.6 9.06299Z" fill="white"/>
</svg>
