<svg width="18" height="20" viewBox="0 0 18 20" fill="none" xmlns="http://www.w3.org/2000/svg">
<path fill="var(--icon-color-fill)" d="M8.99939 11.6687C9.92079 11.6687 10.6677 10.9218 10.6677 10.0004C10.6677 9.07897 9.92079 8.33203 8.99939 8.33203C8.078 8.33203 7.33105 9.07897 7.33105 10.0004C7.33105 10.9218 8.078 11.6687 8.99939 11.6687Z"/>
<path fill="var(--icon-color-fill)" d="M16.6456 10.897L16.1781 10.6312C15.8481 10.4387 15.8115 10.127 15.8115 9.9987C15.8115 9.87037 15.8481 9.5587 16.1781 9.3662L16.6456 9.10036C17.1315 8.8162 17.4798 8.36703 17.6173 7.8262C17.764 7.28536 17.6906 6.71703 17.4156 6.2312L16.4715 4.59953C15.894 3.60037 14.6015 3.25203 13.6023 3.82953L13.1348 4.09536C12.8048 4.28786 12.5115 4.15953 12.4106 4.09536C12.3006 4.04036 12.044 3.84786 12.044 3.47203V2.9312C12.044 1.7762 11.0998 0.832031 9.94479 0.832031H8.05646C6.90146 0.832031 5.95729 1.7762 5.95729 2.9312V3.47203C5.95729 3.84786 5.70064 4.04036 5.5998 4.09536C5.4898 4.15953 5.19645 4.28786 4.86645 4.09536L4.39897 3.82953C3.3998 3.25203 2.11645 3.60037 1.53895 4.59953L0.594782 6.2312C0.0081158 7.23036 0.356474 8.52286 1.36481 9.10036L1.82314 9.3662C2.15314 9.5587 2.1898 9.87037 2.1898 9.9987C2.1898 10.127 2.15314 10.4387 1.82314 10.6312L1.36481 10.897C0.356474 11.4745 0.0081158 12.767 0.594782 13.7662L1.53895 15.3979C1.81395 15.8837 2.26313 16.232 2.81313 16.3787C3.35396 16.5254 3.91314 16.4429 4.39897 16.1679L4.86645 15.902C5.19645 15.7095 5.4898 15.8379 5.5998 15.902C5.70064 15.957 5.95729 16.1495 5.95729 16.5254V17.0662C5.95729 18.2212 6.90146 19.1654 8.05646 19.1654H9.94479C11.0998 19.1654 12.044 18.2212 12.044 17.0662V16.5254C12.044 16.1495 12.3006 15.957 12.4106 15.902C12.5115 15.8379 12.8048 15.7095 13.1348 15.902L13.6023 16.1679C14.0881 16.4429 14.6473 16.5254 15.1973 16.3787C15.7381 16.232 16.1873 15.8837 16.4715 15.3979L17.4156 13.7662C17.6906 13.2804 17.764 12.712 17.6173 12.1712C17.4798 11.6304 17.1315 11.1812 16.6456 10.897ZM5.95729 9.9987C5.95729 8.3212 7.32313 6.95537 9.00063 6.95537C10.6781 6.95537 12.044 8.3212 12.044 9.9987C12.044 11.6762 10.6781 13.042 9.00063 13.042C7.32313 13.042 5.95729 11.6762 5.95729 9.9987Z"/>
<path stroke="var(--icon-color-stroke)" d="M15.9262 11.0631L15.9262 11.0631L15.931 11.0658L16.3957 11.3301C16.7699 11.5498 17.0299 11.89 17.1327 12.2944L17.1326 12.2944L17.1347 12.3021C17.2465 12.7143 17.1913 13.1464 16.9815 13.5181C16.9812 13.5187 16.9808 13.5193 16.9805 13.5199L16.0399 15.1454C16.0397 15.1457 16.0395 15.146 16.0394 15.1463C15.8201 15.5206 15.4783 15.7842 15.0673 15.8959C14.6499 16.0069 14.2256 15.946 13.849 15.733C13.8489 15.7329 13.8487 15.7328 13.8486 15.7327L13.3841 15.4686C12.8489 15.1579 12.3622 15.3486 12.1638 15.4669C11.951 15.5817 11.544 15.9121 11.544 16.5254V17.0662C11.544 17.9451 10.8237 18.6654 9.94479 18.6654H8.05646C7.1776 18.6654 6.45729 17.9451 6.45729 17.0662V16.5254C6.45729 15.8974 6.03002 15.5694 5.84593 15.4668C5.66688 15.3639 5.16957 15.148 4.61718 15.4686L4.15267 15.7327C4.1525 15.7328 4.15234 15.7329 4.15217 15.733C3.77419 15.9468 3.35018 16.0063 2.944 15.8961L2.94196 15.8956C2.52089 15.7833 2.1825 15.5198 1.97408 15.1516L1.9741 15.1516L1.97172 15.1474L1.02755 13.5158L1.02756 13.5158L1.02595 13.513C0.581447 12.756 0.844235 11.7714 1.61331 11.3309L1.61567 11.3295L2.074 11.0637L2.07508 11.0631C2.62864 10.7402 2.6898 10.2054 2.6898 9.9987C2.6898 9.79203 2.62864 9.25722 2.07508 8.93431L2.074 8.93368L1.61567 8.66785L1.61567 8.66784L1.6133 8.66648C0.844235 8.22602 0.581447 7.24141 1.02595 6.48436L1.02755 6.48162L1.97172 4.84995L1.97184 4.84974C2.41225 4.08777 3.39056 3.82419 4.14877 4.26242L4.15181 4.26417L4.61714 4.52878C5.16958 4.84944 5.66695 4.63349 5.84597 4.53059C6.03008 4.42794 6.45729 4.09997 6.45729 3.47203V2.9312C6.45729 2.05234 7.1776 1.33203 8.05646 1.33203H9.94479C10.8237 1.33203 11.544 2.05234 11.544 2.9312V3.47203C11.544 4.08526 11.951 4.4157 12.1638 4.5305C12.3622 4.6488 12.8489 4.83945 13.3841 4.52879L13.8494 4.26417L13.8495 4.26418L13.8525 4.26242C14.6116 3.82367 15.5987 4.08867 16.0386 4.84974L16.0387 4.84995L16.9805 6.4775C16.9808 6.47811 16.9812 6.47872 16.9815 6.47933C17.1913 6.851 17.2465 7.28315 17.1347 7.69533L17.1347 7.69531L17.1327 7.703C17.0299 8.1074 16.7699 8.44759 16.3957 8.66732L15.931 8.93155L15.931 8.93152L15.9262 8.93431C15.3726 9.25722 15.3115 9.79203 15.3115 9.9987C15.3115 10.2054 15.3726 10.7402 15.9262 11.0631ZM9.00063 6.45537C7.04699 6.45537 5.45729 8.04505 5.45729 9.9987C5.45729 11.9523 7.04699 13.542 9.00063 13.542C10.9543 13.542 12.544 11.9523 12.544 9.9987C12.544 8.04505 10.9543 6.45537 9.00063 6.45537Z"/>
</svg>
