<svg width="58" height="24" viewBox="0 0 58 24" fill="none" xmlns="http://www.w3.org/2000/svg">
<g id="Google_Pay_(GPay)_Logo_(2018-2020) 1">
<g clip-path="url(#clip0_1998_6667)">
<path id="Vector" d="M27.4324 11.2511V18.0027H25.2905V1.32925H30.9712C31.6493 1.31508 32.3234 1.43534 32.9548 1.68309C33.5861 1.93083 34.1622 2.30116 34.6497 2.77269C35.142 3.2156 35.5339 3.75878 35.799 4.36572C36.064 4.97266 36.196 5.62931 36.1862 6.29152C36.2003 6.95727 36.0703 7.61821 35.8051 8.22901C35.5399 8.83982 35.1457 9.38606 34.6497 9.8303C33.6563 10.7775 32.4302 11.2507 30.9712 11.2498H27.4324V11.2511ZM27.4324 3.382V9.20236H31.0244C31.4182 9.21404 31.8101 9.14339 32.175 8.99495C32.5399 8.8465 32.8699 8.62353 33.1437 8.34029C33.4161 8.07546 33.6326 7.7587 33.7804 7.40874C33.9283 7.05879 34.0045 6.68273 34.0045 6.30283C34.0045 5.92292 33.9283 5.54687 33.7804 5.19691C33.6326 4.84695 33.4161 4.53019 33.1437 4.26537C32.8733 3.97616 32.5445 3.74772 32.1791 3.59519C31.8138 3.44267 31.4202 3.36955 31.0244 3.38067H27.4324V3.382Z" fill="white"/>
<path id="Vector_2" d="M41.1215 6.22656C42.7046 6.22656 43.9543 6.64962 44.8705 7.49573C45.7866 8.34185 46.2443 9.50193 46.2434 10.976V18.007H44.1946V16.4238H44.1015C43.2146 17.7276 42.035 18.3795 40.5627 18.3795C39.306 18.3795 38.2545 18.007 37.4084 17.262C37.0024 16.92 36.6777 16.4918 36.4582 16.0085C36.2386 15.5252 36.1297 14.999 36.1393 14.4682C36.1393 13.2877 36.5854 12.3489 37.4776 11.6518C38.3698 10.9547 39.561 10.6052 41.051 10.6035C42.3228 10.6035 43.3703 10.8363 44.1933 11.3019V10.8123C44.1957 10.4505 44.1176 10.0927 43.9646 9.76476C43.8116 9.43687 43.5875 9.14713 43.3086 8.91657C42.7422 8.40554 42.004 8.12671 41.2412 8.13564C40.0448 8.13564 39.098 8.64029 38.4009 9.6496L36.5144 8.46158C37.5521 6.97157 39.0878 6.22656 41.1215 6.22656ZM38.3503 14.5148C38.3489 14.7874 38.4126 15.0563 38.5362 15.2993C38.6598 15.5423 38.8396 15.7522 39.0607 15.9116C39.5345 16.2843 40.1224 16.4817 40.725 16.4704C41.6289 16.4689 42.4953 16.1091 43.1343 15.47C43.8439 14.8021 44.1986 14.0185 44.1986 13.1192C43.5308 12.5871 42.5995 12.321 41.4049 12.321C40.5348 12.321 39.8093 12.5307 39.2284 12.9502C38.6417 13.376 38.3503 13.8935 38.3503 14.5148Z" fill="white"/>
<path id="Vector_3" d="M58.0042 6.59375L50.8521 23.0304H48.641L51.2951 17.2793L46.5923 6.59375H48.9204L52.3195 14.7888H52.3661L55.672 6.59375H58.0042Z" fill="white"/>
<path id="Vector_4" d="M18.7768 9.79922C18.7776 9.14648 18.7224 8.49487 18.6118 7.85156H9.57861V11.5407H14.7524C14.6465 12.1299 14.4225 12.6915 14.0937 13.1918C13.7649 13.6921 13.3382 14.1206 12.8393 14.4515V16.8462H15.9271C17.7351 15.1792 18.7768 12.7141 18.7768 9.79922Z" fill="#4285F4"/>
<path id="Vector_5" d="M9.57876 19.1595C12.1637 19.1595 14.3401 18.3107 15.9273 16.8473L12.8395 14.4526C11.9801 15.0353 10.8732 15.3679 9.57876 15.3679C7.08033 15.3679 4.95973 13.6837 4.20142 11.4141H1.02051V13.8819C1.81775 15.4683 3.04024 16.802 4.55149 17.7339C6.06274 18.6658 7.80327 19.1594 9.57876 19.1595Z" fill="#34A853"/>
<path id="Vector_6" d="M4.20135 11.4156C3.80046 10.2263 3.80046 8.93837 4.20135 7.74908V5.28125H1.02044C0.349773 6.61581 0.000488281 8.08872 0.000488281 9.58233C0.000488281 11.0759 0.349773 12.5488 1.02044 13.8834L4.20135 11.4156Z" fill="#FBBC04"/>
<path id="Vector_7" d="M9.57876 3.79218C10.9448 3.76986 12.2647 4.28598 13.2532 5.22897L15.9871 2.49507C14.2536 0.866799 11.957 -0.0271484 9.57876 0.000628449C7.80327 0.000709369 6.06274 0.494268 4.55149 1.4262C3.04024 2.35813 1.81775 3.69176 1.02051 5.2782L4.20142 7.74603C4.95972 5.47642 7.08033 3.79218 9.57876 3.79218Z" fill="#EA4335"/>
</g>
</g>
<defs>
<clipPath id="clip0_1998_6667">
<path d="M0 4C0 1.79086 1.79086 0 4 0H54C56.2091 0 58 1.79086 58 4V19.0327C58 21.2418 56.2091 23.0327 54 23.0327H4C1.79086 23.0327 0 21.2418 0 19.0327V4Z" fill="white"/>
</clipPath>
</defs>
</svg>
