<svg width="19" height="19" viewBox="0 0 19 19" fill="none" xmlns="http://www.w3.org/2000/svg">
<path d="M4.64538 7.8418C4.58983 7.78804 4.54564 7.72358 4.51545 7.65227C4.48527 7.58095 4.46971 7.50425 4.46971 7.42676C4.46971 7.34926 4.48527 7.27256 4.51545 7.20125C4.54564 7.12993 4.58983 7.06547 4.64538 7.01172C4.69803 6.95617 4.76135 6.91195 4.83152 6.88173C4.90168 6.85152 4.97722 6.83594 5.05355 6.83594C5.12989 6.83594 5.20543 6.85152 5.27559 6.88173C5.34576 6.91195 5.40908 6.95617 5.46173 7.01172L8.55217 10.1074V0.585938C8.55217 0.430537 8.6136 0.281502 8.72295 0.171617C8.83231 0.0617324 8.98062 0 9.13527 0C9.28992 0 9.43823 0.0617324 9.54759 0.171617C9.65694 0.281502 9.71837 0.430537 9.71837 0.585938V10.1074L12.8088 7.01172C12.8615 6.95617 12.9248 6.91195 12.9949 6.88173C13.0651 6.85152 13.1407 6.83594 13.217 6.83594C13.2933 6.83594 13.3689 6.85152 13.439 6.88173C13.5092 6.91195 13.5725 6.95617 13.6252 7.01172C13.6807 7.06547 13.7249 7.12993 13.7551 7.20125C13.7853 7.27256 13.8008 7.34926 13.8008 7.42676C13.8008 7.50425 13.7853 7.58095 13.7551 7.65227C13.7249 7.72358 13.6807 7.78804 13.6252 7.8418L9.54344 11.9336C9.4908 11.9891 9.42747 12.0334 9.35731 12.0636C9.28715 12.0938 9.21161 12.1094 9.13527 12.1094C9.05894 12.1094 8.9834 12.0938 8.91323 12.0636C8.84307 12.0334 8.77974 11.9891 8.7271 11.9336L4.64538 7.8418ZM17.6874 10.9375C17.5328 10.9375 17.3845 10.9992 17.2751 11.1091C17.1658 11.219 17.1043 11.368 17.1043 11.5234V16.9922C17.1043 17.044 17.0839 17.0937 17.0474 17.1303C17.011 17.1669 16.9615 17.1875 16.91 17.1875H1.36057C1.30902 17.1875 1.25958 17.1669 1.22313 17.1303C1.18668 17.0937 1.1662 17.044 1.1662 16.9922V11.5234C1.1662 11.368 1.10477 11.219 0.995418 11.1091C0.886065 10.9992 0.737751 10.9375 0.583102 10.9375C0.428454 10.9375 0.28014 10.9992 0.170787 11.1091C0.0614337 11.219 0 11.368 0 11.5234V16.9922C0 17.3548 0.143346 17.7025 0.398502 17.9589C0.653659 18.2153 0.999726 18.3594 1.36057 18.3594H16.91C17.2708 18.3594 17.6169 18.2153 17.872 17.9589C18.1272 17.7025 18.2705 17.3548 18.2705 16.9922V11.5234C18.2705 11.368 18.2091 11.219 18.0998 11.1091C17.9904 10.9992 17.8421 10.9375 17.6874 10.9375Z" fill="white" fill-opacity="0.5"/>
</svg>
