<svg xmlns="http://www.w3.org/2000/svg" width="12" height="12" viewBox="0 0 12 12" fill="none">
    <path d="M7.69374 4.95086C7.74083 4.90033 7.7976 4.8598 7.86069 4.83169C7.92377 4.80358 7.99187 4.78847 8.06093 4.78725C8.12998 4.78603 8.19857 4.79874 8.26261 4.8246C8.32665 4.85047 8.38482 4.88897 8.43365 4.9378C8.48249 4.98664 8.52099 5.04481 8.54685 5.10885C8.57272 5.17288 8.58542 5.24148 8.58421 5.31053C8.58299 5.37958 8.56787 5.44768 8.53976 5.51077C8.51165 5.57385 8.47113 5.63063 8.4206 5.67771L6.36346 7.73486C6.26703 7.83117 6.13631 7.88526 6.00003 7.88526C5.86374 7.88526 5.73303 7.83117 5.6366 7.73486L3.57946 5.67771C3.52893 5.63063 3.4884 5.57385 3.46029 5.51077C3.43218 5.44768 3.41707 5.37958 3.41585 5.31053C3.41463 5.24148 3.42734 5.17288 3.4532 5.10885C3.47907 5.04481 3.51757 4.98664 3.5664 4.9378C3.61524 4.88897 3.67341 4.85047 3.73745 4.8246C3.80149 4.79874 3.87008 4.78603 3.93913 4.78725C4.00818 4.78847 4.07628 4.80358 4.13937 4.83169C4.20245 4.8598 4.25923 4.90033 4.30631 4.95086L5.48574 6.13029V0.514286C5.48574 0.377889 5.53993 0.247078 5.63637 0.150631C5.73282 0.0541834 5.86363 0 6.00003 0C6.13643 0 6.26724 0.0541834 6.36368 0.150631C6.46013 0.247078 6.51431 0.377889 6.51431 0.514286V6.13029L7.69374 4.95086Z" fill="white"/>
    <path d="M12 5.99866C12 5.86226 11.9458 5.73145 11.8494 5.63501C11.7529 5.53856 11.6221 5.48438 11.4857 5.48438C11.3493 5.48438 11.2185 5.53856 11.1221 5.63501C11.0256 5.73145 10.9714 5.86226 10.9714 5.99866C10.9714 6.65152 10.8428 7.29798 10.593 7.90114C10.3432 8.50431 9.97697 9.05235 9.51533 9.51399C9.05369 9.97563 8.50564 10.3418 7.90248 10.5917C7.29932 10.8415 6.65286 10.9701 6 10.9701C5.34714 10.9701 4.70068 10.8415 4.09752 10.5917C3.49436 10.3418 2.94631 9.97563 2.48467 9.51399C2.02303 9.05235 1.65684 8.50431 1.407 7.90114C1.15716 7.29798 1.02857 6.65152 1.02857 5.99866C1.02857 5.86226 0.974388 5.73145 0.877941 5.63501C0.781493 5.53856 0.650683 5.48438 0.514286 5.48438C0.377889 5.48438 0.247078 5.53856 0.150631 5.63501C0.0541835 5.73145 0 5.86226 0 5.99866C0 7.58996 0.632141 9.11608 1.75736 10.2413C2.88258 11.3665 4.4087 11.9987 6 11.9987C7.5913 11.9987 9.11742 11.3665 10.2426 10.2413C11.3679 9.11608 12 7.58996 12 5.99866Z" fill="white"/>
</svg>