<svg xmlns="http://www.w3.org/2000/svg" width="19" height="19" viewBox="0 0 19 19" fill="none">
    <path d="M10.3137 1.58691C10.8914 1.58469 11.4691 1.5905 12.0467 1.60433L12.2003 1.60987C12.3776 1.6162 12.5526 1.62412 12.7639 1.63362C13.6063 1.6732 14.181 1.8062 14.6853 2.00175C15.2078 2.20283 15.648 2.47516 16.0881 2.91533C16.4906 3.31085 16.8021 3.78929 17.0009 4.31737C17.1965 4.82166 17.3295 5.3972 17.3691 6.23954C17.3786 6.45012 17.3865 6.62587 17.3928 6.8032L17.3976 6.95679C17.4116 7.53406 17.4177 8.11151 17.4158 8.68895L17.4166 9.27954V10.3166C17.4185 10.8943 17.4124 11.472 17.3983 12.0496L17.3936 12.2032C17.3873 12.3805 17.3793 12.5555 17.3698 12.7668C17.3303 13.6092 17.1957 14.1839 17.0009 14.6882C16.8027 15.2168 16.4912 15.6957 16.0881 16.091C15.6923 16.4935 15.2136 16.8049 14.6853 17.0038C14.181 17.1994 13.6063 17.3324 12.7639 17.372C12.5526 17.3815 12.3776 17.3894 12.2003 17.3957L12.0467 17.4005C11.4691 17.4145 10.8914 17.4206 10.3137 17.4187L9.72314 17.4195H8.68685C8.10914 17.4214 7.53143 17.4153 6.95389 17.4012L6.8003 17.3965C6.61237 17.3897 6.42448 17.3818 6.23664 17.3727C5.3943 17.3332 4.81955 17.1986 4.31447 17.0038C3.78618 16.8054 3.30766 16.4939 2.91243 16.091C2.50951 15.6954 2.19773 15.2167 1.99885 14.6882C1.8033 14.1839 1.6703 13.6092 1.63072 12.7668C1.6219 12.579 1.61399 12.3911 1.60697 12.2032L1.60301 12.0496C1.58842 11.472 1.58182 10.8943 1.58322 10.3166V8.68895C1.58101 8.11151 1.58682 7.53407 1.60064 6.95679L1.60618 6.8032C1.61251 6.62587 1.62043 6.45012 1.62993 6.23954C1.66951 5.39641 1.80251 4.82245 1.99805 4.31737C2.19706 3.78903 2.50944 3.31072 2.91322 2.91612C3.30818 2.51297 3.7864 2.20091 4.31447 2.00175C4.81955 1.8062 5.39351 1.6732 6.23664 1.63362L6.8003 1.60987L6.95389 1.60591C7.53116 1.59132 8.1086 1.58473 8.68605 1.58612L10.3137 1.58691ZM9.49989 5.54524C8.97541 5.53783 8.4547 5.63472 7.96799 5.8303C7.48129 6.02588 7.03832 6.31623 6.66481 6.6845C6.2913 7.05276 5.9947 7.49159 5.79226 7.97547C5.58983 8.45936 5.48558 8.97866 5.48558 9.50318C5.48558 10.0277 5.58983 10.547 5.79226 11.0309C5.9947 11.5148 6.2913 11.9536 6.66481 12.3219C7.03832 12.6901 7.48129 12.9805 7.96799 13.1761C8.4547 13.3716 8.97541 13.4685 9.49989 13.4611C10.5497 13.4611 11.5565 13.0441 12.2989 12.3018C13.0412 11.5594 13.4582 10.5526 13.4582 9.50279C13.4582 8.45297 13.0412 7.44615 12.2989 6.70382C11.5565 5.96149 10.5497 5.54524 9.49989 5.54524ZM9.49989 7.12858C9.81537 7.12277 10.1289 7.17988 10.422 7.29658C10.7152 7.41328 10.9822 7.58722 11.2073 7.80826C11.4325 8.0293 11.6114 8.29299 11.7335 8.58393C11.8557 8.87488 11.9186 9.18724 11.9186 9.50278C11.9187 9.81832 11.8559 10.1307 11.7338 10.4217C11.6118 10.7127 11.433 10.9764 11.2079 11.1975C10.9828 11.4186 10.7159 11.5927 10.4228 11.7095C10.1296 11.8263 9.81617 11.8835 9.50068 11.8778C8.87079 11.8778 8.2667 11.6276 7.8213 11.1822C7.3759 10.7368 7.12568 10.1327 7.12568 9.50279C7.12568 8.8729 7.3759 8.26881 7.8213 7.82341C8.2667 7.37801 8.87079 7.12779 9.50068 7.12779L9.49989 7.12858ZM13.6561 4.35774C13.4007 4.36797 13.1592 4.47661 12.9821 4.66093C12.805 4.84525 12.7061 5.09093 12.7061 5.34654C12.7061 5.60214 12.805 5.84783 12.9821 6.03214C13.1592 6.21646 13.4007 6.32511 13.6561 6.33533C13.9186 6.33533 14.1703 6.23107 14.3559 6.04549C14.5415 5.8599 14.6457 5.6082 14.6457 5.34575C14.6457 5.08329 14.5415 4.83159 14.3559 4.646C14.1703 4.46042 13.9186 4.35616 13.6561 4.35616V4.35774Z" fill="white" fill-opacity="0.4"/>
</svg>