<svg xmlns="http://www.w3.org/2000/svg" width="24" height="24" viewBox="0 0 24 24" fill="none">
    <path d="M19.8792 17.8715C19.7833 17.6799 19.6875 17.4882 19.6875 17.2965C19.6875 16.9132 19.4958 16.6257 19.2083 16.3382C19.1125 16.2424 18.9208 16.1465 18.825 16.1465C19.4 14.4215 18.5375 12.6965 17.5792 11.4507C16.8125 10.3007 15.6625 9.43819 15.7583 7.90486C15.7583 6.08402 15.95 2.72986 12.5958 3.01736C9.14583 3.20902 10.1042 6.75486 10.0083 8.00069C10.0083 9.05486 9.52917 10.109 8.7625 10.9715C8.57083 11.1632 8.37917 11.4507 8.28333 11.6424C7.325 12.7924 6.84583 14.3257 6.84583 15.7632C6.65417 15.9549 6.4625 16.1465 6.36667 16.3382C6.27083 16.434 6.175 16.5299 6.175 16.6257C6.07917 16.7215 5.8875 16.8174 5.69583 16.9132C5.3125 17.009 5.025 17.2007 4.83333 17.584C4.7375 17.8715 4.64167 18.2549 4.7375 18.6382C4.83333 18.8299 4.83333 19.0215 4.7375 19.309C4.54583 19.6924 4.54583 20.1715 4.7375 20.6507C5.025 21.034 5.50417 21.1299 6.175 21.2257C6.65417 21.2257 7.22917 21.4174 7.70833 21.609C8.1875 21.8965 8.7625 22.0882 9.3375 22.0882C9.625 22.0882 10.0083 21.9924 10.2958 21.8965C10.5833 21.7049 10.775 21.5132 10.8708 21.2257C11.2542 21.2257 11.8292 21.034 12.5 21.034C13.075 21.034 13.65 21.2257 14.4167 21.1299C14.4167 21.2257 14.4167 21.3215 14.5125 21.4174C14.7042 21.8965 15.1833 22.2799 15.7583 22.3757H15.95C16.7167 22.2799 17.4833 21.8965 17.9625 21.3215C18.3458 20.9382 18.825 20.6507 19.3042 20.459C19.8792 20.1715 20.2625 19.9799 20.3583 19.5007C20.4542 18.8299 20.2625 18.4465 19.8792 17.8715ZM13.2667 5.60486C13.8417 5.70069 14.3208 6.17986 14.225 6.75486C14.225 7.04236 14.1292 7.32986 13.9375 7.61736H13.8417C13.65 7.52152 13.5542 7.52152 13.4583 7.42569C13.5542 7.32986 13.5542 7.13819 13.65 6.94652C13.65 6.56319 13.4583 6.27569 13.2667 6.27569C12.9792 6.27569 12.7875 6.56319 12.7875 6.94652V7.04236C12.6917 6.94652 12.5 6.94652 12.4042 6.85069V6.75486C12.3083 6.27569 12.6917 5.70069 13.2667 5.60486ZM12.9792 7.52152C13.075 7.61736 13.2667 7.71319 13.3625 7.71319C13.4583 7.71319 13.65 7.80902 13.7458 7.90486C13.9375 8.00069 14.1292 8.09652 14.1292 8.38402C14.1292 8.67152 13.8417 8.95902 13.2667 9.15069C13.075 9.24652 12.9792 9.24652 12.8833 9.34236C12.5958 9.53402 12.3083 9.62986 11.925 9.62986C11.6375 9.62986 11.35 9.43819 11.1583 9.24652C11.0625 9.15069 10.9667 9.05486 10.775 8.95902C10.6792 8.86319 10.4875 8.67152 10.3917 8.38402C10.3917 8.28819 10.4875 8.19236 10.5833 8.09652C10.8708 7.90486 10.9667 7.80902 11.0625 7.71319L11.1583 7.61736C11.35 7.32986 11.7333 7.13819 12.1167 7.13819C12.4042 7.23402 12.6917 7.32986 12.9792 7.52152ZM10.9667 5.79652C11.35 5.79652 11.6375 6.17986 11.7333 6.85069V7.04236C11.6375 7.04236 11.4458 7.13819 11.35 7.23402V7.04236C11.35 6.75486 11.1583 6.46736 10.9667 6.56319C10.775 6.56319 10.6792 6.85069 10.6792 7.13819C10.6792 7.32986 10.775 7.42569 10.8708 7.52152C10.8708 7.52152 10.775 7.61736 10.6792 7.61736C10.4875 7.42569 10.2958 7.13819 10.2958 6.85069C10.2958 6.27569 10.5833 5.79652 10.9667 5.79652ZM10.0083 21.2257C9.3375 21.5132 8.475 21.4174 7.9 21.034C7.325 20.7465 6.84583 20.6507 6.175 20.6507C5.69583 20.5549 5.21667 20.5549 5.12083 20.3632C5.025 20.1715 5.025 19.884 5.21667 19.4049C5.3125 19.1174 5.3125 18.8299 5.21667 18.5424C5.12083 18.2549 5.12083 18.0632 5.21667 17.7757C5.3125 17.4882 5.50417 17.3924 5.79167 17.2965C6.07917 17.2007 6.27083 17.1049 6.4625 16.9132C6.55833 16.8174 6.65417 16.7215 6.75 16.5299C7.0375 16.1465 7.22917 15.9549 7.51667 15.9549C8.09167 16.0507 8.57083 16.9132 8.95417 17.7757C9.14583 18.0632 9.3375 18.4465 9.625 18.734C10.0083 19.2132 10.4875 19.884 10.4875 20.2674C10.4875 20.7465 10.2958 21.034 10.0083 21.2257ZM14.7042 19.1174C14.7042 19.2132 14.7042 19.2132 14.6083 19.309C13.4583 20.1715 11.925 20.2674 10.6792 19.5965L10.1042 18.734C10.9667 18.6382 10.775 17.4882 8.95417 16.3382C7.0375 15.0924 8.37917 12.7924 9.05 11.7382C9.14583 11.6424 9.14583 11.7382 8.7625 12.5049C8.475 13.0799 7.9 14.5174 8.66667 15.5715C8.66667 14.8049 8.85833 14.0382 9.14583 13.2715C9.81667 12.0257 10.2958 10.5882 10.5833 9.15069C10.6792 9.24652 10.6792 9.24652 10.775 9.24652C10.8708 9.34236 10.9667 9.43819 11.0625 9.43819C11.2542 9.72569 11.6375 9.82152 11.925 9.82152H12.0208C12.4042 9.82152 12.7875 9.72569 13.075 9.43819C13.1708 9.34236 13.2667 9.24652 13.4583 9.24652C13.7458 9.15069 14.0333 8.95902 14.3208 8.67152C14.7042 9.91736 15.0875 11.0674 15.6625 12.1215C16.0458 12.8882 16.3333 13.6549 16.525 14.5174C16.8125 14.5174 17.1958 14.6132 17.4833 14.8049C18.25 15.1882 18.5375 15.4757 18.4417 15.9549H18.25C18.25 15.6674 18.0583 15.3799 17.3875 15.0924C16.7167 14.8049 16.1417 14.8049 15.95 15.4757C15.8542 15.4757 15.7583 15.5715 15.6625 15.5715C14.8958 15.9549 14.8958 17.009 14.8 18.0632C14.8958 18.4465 14.8 18.734 14.7042 19.1174ZM19.1125 19.6924C18.5375 19.884 18.0583 20.2674 17.675 20.7465C17.2917 21.3215 16.6208 21.7049 15.8542 21.609C15.4708 21.609 15.0875 21.3215 14.9917 20.9382C14.8958 20.3632 14.8958 19.7882 15.1833 19.2132C15.2792 18.8299 15.375 18.5424 15.4708 18.159C15.5667 17.009 15.5667 16.3382 16.0458 16.0507C16.0458 16.5299 16.3333 16.8174 16.7167 17.009C17.1958 17.009 17.675 16.9132 18.0583 16.5299H18.25C18.5375 16.5299 18.7292 16.5299 18.9208 16.7215C19.1125 16.9132 19.2083 17.2007 19.2083 17.3924C19.2083 17.6799 19.4 17.9674 19.4958 18.2549C19.975 18.734 19.975 19.0215 19.975 19.1174C19.8792 19.309 19.4958 19.5007 19.1125 19.6924ZM10.4875 8.19236C10.3917 8.19236 10.3917 8.19236 10.3917 8.28819C10.3917 8.28819 10.3917 8.38402 10.4875 8.38402C10.5833 8.38402 10.5833 8.47986 10.5833 8.47986C10.8708 8.86319 11.35 9.05486 11.925 9.15069C12.4042 9.05486 12.8833 8.95902 13.3625 8.57569L13.9375 8.28819C14.0333 8.28819 14.0333 8.19236 14.0333 8.19236C14.0333 8.09652 14.0333 8.09652 13.9375 8.09652C13.7458 8.19236 13.4583 8.28819 13.2667 8.38402C12.8833 8.67152 12.4042 8.86319 11.925 8.86319C11.4458 8.86319 11.0625 8.57569 10.775 8.28819C10.6792 8.28819 10.5833 8.19236 10.4875 8.19236Z" fill="white"/>
</svg>