<svg width="73" height="15" viewBox="0 0 73 15" fill="none" xmlns="http://www.w3.org/2000/svg">
    <path d="M41.7337 0.687094C41.6114 0.325754 41.4511 0.0191628 41.106 0.00547916H41.0842H40.7962H40.2419C40.2174 0.0027396 40.1902 0 40.163 0H39.8858C39.8587 0 39.8315 0.0027396 39.8071 0.00547916C39.519 0.0492769 39.375 0.339444 39.2663 0.678882L35 12.6879C35 12.8467 35.1277 12.9754 35.2853 12.9754H36.1766C36.5299 12.9754 36.7119 12.6825 36.8179 12.3293L37.6685 9.82733C37.7283 9.65484 37.8886 9.53989 38.0707 9.53989H42.8152C42.9945 9.53989 43.1549 9.65484 43.2147 9.82458L44.1006 12.3539C44.2092 12.7071 44.3995 13 44.7691 13H45.7011C45.8668 13 46 12.8714 46 12.7126L41.7337 0.687094ZM38.2527 8.1192L40.4049 1.80122L42.6195 8.1192H38.2527Z" fill="white" fill-opacity="0.4"/>
    <path d="M53.8612 0.0385292C53.7495 -0.00525846 53.1031 0.000219395 53.1031 0.000219395C52.6695 0.011161 52.3928 0.000219466 52.1986 0.276633C52.1694 0.317682 52.1481 0.361477 52.1269 0.405264L49.5387 6.16621L46.8733 0.407996C46.852 0.364209 46.8307 0.320421 46.8015 0.279372C46.6073 0.0029512 46.3307 0.0111681 45.8971 0.00295128C45.8971 0.00295128 45.2507 -0.00251959 45.139 0.0412681C44.873 0.14527 45.0485 0.481891 45.1735 0.758305L48.4427 7.4689C48.5917 7.77541 48.6688 8.11206 48.6688 8.45414V12.5046C48.6688 12.7783 48.8843 13 49.1503 13H49.8339C50.0999 13 50.3154 12.7783 50.3154 12.5046V8.47334C50.3154 8.13119 50.3925 7.79461 50.5415 7.4881L53.8239 0.755573C53.9516 0.479152 54.1272 0.142531 53.8612 0.0385292Z" fill="white" fill-opacity="0.4"/>
    <path d="M67 6.49998L59.3266 0.0331982C59.2694 -0.0139091 59.1862 -0.011292 59.1341 0.0436632L58 1.23182L64.2662 6.49998L58 11.7681L59.1341 12.9563C59.1862 13.0113 59.2694 13.0139 59.3266 12.9668L67 6.49998Z" fill="white" fill-opacity="0.4"/>
    <path d="M73 6.50003L65.3265 0.0331967C65.2693 -0.0139093 65.1861 -0.0112921 65.1341 0.0436666L64 1.23182L70.2657 6.50003L64 11.7682L65.1341 12.9563C65.1861 13.0113 65.2693 13.0139 65.3265 12.9668L73 6.50003Z" fill="white" fill-opacity="0.4"/>
    <path d="M9.56576 0H8.42813C8.18964 0 8 0.172677 8 0.383727V12.5943C8 12.8164 8.20187 13 8.45259 13H9.54741C9.79511 13 10 12.8191 10 12.5943V0.38647C9.9969 0.172676 9.80424 0 9.56576 0Z" fill="white" fill-opacity="0.4"/>
    <path d="M5.64124 11.5215H1.53155V0.386169C1.53155 0.171015 1.37567 0 1.18516 0H0.346393C0.153405 0 0 0.173775 0 0.386169V11.5243V12.5421C0 12.7959 0.183091 13 0.410725 13H1.53402H5.64371C5.84168 13 6 12.8235 6 12.6028V11.9187C5.99756 11.7008 5.83673 11.5215 5.64124 11.5215Z" fill="white" fill-opacity="0.4"/>
    <path d="M33.4331 0.65812C32.8611 0.272612 32.0708 0 30.5592 0H28.1744H27.6328C27.2846 0 27 0.280872 27 0.630583V12.3501C27 12.7081 27.2901 13 27.6521 13H28.155C28.5143 13 28.8072 12.7109 28.8072 12.3501V7.94707C29.3488 7.94707 31.2224 7.94707 31.4435 7.94707C31.7005 7.94707 35 7.43213 35 3.85236C34.9972 2.29379 34.1958 1.17581 33.4331 0.65812ZM30.8438 6.59771C30.6725 6.59771 29.0062 6.59771 29.0062 6.59771H28.8044V1.34929H30.258C31.2556 1.34929 31.7779 1.52827 32.1564 1.78437C32.6622 2.12582 33.19 2.8638 33.19 3.89366C33.1927 6.25906 31.0152 6.59771 30.8438 6.59771Z" fill="white" fill-opacity="0.4"/>
    <path d="M25.6451 13.4147C25.5744 13.3628 25.4956 13.3245 25.4113 13.2917C24.7427 13.0348 23.7668 12.3542 23.2231 12.0017C22.8019 11.7283 22.8671 11.5124 22.9242 11.4222C22.9351 11.4085 22.9486 11.3921 22.9595 11.3784C22.9622 11.3757 22.9622 11.3757 22.9622 11.3757C23.8864 10.2359 24.4219 8.61239 24.4219 6.56248C24.4219 2.93822 22.8807 0 18.6974 0C14.8484 0 13 2.93822 13 6.56248C13 10.1868 14.2423 13.289 18.6974 13.289C19.6025 13.289 20.4343 13.1141 21.1655 12.7751H21.1682C21.3829 12.6822 21.5922 12.6849 21.8804 12.8954C23.9462 14.4342 24.971 15 25.7049 15C26.0583 15 25.9957 13.9067 25.9957 13.9067C25.9957 13.9067 25.9441 13.6306 25.6451 13.4147ZM14.8267 6.58983C14.8267 6.58166 14.8267 6.57341 14.8267 6.56248C14.8321 4.10258 15.7237 1.49234 18.7028 1.49234C22.0788 1.49234 22.5952 4.10258 22.598 6.56248C22.598 6.57066 22.598 6.57891 22.598 6.58983C22.598 9.51711 21.6548 11.742 18.7028 11.742C15.3132 11.742 14.8267 9.05795 14.8267 6.58983Z" fill="white" fill-opacity="0.4"/>
</svg>
