<svg width="18" height="19" viewBox="0 0 18 19" fill="none" xmlns="http://www.w3.org/2000/svg">
<path d="M2.82857 7H15.1714C16.1771 7 17 7.72 17 8.6V15.6C17 16.92 15.7657 18 14.2571 18H3.74286C2.23429 18 1 16.92 1 15.6V8.6C1 7.72 1.82286 7 2.82857 7Z" stroke="var(--icon-color-stroke)" stroke-miterlimit="10"/>
<path d="M4 7V5.57143C4 3.04571 6.2375 1 9 1C11.7625 1 14 3.04571 14 5.57143V7" stroke="var(--icon-color-stroke)" stroke-miterlimit="10" stroke-linecap="round"/>
<path d="M8.99668 12.0052C9.3061 12.0052 9.60285 11.8823 9.82164 11.6635C10.0404 11.4447 10.1634 11.148 10.1634 10.8385C10.1634 10.5291 10.0404 10.2324 9.82164 10.0136C9.60285 9.79479 9.3061 9.67188 8.99668 9.67188C8.68726 9.67188 8.39052 9.79479 8.17173 10.0136C7.95293 10.2324 7.83002 10.5291 7.83002 10.8385C7.83002 11.148 7.95293 11.4447 8.17173 11.6635C8.39052 11.8823 8.68726 12.0052 8.99668 12.0052Z" stroke="var(--icon-color-stroke)" stroke-miterlimit="10"/>
<path d="M9 15.5039V12.0039" stroke="var(--icon-color-stroke)" stroke-miterlimit="10" stroke-linecap="round"/>
</svg>
