<svg xmlns="http://www.w3.org/2000/svg" width="24" height="24" viewBox="0 0 24 24" fill="none">
    <path d="M19.4903 15.8466C19.0533 16.8141 18.8443 17.2467 18.283 18.1017C17.4989 19.2958 16.3918 20.7859 15.0231 20.7961C13.8056 20.8063 13.4914 20.0017 11.8391 20.0149C10.1868 20.0229 9.84266 20.8107 8.62373 20.7983C7.255 20.7859 6.20708 19.4434 5.42223 18.2515C3.22773 14.9083 2.99608 10.9899 4.35239 8.90501C5.31189 7.42666 6.83043 6.55851 8.25616 6.55851C9.7082 6.55851 10.6209 7.35651 11.8216 7.35651C12.9864 7.35651 13.696 6.55632 15.3753 6.55632C16.6454 6.55632 17.9885 7.24835 18.948 8.44243C15.8087 10.1627 16.3187 14.6467 19.4903 15.8466ZM14.1008 5.22193C14.7118 4.43782 15.1751 3.33143 15.007 2.20312C14.0102 2.27109 12.8447 2.90759 12.1636 3.73189C11.5468 4.48239 11.0353 5.59755 11.2348 6.67616C12.3222 6.71124 13.4475 6.06305 14.1008 5.22193Z" fill="white"/>
</svg>