<svg width="59" height="18" viewBox="0 0 59 18" fill="none" xmlns="http://www.w3.org/2000/svg">
    <path fill-rule="evenodd" clip-rule="evenodd" d="M0.0380426 0.0412742H0V0.0849783H0.0380426V8H1.25503V1.74567H1.21478V1.70197H1.25503V1.61699H1.29307V1.78695H1.33333V1.87193H1.37136V2.0006H1.41162V2.12685H1.44966V2.17056H1.48993V2.34051H1.52795V2.38179H1.56823V2.51046H1.60627V2.63914H1.64653V2.72412H1.68457V2.85038H1.72482V2.89407H1.76286V3.02032H1.80311V3.14901H1.84115V3.23398H1.88143V3.36266H1.91944V3.44764H1.95973V3.57389H1.99998V3.61759H2.03802V3.74385H2.0783V3.87253H2.11632V3.9575H2.15659V4.08618H2.19461V4.12745H2.23489V4.29741H2.27293V4.38239H2.31318V4.46736H2.35123V4.59604H2.39148V4.68102H2.42952V4.8097H2.4698V4.89467H2.50781V5.02092H2.54809V5.1059H2.58834V5.19088H2.62639V5.31956H2.66667V5.40453H2.70468V5.53322H2.74496V5.65947H2.78298V5.70317H2.82325V5.82942H2.86129V5.91439H2.90155V6.04308H2.93959V6.12806H2.97984V6.25674H3.01789V6.38298H3.05816V6.42668H3.09618V6.55294H3.13646V6.63792H3.17447V6.7666H3.21475V6.89525H3.25279V6.9803H3.29304V7.10653H3.33333V7.15022H3.37134V7.23518H4.62639V7.19149H4.66664V7.15022H4.70468V6.9803H4.74493V6.93652H4.78298V6.81029H4.82323V6.72291H4.86127V6.59664H4.90155V6.46796H4.93957V6.42668H4.97984V6.25674H5.01789V6.21303H5.05814V6.08678H5.09618V5.9581H5.13644V5.87312H5.17448V5.74445H5.21473V5.65947H5.25277V5.53322H5.29305V5.44824H5.33106V5.36326H5.37134V5.23458H5.41159V5.14961H5.44964V5.02092H5.48992V4.93595H5.52793V4.8097H5.56821V4.68102H5.60623V4.63975H5.6465V4.46736H5.68454V4.42608H5.7248V4.29741H5.76284V4.17116H5.80309V4.08618H5.84114V3.9575H5.88141V3.91622H5.91943V3.74385H5.95971V3.65887H5.99996V3.57389H6.038V3.44764H6.07828V3.36266H6.11629V3.23398H6.15658V3.14901H6.19459V3.02032H6.23487V2.89407H6.27291V2.85038H6.31314V2.72412H6.35122V2.63914H6.39148V2.51046H6.42947V2.38179H6.46981V2.29681H6.5078V2.17056H6.54806V2.12685H6.58605V1.9569H6.62639V1.87193H6.66665V1.78695H6.70464V1.61699H6.7449V1.6607H6.78298V1.78695H6.7449V7.95873H6.78298V8H8V0H6.11629V0.0849783H6.07828V0.213661H6.038V0.298639H5.99996V0.383609H5.95971V0.509861H5.91943V0.59484H5.88141V0.723522H5.84114V0.8085H5.80309V0.89347H5.76284V1.02215H5.7248V1.10713H5.68454V1.23338H5.6465V1.36206H5.60623V1.40334H5.56821V1.57329H5.52793V1.61699H5.48992V1.74567H5.44964V1.83064H5.41159V1.9569H5.37134V2.08558H5.33106V2.17056H5.29305V2.29681H5.25277V2.34051H5.21473V2.46919H5.17448V2.59544H5.13644V2.68042H5.09618V2.8091H5.05814V2.85038H5.01789V2.97905H4.97984V3.10773H4.93957V3.19271H4.90155V3.31896H4.86127V3.36266H4.82323V3.53261H4.78298V3.61759H4.74493V3.70257H4.70468V3.82882H4.66664V3.91622H4.62639V4.04248H4.58611V4.12745H4.54807V4.25614H4.50782V4.34111H4.46978V4.42608H4.42952V4.55477H4.39148V4.63975H4.3512V4.766H4.31318V4.85098H4.2729V4.93595H4.23489V5.1059H4.19461V5.14961H4.15657V5.27586H4.11632V5.36326H4.07828V5.48951H4.03803V5.61819H3.9597V5.44824H3.91945V5.31956H3.88141V5.23458H3.84116V5.1059H3.80312V5.06463H3.76284V4.93595H3.72482V4.8097H3.68454V4.72472H3.64653V4.59604H3.60624V4.51106H3.56821V4.38239H3.52795V4.29741H3.48991V4.21243H3.44966V4.08618H3.41162V4.0012H3.37134V3.87253H3.33333V3.78755H3.29304V3.70257H3.25279V3.53261H3.21475V3.48891H3.17447V3.36266H3.13646V3.27768H3.09618V3.14901H3.05816V3.06403H3.01789V2.97905H2.97984V2.8091H2.93959V2.7654H2.90155V2.63914H2.86129V2.55417H2.82325V2.42548H2.78298V2.29681H2.74496V2.25554H2.70468V2.08558H2.66667V2.04188H2.62639V1.91562H2.58834V1.78695H2.54809V1.70197H2.50781V1.57329H2.4698V1.53201H2.42952V1.40334H2.39148V1.27709H2.35123V1.19211H2.31318V1.06343H2.27293V0.978448H2.23489V0.849775H2.19461V0.764796H2.15659V0.679818H2.11632V0.553566H2.0783V0.468587H2.03802V0.339913H1.99998V0.254935H1.95973V0.169957H1.91944V0H0.0380426V0.0412742Z" fill="white" fill-opacity="0.4"/>
    <path fill-rule="evenodd" clip-rule="evenodd" d="M2.79483 11.0361H2.58849V11.0743H2.30245V11.1105H2.09612V11.1487H2.01406V11.187H1.84994V11.2231H1.76786V11.2613H1.64362V11.2974H1.56153V11.3357H1.47947V11.3718H1.39741V11.41H1.35754V11.4461H1.27549V11.4843H1.19108V11.5205H1.15121V11.5587H1.06915V11.5949H1.02696V11.6331H0.987093V11.6692H0.944877V11.7074H0.905041V11.7436H0.822981V11.8179H0.780765V11.8561H0.740896V11.8944H0.698705V11.9305H0.658836V11.9688H0.616645V12.0431H0.576776V12.0792H0.534559V12.1536H0.494724V12.2279H0.452508V12.3023H0.410317V12.3767H0.370448V12.4892H0.328232V12.6379H0.288388V12.7506H0.246172V13.5324H0.288388V13.6428H0.328232V13.7915H0.370448V13.8679H0.410317V13.9424H0.452508V14.0167H0.494724V14.0528H0.534559V14.1272H0.576776V14.1654H0.616645V14.2397H0.658836V14.2758H0.698705V14.3141H0.740896V14.3503H0.780765V14.3885H0.822981V14.4267H0.905041V14.5011H0.987093V14.5372H1.06915V14.5754H1.10902V14.6115H1.19108V14.6497H1.2333V14.6859H1.31536V14.7242H1.43963V14.7603H1.47947V14.7985H1.60375V14.8346H1.72568V14.8728H1.84994V14.909H2.09612V14.9472H2.17818V14.9833H2.46656V15.0215H2.50643V14.9833H2.54865V15.0215H2.75498V15.0576H3.08322V15.0959H3.37163V15.1342H3.49353V15.1703H3.73973V15.2085H3.82179V15.2446H3.98594V15.2828H4.11018V15.319H4.19226V15.3572H4.27432V15.3933H4.31651V15.4315H4.3986V15.4676H4.48065V15.5059H4.5205V15.5421H4.56271V15.6164H4.60258V15.6546H4.64477V15.7651H4.68464V15.9521H4.72683V16.0264H4.68464V16.139H4.64477V16.2495H4.60258V16.3239H4.56271V16.3621H4.5205V16.4364H4.48065V16.4746H4.43844V16.5108H4.3986V16.549H4.35638V16.5851H4.27432V16.6234H4.23445V16.6595H4.15239V16.6977H4.11018V16.7339H3.98594V16.7721H3.90385V16.8082H3.78195V16.8464H3.53575V16.8825H3.41147V16.9208H2.58849V16.8825H2.38451V16.8464H2.13834V16.8082H1.97419V16.7721H1.84994V16.7339H1.68581V16.6977H1.64362V16.6595H1.47947V16.6234H1.43963V16.5851H1.31536V16.549H1.2333V16.5108H1.15121V16.4746H1.06915V16.4364H1.02696V16.4003H0.944877V16.3621H0.862825V16.3239H0.822981V16.2877H0.780765V16.2495H0.740896V16.2133H0.658836V16.1751H0.616645V16.2495H0.576776V16.2877H0.534559V16.3621H0.494724V16.4003H0.452508V16.4746H0.410317V16.5108H0.370448V16.549H0.328232V16.6234H0.288388V16.6595H0.246172V16.7339H0.206328V16.7721H0.164112V16.8464H0.124242V16.8825H0.0820601V16.9208H0.0421907V16.9951H0V17.1439H0.0820601V17.1821H0.164112V17.2182H0.206328V17.2564H0.246172V17.2926H0.328232V17.3308H0.370448V17.3669H0.452508V17.4052H0.494724V17.4413H0.616645V17.4795H0.658836V17.5157H0.740896V17.5539H0.862825V17.59H0.905041V17.6282H1.02696V17.6664H1.10902V17.7026H1.27549V17.7408H1.39741V17.7769H1.47947V17.8152H1.68581V17.8513H1.80773V17.8895H2.01406V17.9257H2.34232V17.9639H2.38451V18H3.53575V17.9639H3.57562V17.9257H3.90385V17.8895H4.11018V17.8513H4.19226V17.8152H4.35638V17.7769H4.43844V17.7408H4.56271V17.7026H4.68464V17.6664H4.72683V17.6282H4.80892V17.59H4.89097V17.5539H4.93316V17.5157H5.01524V17.4795H5.05509V17.4413H5.13715V17.4052H5.17937V17.3669H5.21923V17.3308H5.26142V17.2926H5.30129V17.2564H5.34348V17.2182H5.38335V17.1821H5.42556V17.1439H5.46775V17.1078H5.50762V17.0695H5.54981V17.0312H5.58968V16.9951H5.63187V16.9208H5.67173V16.8825H5.71395V16.8082H5.75379V16.7339H5.79601V16.6595H5.83588V16.5851H5.87807V16.4746H5.91794V16.2877H5.96012V16.1751H6V15.5421H5.96012V15.4315H5.91794V15.2828H5.87807V15.1703H5.83588V15.0959H5.79601V15.0215H5.75379V14.9833H5.71395V14.909H5.67173V14.8728H5.63187V14.8346H5.58968V14.7603H5.54981V14.7242H5.50762V14.6859H5.46775V14.6497H5.42556V14.6115H5.38335V14.5754H5.30129V14.5372H5.26142V14.5011H5.21923V14.4628H5.13715V14.4267H5.09731V14.3885H5.01524V14.3503H4.89097V14.3141H4.8511V14.2758H4.72683V14.2397H4.64477V14.2015H4.5205V14.1654H4.35638V14.1272H4.27432V14.091H4.02812V14.0528H3.90385V14.0167H3.61781V13.9785H3.37163V13.9424H3.04103V13.9041H2.75498V13.8679H2.58849V13.8297H2.38451V13.7915H2.30245V13.7554H2.13834V13.7172H2.01406V13.681H1.97419V13.6428H1.89213V13.6067H1.84994V13.5685H1.76786V13.5324H1.72568V13.4579H1.68581V13.4197H1.64362V13.3836H1.60375V13.271H1.56153V13.1606H1.52169V12.9736H1.56153V12.8249H1.60375V12.7123H1.64362V12.6379H1.68581V12.6018H1.72568V12.5254H1.80773V12.4531H1.84994V12.4149H1.932V12.3767H1.97419V12.3405H2.05625V12.3023H2.09612V12.2661H2.22039V12.2279H2.34232V12.1918H2.42438V12.1536H2.6729V12.1175H2.83704V12.0792H3.57562V12.1175H3.78195V12.1536H4.02812V12.1918H4.15239V12.2279H4.31651V12.2661H4.43844V12.3023H4.5205V12.3405H4.64477V12.3767H4.72683V12.4149H4.80892V12.4531H4.93316V12.4892H4.97303V12.5254H5.05509V12.5636H5.09731V12.6018H5.17937V12.6379H5.30129V12.6018H5.34348V12.5636H5.38335V12.4892H5.42556V12.4149H5.46775V12.3767H5.50762V12.3023H5.54981V12.2661H5.58968V12.1918H5.63187V12.1536H5.67173V12.0792H5.71395V12.0049H5.75379V11.9688H5.79601V11.8944H5.83588V11.8561H5.87807V11.7818H5.91794V11.7436H5.87807V11.7074H5.83588V11.6692H5.75379V11.6331H5.67173V11.5949H5.63187V11.5587H5.50762V11.5205H5.46775V11.4843H5.38335V11.4461H5.26142V11.41H5.21923V11.3718H5.09731V11.3357H5.01524V11.2974H4.89097V11.2613H4.7667V11.2231H4.68464V11.187H4.5205V11.1487H4.3986V11.1105H4.19226V11.0743H3.86401V11.0361H3.65768V11H3.49353V11.0361H3.45369V11H2.79483V11.0361Z" fill="white" fill-opacity="0.4"/>
    <path fill-rule="evenodd" clip-rule="evenodd" d="M55.9187 5.75555H55.8803V5.83704H55.8442V5.96044H55.8059V6.08151H55.7697V6.12342H55.7314V6.20491H55.6952V6.24449H55.6568V6.32598H55.6185V6.3679H55.5824V6.40748H55.5441V6.44939H55.5079V6.48897H55.4696V6.53087H55.4334V6.57045H55.3589V6.61236H55.3206V6.65194H55.246V6.69384H55.1716V6.73573H55.1354V6.77531H55.0225V6.81729H54.8735V6.85687H54.6117V6.89877H54.4627V6.85687H54.2009V6.81729H54.0519V6.77531H53.9413V6.73573H53.8667V6.69384H53.7923V6.65194H53.754V6.61236H53.6794V6.57045H53.6411V6.53087H53.6049V6.48897H53.5666V6.44939H53.5304V6.40748H53.4921V6.3679H53.4559V6.32598H53.4176V6.2864H53.3815V6.20491H53.3431V6.12342H53.3069V6.08151H53.2686V6.00003H53.2324V5.91853H53.1941V5.75555H53.158V5.55066H53.1197V4.93832H53.158V4.69385H53.1941V4.57277H53.2324V4.48896H53.2686V4.36789H53.3069V4.32598H53.3431V4.24448H53.3815V4.2049H53.4176V4.16299H53.4559V4.0815H53.4921V4.04192H53.5304V4.00002H53.5666V3.96044H53.6411V3.91853H53.6794V3.87661H53.7177V3.83703H53.754V3.79512H53.8284V3.75554H53.9029V3.71363H53.9774V3.67405H54.1265V3.63214H54.2392V3.59256H54.7991V3.63214H54.9098V3.67405H55.0609V3.71363H55.1354V3.75554H55.2099V3.79512H55.2843V3.83703H55.3206V3.87661H55.395V3.91853H55.4334V3.96044H55.4696V4.00002H55.5079V4.04192H55.5441V4.0815H55.5824V4.12341H55.6185V4.16299H55.6568V4.24448H55.6952V4.2864H55.7314V4.36789H55.7697V4.40747H55.8059V4.53086H55.8442V4.65426H55.8803V4.73576H55.9187V5.0198H55.9549V5.42959H55.9187V5.75555ZM55.8803 3.1432H55.8059V3.06171H55.7697V3.0198H55.7314V2.98022H55.6952V2.93831H55.6185V2.89873H55.5824V2.85682H55.5441V2.81724H55.4696V2.77533H55.4334V2.73575H55.3589V2.69384H55.2843V2.65426H55.246V2.61235H55.0971V2.57277H55.0225V2.53086H54.8352V2.48895H53.9413V2.53086H53.7923V2.57277H53.6794V2.61235H53.5304V2.65426H53.4921V2.69384H53.3815V2.73575H53.3069V2.77533H53.2324V2.81724H53.158V2.85682H53.1197V2.89873H53.0451V2.93831H53.009V2.98022H52.9323V3.0198H52.8961V3.06171H52.8578V3.10129H52.8216V3.1432H52.7471V3.18511H52.7088V3.22469H52.6726V3.2666H52.6343V3.34809H52.5981V3.38767H52.5598V3.42958H52.5236V3.46916H52.4853V3.55066H52.4491V3.59256H52.4108V3.63214H52.3725V3.71363H52.3363V3.79512H52.3001V3.87661H52.2618V3.96044H52.2235V4.04192H52.1873V4.16299H52.149V4.2049H52.1128V4.36789H52.0745V4.48896H52.0383V4.69385H52V5.75555H52.0383V5.96044H52.0745V6.08151H52.1128V6.24449H52.149V6.32598H52.1873V6.44939H52.2235V6.53087H52.2618V6.61236H52.3001V6.69384H52.3363V6.73573H52.3725V6.81729H52.4108V6.85687H52.4491V6.93835H52.4853V7.01982H52.5236V7.06171H52.5598V7.10129H52.5981V7.14319H52.6343V7.18277H52.6726V7.22466H52.7088V7.26433H52.7471V7.30622H52.7833V7.34812H52.8216V7.3877H52.8578V7.42959H52.8961V7.46917H52.9706V7.51107H53.009V7.55065H53.0834V7.59254H53.1197V7.63212H53.1941V7.6741H53.2686V7.71368H53.3069V7.75558H53.4176V7.79516H53.4921V7.83705H53.5666V7.87663H53.7177V7.91853H53.7923V7.95811H54.0902V8H54.7608V7.95811H54.9864V7.91853H55.0609V7.87663H55.2099V7.83705H55.246V7.79516H55.3206V7.75558H55.4334V7.71368H55.4696V7.6741H55.5079V7.63212H55.5824V7.59254H55.6185V7.55065H55.6568V7.51107H55.6952V7.46917H55.7314V7.42959H55.7697V7.3877H55.8059V7.34812H55.8803V7.87663H56.9638V0.0419109H57V0H55.8803V3.1432Z" fill="white" fill-opacity="0.4"/>
    <path fill-rule="evenodd" clip-rule="evenodd" d="M35.8933 11.0361H35.7523V11.0743H35.5047V11.1105H35.3275V11.1487H35.2591V11.187H35.1161V11.2231H35.0456V11.2613H34.9409V11.2974H34.8704V11.3357H34.8V11.3718H34.6933V11.41H34.6571V11.4461H34.5866V11.4843H34.5161V11.5205H34.4819V11.5587H34.4114V11.5949H34.3751V11.6331H34.3046V11.6692H34.2705V11.7074H34.2V11.7436H34.1637V11.7818H34.1295V11.8179H34.059V11.8561H34.0228V11.8944H33.9865V11.9305H33.9523V11.9688H33.9161V12.0049H33.8819V12.0431H33.8456V12.0792H33.8114V12.1175H33.7752V12.1918H33.7409V12.2279H33.7047V12.2661H33.6704V12.3023H33.6342V12.3405H33.6V12.4149H33.5637V12.4531H33.5295V12.5254H33.4933V12.5636H33.457V12.6379H33.4228V12.7123H33.3886V12.7506H33.3523V12.861H33.3161V12.8992H33.2818V13.0097H33.2456V13.084H33.2113V13.1606H33.1751V13.271H33.1409V13.3836H33.1047V13.5324H33.0704V13.6428H33.0342V13.8679H33V15.1342H33.0342V15.3572H33.0704V15.4676H33.1047V15.6164H33.1409V15.6929H33.1751V15.8416H33.2113V15.916H33.2456V15.9903H33.2818V16.1008H33.3161V16.139H33.3523V16.2495H33.3886V16.2877H33.4228V16.3621H33.457V16.4364H33.4933V16.4746H33.5295V16.549H33.5637V16.5851H33.6V16.6595H33.6342V16.6977H33.6704V16.7339H33.7047V16.7721H33.7409V16.8082H33.7752V16.8825H33.8114V16.9208H33.8456V16.9569H33.8819V16.9951H33.9161V17.0312H33.9523V17.0695H33.9865V17.1078H34.0228V17.1439H34.0932V17.1821H34.1295V17.2182H34.1637V17.2564H34.2V17.2926H34.2342V17.3308H34.3046V17.3669H34.3751V17.4052H34.4114V17.4413H34.4819V17.4795H34.5161V17.5157H34.5866V17.5539H34.6571V17.59H34.6933V17.6282H34.8V17.6664H34.8342V17.7026H34.9409V17.7408H35.0456V17.7769H35.1161V17.8152H35.2591V17.8513H35.3275V17.8895H35.5047V17.9257H35.7866V17.9639H35.8228V18H36.8819V17.9257H37.1296V17.8895H37.3047V17.8513H37.3752V17.8152H37.5161V17.7769H37.5866V17.7408H37.6933V17.7026H37.8V17.6664H37.8342V17.6282H37.941V17.59H37.9752V17.5539H38.0457V17.5157H38.1161V17.4795H38.1524V17.4413H38.2228V17.4052H38.2571V17.3669H38.3295V17.3308H38.3638V17.2926H38.4V17.2564H38.4704V17.2182H38.5047V17.1821H38.5409V17.1439H38.5752V17.1078H38.6114V17.0695H38.6456V17.0312H38.6819V16.9951H38.7161V16.9569H38.7524V16.9208H38.7866V16.8825H38.8229V16.8082H38.857V16.7721H38.8933V16.7339H38.9275V16.6977H38.9638V16.5851H38.9275V16.549H38.8933V16.5108H38.857V16.4746H38.7866V16.4364H38.7524V16.4003H38.6819V16.3621H38.6456V16.3239H38.6114V16.2877H38.5409V16.2495H38.5047V16.2133H38.4342V16.1751H38.4V16.139H38.3638V16.1008H38.2933V16.0646H38.2571V16.0264H38.1866V15.9521H38.0819V16.0264H38.0457V16.0646H38.0115V16.1008H37.9752V16.139H37.941V16.1751H37.9047V16.2495H37.8705V16.2877H37.8342V16.3239H37.8V16.3621H37.7275V16.4003H37.6933V16.4364H37.6571V16.4746H37.5866V16.5108H37.5523V16.549H37.4819V16.5851H37.4457V16.6234H37.3752V16.6595H37.3047V16.6977H37.2705V16.7339H37.1638V16.7721H37.0933V16.8082H36.9523V16.8464H36.7752V16.8825H36.5638V16.9208H36.1047V16.8825H35.9295V16.8464H35.7161V16.8082H35.5752V16.7721H35.5047V16.7339H35.4V16.6977H35.3638V16.6595H35.2591V16.6234H35.1865V16.5851H35.1523V16.549H35.0456V16.5108H35.0114V16.4746H34.9751V16.4364H34.9409V16.4003H34.8704V16.3621H34.8342V16.3239H34.8V16.2877H34.7638V16.2495H34.7295V16.2133H34.6933V16.1751H34.6571V16.139H34.6228V16.1008H34.5866V16.0646H34.5523V15.9903H34.5161V15.9521H34.4819V15.8777H34.4456V15.8033H34.4114V15.7651H34.3751V15.6929H34.3409V15.6164H34.3046V15.5421H34.2705V15.3933H34.2342V15.3572H34.2V15.1703H34.1637V15.0959H34.1295V14.7603H34.0932V14.2397H34.1295V13.9041H34.1637V13.8297H34.2V13.6428H34.2342V13.5685H34.2705V13.4579H34.3046V13.3836H34.3409V13.3093H34.3751V13.2349H34.4114V13.1967H34.4456V13.1223H34.4819V13.084H34.5161V13.0097H34.5523V12.9736H34.5866V12.8992H34.6228V12.861H34.6571V12.8249H34.6933V12.7867H34.7295V12.7506H34.7638V12.7123H34.8V12.6761H34.8342V12.6379H34.8704V12.6018H34.9409V12.5636H34.9751V12.5254H35.0114V12.4892H35.0456V12.4531H35.1161V12.4149H35.1865V12.3767H35.2591V12.3405H35.3275V12.3023H35.4V12.2661H35.5047V12.2279H35.6114V12.1918H35.6819V12.1536H35.8933V12.1175H36.0705V12.0792H36.6V12.1175H36.7752V12.1536H36.9523V12.1918H37.057V12.2279H37.1638V12.2661H37.2705V12.3023H37.3047V12.3405H37.4114V12.3767H37.4457V12.4149H37.5161V12.4531H37.5523V12.4892H37.6228V12.5254H37.6571V12.5636H37.6933V12.6018H37.7275V12.6379H37.8V12.7123H37.8705V12.7506H37.9047V12.7867H37.941V12.8249H37.9752V12.8992H38.0115V12.9354H38.0457V12.9736H38.0819V13.0479H38.1866V13.0097H38.2228V12.9736H38.2933V12.9354H38.3295V12.8992H38.4V12.861H38.4342V12.8249H38.4704V12.7867H38.5409V12.7506H38.5752V12.7123H38.6456V12.6761H38.6819V12.6379H38.7524V12.6018H38.8229V12.5636H38.857V12.5254H38.9275V12.4892H38.9638V12.4531H39V12.3767H38.9638V12.3023H38.9275V12.2661H38.8933V12.2279H38.857V12.1536H38.8229V12.1175H38.7866V12.0792H38.7524V12.0049H38.7161V11.9688H38.6819V11.9305H38.6456V11.8944H38.6114V11.8561H38.5752V11.8179H38.5047V11.7818H38.4704V11.7436H38.4342V11.7074H38.3638V11.6692H38.3295V11.6331H38.2933V11.5949H38.2571V11.5587H38.1866V11.5205H38.1161V11.4843H38.0819V11.4461H37.9752V11.41H37.941V11.3718H37.8342V11.3357H37.8V11.2974H37.7275V11.2613H37.5866V11.2231H37.5523V11.187H37.4114V11.1487H37.3409V11.1105H37.1638V11.0743H36.9161V11.0361H36.7752V11H35.8933V11.0361Z" fill="white" fill-opacity="0.4"/>
    <path fill-rule="evenodd" clip-rule="evenodd" d="M47.115 14.884H47.1523V14.7591H47.1918V14.5886H47.2292V14.5044H47.2687V14.4204H47.306V14.3363H47.3455V14.2522H47.385V14.1682H47.4223V14.1273H47.4619V14.0841H47.4991V14.0433H47.5386V14H47.5759V13.9591H47.6155V13.9159H47.6528V13.8727H47.7296V13.8318H47.8064V13.7886H47.846V13.7478H47.9601V13.7045H48.0391V13.6637H48.2301V13.6204H48.4232V13.5795H48.6142V13.6204H48.8073V13.6637H49.0378V13.7045H49.0773V13.7478H49.1914V13.7886H49.2682V13.8318H49.3077V13.8727H49.3846V13.9159H49.4241V13.9591H49.4614V14H49.5009V14.0433H49.5382V14.0841H49.5777V14.1273H49.615V14.1682H49.6546V14.2522H49.6918V14.2955H49.7313V14.4204H49.7687V14.4636H49.8082V14.5886H49.8455V14.7159H49.885V14.8432H49.9223V15.6432H49.885V15.7681H49.8455V15.8955H49.8082V16.0204H49.7687V16.0636H49.7313V16.191H49.6918V16.2318H49.6546V16.2751H49.615V16.3591H49.5382V16.4432H49.5009V16.4841H49.4241V16.5681H49.3472V16.6114H49.3077V16.6523H49.2309V16.6955H49.1541V16.7363H49.0773V16.7796H48.9236V16.8204H48.8468V16.8636H48.1927V16.8204H48.1159V16.7796H47.9601V16.7363H47.8832V16.6955H47.8064V16.6523H47.7296V16.6114H47.6923V16.5681H47.6528V16.5273H47.6155V16.4841H47.5386V16.4432H47.4991V16.4H47.4619V16.3159H47.4223V16.2751H47.385V16.2318H47.3455V16.1477H47.306V16.0636H47.2687V15.9796H47.2292V15.8955H47.1918V15.7273H47.1523V15.5591H47.115V14.884ZM49.885 10.0408H49.8455V10.1249H49.885V12.9886H49.8455V13.0318H49.885V13.1567H49.8082V13.0727H49.7687V13.0318H49.7313V12.9886H49.6546V12.9477H49.615V12.9045H49.5777V12.8637H49.5009V12.8205H49.4614V12.7796H49.3846V12.7363H49.3077V12.6955H49.2682V12.6522H49.1541V12.6114H49.0773V12.5682H48.9236V12.5273H48.6932V12.4841H48.0391V12.5273H47.846V12.5682H47.6923V12.6114H47.6155V12.6522H47.4619V12.6955H47.4223V12.7363H47.306V12.7796H47.2292V12.8205H47.1918V12.8637H47.115V12.9045H47.0755V12.9477H46.9987V12.9886H46.9218V13.0318H46.8846V13.0727H46.8451V13.1159H46.8077V13.1567H46.7682V13.1999H46.7309V13.2408H46.6914V13.2841H46.6519V13.3273H46.6146V13.3682H46.5751V13.4114H46.5377V13.4955H46.4982V13.5363H46.461V13.6204H46.4215V13.6637H46.3841V13.7478H46.3446V13.7886H46.3073V13.8727H46.2678V13.9591H46.2305V14.0433H46.191V14.1682H46.1536V14.2522H46.1141V14.3795H46.0769V14.5886H46.0374V14.7591H46V15.7273H46.0374V15.8955H46.0769V16.1045H46.1141V16.2318H46.1536V16.3159H46.191V16.4432H46.2305V16.4841H46.2678V16.6114H46.3073V16.6523H46.3446V16.7363H46.3841V16.8204H46.4215V16.8636H46.461V16.9477H46.4982V16.9909H46.5377V17.0751H46.5751V17.1159H46.6146V17.1592H46.6519V17.2H46.6914V17.2432H46.7309V17.2841H46.7682V17.3273H46.8077V17.3681H46.8451V17.4114H46.9218V17.4522H46.9614V17.4955H47.0382V17.5363H47.0755V17.5796H47.115V17.6228H47.1918V17.6636H47.2687V17.7069H47.3455V17.7477H47.4223V17.7909H47.5386V17.8318H47.6155V17.8751H47.7296V17.9159H47.9601V17.9592H47.9996V18H48.8073V17.9159H49.0378V17.8751H49.1541V17.8318H49.2309V17.7909H49.3472V17.7477H49.3846V17.7069H49.4614V17.6636H49.5009V17.6228H49.5382V17.5796H49.615V17.5363H49.6546V17.4955H49.6918V17.4522H49.7313V17.4114H49.7687V17.3681H49.8082V17.3273H49.885V17.4955H49.8455V17.5363H49.885V17.7069H49.8455V17.8318H49.885V17.8751H50.9231V17.8318H50.9627V10.0841H51V10.0408H50.9627V10H49.885V10.0408Z" fill="white" fill-opacity="0.4"/>
    <path fill-rule="evenodd" clip-rule="evenodd" d="M13.7025 5.92564H13.6565V6.0735H13.613V6.14955H13.5671V6.22348H13.5237V6.29742H13.4776V6.33333H13.4343V6.40726H13.3883V6.4812H13.3448V6.51921H13.2989V6.55513H13.2554V6.59315H13.2095V6.62906H13.1635V6.66708H13.1201V6.70299H13.0307V6.74101H12.9847V6.77696H12.9412V6.81497H12.8059V6.85298H12.7625V6.88889H12.6271V6.9269H12.4483V6.96281H12.1341V7.00082H11.9554V6.96281H11.8659V7.00082H11.8225V6.96281H11.6411V6.9269H11.4624V6.88889H11.3295V6.85298H11.2401V6.81497H11.1508V6.77696H11.1048V6.74101H11.0154V6.70299H10.9719V6.66708H10.926V6.62906H10.8826V6.59315H10.8365V6.55513H10.7906V6.51921H10.7472V6.4812H10.7012V6.44528H10.6578V6.37135H10.6118V6.33333H10.5683V6.22348H10.5224V6.18546H10.479V6.0735H10.433V5.96367H10.3895V5.8158H10.3436V5.18631H10.3895V5.00042H10.433V4.92648H10.479V4.81453H10.5224V4.7406H10.5683V4.66666H10.6118V4.59273H10.6578V4.55682H10.7012V4.48289H10.7906V4.40895H10.8365V4.37094H10.8826V4.33503H10.9719V4.297H11.0154V4.25898H11.0613V4.22307H11.1048V4.18504H11.2401V4.14913H11.3295V4.11111H11.3729V4.0752H11.5977V4.03718H11.6871V4.00127H12.4049V4.03718H12.4917V4.0752H12.673V4.11111H12.7625V4.14913H12.8519V4.18504H12.9412V4.22307H12.9847V4.25898H13.0741V4.297H13.1201V4.33503H13.1635V4.37094H13.2554V4.44486H13.2989V4.48289H13.3448V4.5188H13.3883V4.55682H13.4343V4.63075H13.4776V4.66666H13.5237V4.77862H13.5671V4.85256H13.613V4.92648H13.6565V5.07435H13.7025V5.18631H13.7458V5.77777H13.7025V5.92564ZM11.3295 3.03802H11.1508V3.07605H11.0154V3.11196H10.8365V3.14998H10.7906V3.18589H10.6578V3.22392H10.5683V3.25983H10.479V3.29785H10.3895V3.33376H10.3436V3.37178H10.2542V3.40769H10.2108V3.44571H10.1188V3.48162H10.0754V3.51964H10.0294V3.55555H9.93999V3.6316H9.89662V3.66751H9.85066V3.70554H9.80719V3.74145H9.76122V3.77947H9.71776V3.81538H9.67179V3.85341H9.62842V3.92733H9.58236V3.96324H9.53899V4.00127H9.49302V4.0752H9.44955V4.11111H9.40359V4.18504H9.36022V4.25898H9.31425V4.33503H9.2682V4.40895H9.22482V4.48289H9.17886V4.59273H9.13539V4.70469H9.08943V4.85256H9.04605V5.00042H9V5.99958H9.04605V6.11153H9.08943V6.29742H9.13539V6.37135H9.17886V6.4812H9.22482V6.59315H9.2682V6.66708H9.31425V6.74101H9.36022V6.77696H9.40359V6.88889H9.44955V6.9269H9.49302V6.96281H9.53899V7.03673H9.58236V7.07474H9.62842V7.14873H9.67179V7.18464H9.71776V7.22265H9.76122V7.25856H9.80719V7.29657H9.85066V7.33248H9.89662V7.37049H9.93999V7.4085H9.98596V7.44441H10.0294V7.48249H10.0754V7.5184H10.1648V7.55641H10.2108V7.59232H10.3002V7.63033H10.3436V7.66624H10.433V7.70425H10.5224V7.74016H10.5683V7.77817H10.7012V7.81408H10.7906V7.85209H10.8826V7.888H11.0613V7.92608H11.1942V7.96199H11.4624V8H12.3129V7.96199H12.5837V7.92608H12.673V7.888H12.8059V7.85209H12.8953V7.81408H13.0307V7.77817H13.0741V7.74016H13.1635V7.70425H13.2554V7.66624H13.2989V7.63033H13.3448V7.59232H13.3883V7.55641H13.4776V7.5184H13.5237V7.44441H13.5671V7.4085H13.613V7.37049H13.6565V7.4085H13.7025V7.44441H13.6565V7.888H14.9566V7.85209H15V3.14998H14.9566V3.11196H13.6565V3.55555H13.7025V3.59358H13.6565V3.6316H13.613V3.55555H13.5671V3.51964H13.5237V3.48162H13.4776V3.44571H13.4343V3.40769H13.3883V3.37178H13.2989V3.33376H13.2554V3.29785H13.1635V3.25983H13.1201V3.22392H13.0307V3.18589H12.9412V3.14998H12.8953V3.11196H12.7625V3.07605H12.6271V3.03802H12.4483V3H11.3295V3.03802Z" fill="white" fill-opacity="0.4"/>
    <path fill-rule="evenodd" clip-rule="evenodd" d="M42.3436 5.22222H42.3871V5.07435H42.433V4.89057H42.4764V4.85256H42.5224V4.7406H42.5658V4.70469H42.6118V4.63075H42.6552V4.55682H42.7012V4.5188H42.7472V4.48289H42.7906V4.40895H42.8365V4.37094H42.88V4.33503H42.9694V4.297H43.0154V4.25898H43.1047V4.22307H43.1482V4.18504H43.2376V4.14913H43.327V4.11111H43.419V4.0752H43.5977V4.03718H43.7306V4.00127H44.4023V4.03718H44.4918V4.0752H44.6705V4.11111H44.7599V4.14913H44.8493V4.18504H44.9413V4.22307H45.0307V4.25898H45.0741V4.297H45.1201V4.33503H45.2094V4.37094H45.2529V4.44486H45.2989V4.48289H45.3423V4.5188H45.3883V4.55682H45.4317V4.59273H45.4777V4.66666H45.5211V4.7406H45.5671V4.81453H45.6105V4.92648H45.6565V5.00042H45.6999V5.22222H45.7458V5.77777H45.6999V5.99958H45.6565V6.03759H45.6105V6.14955H45.5671V6.25939H45.5211V6.29742H45.4777V6.37135H45.4317V6.40726H45.3883V6.4812H45.3423V6.51921H45.2989V6.55513H45.2529V6.59315H45.2094V6.62906H45.1635V6.66708H45.1201V6.70299H45.0741V6.74101H44.9847V6.77696H44.9413V6.81497H44.8059V6.85298H44.7599V6.88889H44.6271V6.9269H44.4483V6.96281H44.1341V7.00082H43.9553V6.96281H43.6411V6.9269H43.4624V6.88889H43.327V6.85298H43.2376V6.81497H43.1482V6.77696H43.1047V6.74101H43.0154V6.70299H42.9694V6.66708H42.926V6.62906H42.88V6.59315H42.8365V6.55513H42.7906V6.51921H42.7472V6.4812H42.7012V6.44528H42.6552V6.37135H42.6118V6.29742H42.5658V6.25939H42.5224V6.14955H42.4764V6.0735H42.433V5.92564H42.3871V5.77777H42.3436V5.22222ZM43.327 3.03802H43.1482V3.07605H43.0154V3.11196H42.8365V3.14998H42.7906V3.18589H42.6552V3.22392H42.5658V3.25983H42.4764V3.29785H42.3871V3.33376H42.3436V3.37178H42.2542V3.40769H42.2082V3.44571H42.1648V3.48162H42.0754V3.51964H42.0294V3.55555H41.986V3.59358H41.94V3.6316H41.8966V3.66751H41.8506V3.70554H41.8046V3.74145H41.7612V3.77947H41.7153V3.81538H41.6718V3.85341H41.6258V3.88932H41.5825V3.96324H41.5364V4.00127H41.493V4.0752H41.4471V4.14913H41.4036V4.18504H41.3576V4.297H41.3143V4.33503H41.2683V4.40895H41.2248V4.5188H41.1789V4.59273H41.1329V4.77862H41.0894V4.85256H41.0435V5.11238H41V5.85171H41.0435V6.14955H41.0894V6.22348H41.1329V6.37135H41.1789V6.44528H41.2248V6.55513H41.2683V6.66708H41.3143V6.70299H41.3576V6.81497H41.4036V6.85298H41.4471V6.9269H41.493V6.96281H41.5364V7.03673H41.5825V7.07474H41.6258V7.11065H41.6718V7.18464H41.7153V7.22265H41.7612V7.25856H41.8046V7.29657H41.8506V7.33248H41.8966V7.37049H41.94V7.4085H41.986V7.44441H42.0754V7.48249H42.1189V7.5184H42.1648V7.55641H42.2082V7.59232H42.2976V7.63033H42.3871V7.66624H42.433V7.70425H42.5224V7.74016H42.5658V7.77817H42.7012V7.81408H42.8365V7.85209H42.88V7.888H43.1047V7.92608H43.1942V7.96199H43.4624V8H44.3129V7.96199H44.5811V7.92608H44.6705V7.888H44.8493V7.85209H44.8953V7.81408H45.0307V7.77817H45.1201V7.74016H45.1635V7.70425H45.2529V7.66624H45.2989V7.63033H45.3423V7.59232H45.4317V7.55641H45.4777V7.5184H45.5211V7.48249H45.5671V7.4085H45.6565V7.37049H45.6999V7.48249H45.6565V7.70425H45.6999V7.74016H45.6565V7.85209H45.6999V7.888H47V3.11196H45.6999V3.14998H45.6565V3.22392H45.6999V3.25983H45.6565V3.51964H45.6999V3.6316H45.6565V3.59358H45.6105V3.55555H45.5671V3.51964H45.5211V3.48162H45.4777V3.44571H45.4317V3.40769H45.3883V3.37178H45.2989V3.33376H45.2529V3.29785H45.2094V3.25983H45.1201V3.22392H45.0307V3.18589H44.9413V3.14998H44.8953V3.11196H44.7165V3.07605H44.6271V3.03802H44.4023V3H43.327V3.03802Z" fill="white" fill-opacity="0.4"/>
    <path fill-rule="evenodd" clip-rule="evenodd" d="M27.2313 5.00042H27.2698V4.81453H27.3105V4.7406H27.349V4.63075H27.3898V4.59273H27.4283V4.48289H27.4689V4.44486H27.5074V4.40895H27.5482V4.33503H27.5867V4.297H27.6274V4.25898H27.6682V4.22307H27.7066V4.18504H27.7859V4.14913H27.8266V4.11111H27.8651V4.0752H27.985V4.03718H28.0643V4.00127H28.2227V3.96324H28.8565V4.00127H29.0556V4.03718H29.0964V4.0752H29.1756V4.11111H29.2549V4.14913H29.2933V4.18504H29.3726V4.25898H29.4517V4.33503H29.4925V4.37094H29.531V4.40895H29.5717V4.48289H29.6102V4.5188H29.651V4.59273H29.6917V4.70469H29.7301V4.77862H29.771V4.96451H29.8094V5.07435H27.2313V5.00042ZM28.0643 3.03802H27.8651V3.07605H27.7473V3.11196H27.5867V3.14998H27.5482V3.18589H27.4283V3.22392H27.349V3.25983H27.2698V3.29785H27.1906V3.33376H27.1521V3.37178H27.0728V3.40769H27.0321V3.44571H26.9937V3.48162H26.9144V3.51964H26.8737V3.55555H26.8329V3.59358H26.7945V3.6316H26.7537V3.66751H26.7152V3.70554H26.6745V3.74145H26.636V3.81538H26.5953V3.85341H26.5568V3.88932H26.5161V3.92733H26.4776V4.00127H26.4368V4.03718H26.3984V4.11111H26.3576V4.18504H26.3191V4.25898H26.2784V4.33503H26.2377V4.44486H26.1992V4.55682H26.1584V4.63075H26.12V4.77862H26.0792V4.92648H26.0407V5.33418H26V5.66793H26.0407V6.0735H26.0792V6.18546H26.12V6.37135H26.1584V6.44528H26.1992V6.55513H26.2377V6.66708H26.2784V6.70299H26.3191V6.81497H26.3576V6.85298H26.3984V6.9269H26.4368V7.00082H26.4776V7.03673H26.5161V7.11065H26.5953V7.18464H26.636V7.22265H26.6745V7.25856H26.7152V7.29657H26.7537V7.33248H26.7945V7.37049H26.8329V7.4085H26.8737V7.44441H26.9144V7.48249H26.9529V7.5184H27.0321V7.55641H27.0728V7.59232H27.1521V7.63033H27.1906V7.66624H27.2698V7.70425H27.349V7.74016H27.4283V7.77817H27.5074V7.81408H27.6274V7.85209H27.7066V7.888H27.8651V7.92608H27.985V7.96199H28.2612V8H29.0556V7.96199H29.4133V7.92608H29.531V7.888H29.7301V7.85209H29.8094V7.81408H29.9294V7.77817H30.0471V7.74016H30.1262V7.70425H30.2055V7.66624H30.287V7.63033H30.3662V7.59232H30.4047V7.55641H30.4454V7.5184H30.5246V7.48249H30.5632V7.44441H30.6423V7.4085H30.6831V7.37049H30.7216V7.33248H30.7623V7.25856H30.7216V7.22265H30.6831V7.14873H30.6423V7.11065H30.6039V7.03673H30.5632V7.00082H30.5246V6.96281H30.4839V6.88889H30.4454V6.85298H30.4047V6.77696H30.3662V6.74101H30.3255V6.70299H30.287V6.62906H30.2462V6.55513H30.1262V6.59315H30.0878V6.62906H30.0471V6.66708H30.0086V6.70299H29.9294V6.74101H29.8501V6.77696H29.8094V6.81497H29.6917V6.85298H29.651V6.88889H29.531V6.9269H29.4133V6.96281H29.2933V7.00082H29.0556V7.03673H28.8565V7.07474H28.5804V7.03673H28.3811V7.00082H28.182V6.96281H28.1027V6.9269H27.985V6.88889H27.9058V6.85298H27.8651V6.81497H27.7859V6.77696H27.7473V6.74101H27.6682V6.66708H27.6274V6.62906H27.5482V6.55513H27.5074V6.51921H27.4689V6.44528H27.4283V6.37135H27.3898V6.33333H27.349V6.22348H27.3105V6.14955H27.2698V5.99958H27.2313V5.88973H31V4.96451H30.9593V4.85256H30.9207V4.66666H30.88V4.55682H30.8415V4.44486H30.8008V4.33503H30.7623V4.25898H30.7216V4.18504H30.6831V4.11111H30.6423V4.03718H30.6039V3.96324H30.5632V3.92733H30.5246V3.88932H30.4839V3.85341H30.4454V3.77947H30.4047V3.74145H30.3662V3.70554H30.3255V3.66751H30.287V3.59358H30.2462V3.55555H30.1671V3.51964H30.1262V3.48162H30.0878V3.44571H30.0471V3.40769H30.0086V3.37178H29.9294V3.33376H29.8887V3.29785H29.8094V3.25983H29.7301V3.22392H29.651V3.18589H29.5717V3.14998H29.4925V3.11196H29.334V3.07605H29.2549V3.03802H29.0964V3H28.0643V3.03802Z" fill="white" fill-opacity="0.4"/>
    <path fill-rule="evenodd" clip-rule="evenodd" d="M30.7722 15.0993H28.2301V14.9839H28.2698V14.7944H28.3119V14.7182H28.3517V14.642H28.3938V14.5266H28.4335V14.4896H28.4756V14.4133H28.5177V14.3742H28.5575V14.3371H28.5996V14.2979H28.6393V14.2587H28.6815V14.2217H28.7212V14.1825H28.7633V14.1455H28.8452V14.1063H28.8849V14.0693H29.0089V14.0301H29.0908V13.9931H29.3783V13.9538H29.7058V13.9931H29.9513V14.0301H30.0332V14.0693H30.1571V14.1063H30.1969V14.1455H30.2787V14.1825H30.3209V14.2217H30.3606V14.2587H30.4027V14.2979H30.4424V14.3371H30.4846V14.3742H30.5267V14.4504H30.5664V14.4896H30.6085V14.5658H30.6483V14.642H30.6904V14.7944H30.7301V14.8315H30.7722V15.0231H30.812V15.0622H30.7722V15.0993ZM29.1726 13.0392H28.9668V13.0762H28.7633V13.1154H28.6815V13.1524H28.5177V13.1917H28.4335V13.2287H28.3517V13.2679H28.2698V13.3049H28.2301V13.3441H28.1482V13.3811H28.0664V13.4203H28.0243V13.4573H27.9845V13.4965H27.9026V13.5335H27.8606V13.5728H27.8208V13.6098H27.7788V13.649H27.7367V13.686H27.6969V13.7252H27.6548V13.7644H27.6151V13.8406H27.573V13.8776H27.5332V13.9168H27.4911V13.9931H27.4514V14.0301H27.4092V14.1063H27.3695V14.1455H27.3274V14.2587H27.2876V14.2979H27.2455V14.4133H27.2058V14.5266H27.1637V14.5658H27.1239V14.7552H27.0818V14.8707H27.0421V15.1756H27V15.8244H27.0421V16.0923H27.0818V16.2056H27.1239V16.3972H27.1637V16.4734H27.2058V16.5888H27.2455V16.6651H27.2876V16.7413H27.3274V16.8175H27.3695V16.8545H27.4092V16.9699H27.4514V17.0069H27.4911V17.0461H27.5332V17.1224H27.573V17.1616H27.6151V17.1986H27.6548V17.2378H27.6969V17.2748H27.7367V17.314H27.7788V17.351H27.8208V17.3902H27.8606V17.4272H27.9026V17.4665H27.9424V17.5035H27.9845V17.5427H28.0664V17.5797H28.1061V17.6189H28.188V17.6581H28.2301V17.6951H28.3517V17.7343H28.4335V17.7713H28.4756V17.8105H28.6393V17.8475H28.7212V17.8868H28.8849V17.9238H29.1305V17.963H29.1726V18H30.1571V17.963H30.1969V17.9238H30.4846V17.8868H30.6904V17.8475H30.7722V17.8105H30.9359V17.7713H30.9757V17.7343H31.0996V17.6951H31.1814V17.6581H31.2633V17.6189H31.3452V17.5797H31.3872V17.5427H31.4691V17.5035H31.5089V17.4665H31.551V17.4272H31.6328V17.3902H31.6725V17.351H31.7544V17.2748H31.7147V17.2378H31.6725V17.1616H31.6328V17.1224H31.5907V17.0854H31.551V17.0069H31.5089V16.9699H31.4691V16.8937H31.427V16.8545H31.3872V16.7783H31.3452V16.7413H31.3054V16.7021H31.2633V16.6258H31.2212V16.5888H31.1814V16.5496H31.0996V16.6258H31.0177V16.6651H30.9757V16.7021H30.8938V16.7413H30.812V16.7783H30.7301V16.8175H30.6483V16.8545H30.6085V16.8937H30.4424V16.9307H30.3606V16.9699H30.1969V17.0069H29.9116V17.0461H29.5V17.0069H29.2545V16.9699H29.0908V16.9307H29.0089V16.8937H28.927V16.8545H28.8452V16.8175H28.8031V16.7783H28.7212V16.7413H28.6815V16.7021H28.6393V16.6651H28.5996V16.6258H28.5575V16.5888H28.5177V16.5126H28.4756V16.4734H28.4335V16.4364H28.3938V16.3602H28.3517V16.2447H28.3119V16.1685H28.2698V16.0161H28.2301V15.9007H31.9603V15.7874H32V15.2518H31.9603V14.9077H31.9205V14.7944H31.8784V14.6028H31.8363V14.4896H31.7965V14.4133H31.7544V14.2979H31.7147V14.2217H31.6725V14.1455H31.6328V14.0693H31.5907V14.0301H31.551V13.9538H31.5089V13.9168H31.4691V13.8406H31.427V13.8014H31.3872V13.7644H31.3452V13.686H31.3054V13.649H31.2633V13.6098H31.2212V13.5728H31.1814V13.5335H31.0996V13.4965H31.0575V13.4573H31.0177V13.4203H30.9757V13.3811H30.8938V13.3441H30.812V13.3049H30.7722V13.2679H30.6904V13.2287H30.6085V13.1917H30.5267V13.1524H30.4027V13.1154H30.3209V13.0762H30.1571V13.0392H29.9513V13H29.1726V13.0392Z" fill="white" fill-opacity="0.4"/>
    <path fill-rule="evenodd" clip-rule="evenodd" d="M7.22958 15.0231H7.26929V14.8707H7.31135V14.7944H7.35105V14.642H7.3932V14.6028H7.4329V14.5266H7.47497V14.4504H7.51704V14.4133H7.55682V14.3371H7.59889V14.2979H7.63859V14.2587H7.68066V14.2217H7.76251V14.1825H7.80221V14.1455H7.88406V14.1063H7.92613V14.0693H8.04768V14.0301H8.12953V13.9931H8.37728V13.9538H8.74431V13.9931H8.99206V14.0301H9.03176V14.0693H9.15568V14.1063H9.23753V14.1455H9.27723V14.1825H9.35908V14.2587H9.44085V14.3371H9.48291V14.3742H9.5227V14.4133H9.56477V14.4896H9.60683V14.5266H9.64653V14.6028H9.6886V14.679H9.72838V14.7944H9.77045V14.9839H9.81015V15.0993H7.26929V15.0622H7.22958V15.0231ZM8.21366 13.0392H7.96583V13.0762H7.76251V13.1154H7.68066V13.1524H7.55682V13.1917H7.47497V13.2287H7.3932V13.2679H7.31135V13.3049H7.26929V13.3441H7.14773V13.3811H7.10567V13.4203H7.06588V13.4573H6.98411V13.4965H6.94205V13.5335H6.90226V13.5728H6.86019V13.6098H6.82049V13.649H6.77843V13.686H6.73628V13.7252H6.69658V13.7644H6.65451V13.8014H6.61481V13.8406H6.57266V13.9168H6.53296V13.9538H6.49089V13.9931H6.45111V14.0693H6.40907V14.1455H6.36932V14.2217H6.32724V14.2587H6.28752V14.3742H6.24543V14.4504H6.20571V14.5658H6.16362V14.7182H6.12387V14.7944H6.08181V15.0622H6.03973V15.3671H6V15.5958H6.03973V15.9007H6.08181V16.2056H6.12387V16.2818H6.16362V16.4364H6.20571V16.5496H6.24543V16.6258H6.28752V16.7021H6.32724V16.7783H6.36932V16.8545H6.40907V16.8937H6.45111V16.9699H6.49089V17.0461H6.53296V17.0854H6.57266V17.1224H6.61481V17.1616H6.65451V17.2378H6.69658V17.2748H6.73628V17.314H6.77843V17.351H6.82049V17.3902H6.86019V17.4272H6.94205V17.4665H6.98411V17.5035H7.02381V17.5427H7.10567V17.5797H7.14773V17.6189H7.22958V17.6581H7.26929V17.6951H7.35105V17.7343H7.4329V17.7713H7.51704V17.8105H7.63859V17.8475H7.72044V17.8868H7.88406V17.9238H8.12953V17.963H8.1716V18H9.19538V17.963H9.23753V17.9238H9.5227V17.8868H9.6886V17.8475H9.77045V17.8105H9.93407V17.7713H10.0159V17.7343H10.0977V17.6951H10.2192V17.6581H10.2613V17.6189H10.3432V17.5797H10.3852V17.5427H10.4671V17.5035H10.5488V17.4665H10.5886V17.4272H10.6307V17.3902H10.7125V17.351H10.7522V17.2378H10.7125V17.1986H10.6704V17.1616H10.6307V17.0854H10.5886V17.0461H10.5488V16.9699H10.5068V16.9307H10.4671V16.8937H10.4249V16.8175H10.3852V16.7783H10.3432V16.7021H10.3011V16.6651H10.2613V16.5888H10.2192V16.5496H10.1375V16.5888H10.0977V16.6258H10.0159V16.6651H9.97385V16.7021H9.892V16.7413H9.8523V16.7783H9.77045V16.8175H9.64653V16.8545H9.60683V16.8937H9.48291V16.9307H9.40115V16.9699H9.19538V17.0069H8.94999V17.0461H8.5409V17.0069H8.25336V16.9699H8.08974V16.9307H8.04768V16.8937H7.92613V16.8545H7.88406V16.8175H7.80221V16.7783H7.76251V16.7413H7.72044V16.7021H7.68066V16.6651H7.63859V16.6258H7.59889V16.5888H7.55682V16.5496H7.51704V16.4734H7.47497V16.4364H7.4329V16.3602H7.3932V16.321H7.35105V16.2056H7.31135V16.1293H7.26929V15.9399H7.22958V15.9007H10.9579V15.8636H11V14.9839H10.9579V14.8315H10.9159V14.642H10.8761V14.5658H10.834V14.4504H10.7943V14.3371H10.7522V14.2587H10.7125V14.1825H10.6704V14.1063H10.6307V14.0301H10.5886V13.9931H10.5488V13.9168H10.5068V13.8776H10.4671V13.8406H10.4249V13.7644H10.3852V13.7252H10.3432V13.686H10.3011V13.6098H10.2192V13.5728H10.1795V13.5335H10.1375V13.4965H10.0977V13.4573H10.0556V13.4203H9.97385V13.3811H9.93407V13.3441H9.8523V13.3049H9.81015V13.2679H9.72838V13.2287H9.64653V13.1917H9.56477V13.1524H9.44085V13.1154H9.35908V13.0762H9.15568V13.0392H8.94999V13H8.21366V13.0392Z" fill="white" fill-opacity="0.4"/>
    <path fill-rule="evenodd" clip-rule="evenodd" d="M55.7704 15.0993H53.2296V14.9077H53.2693V14.8315H53.3113V14.679H53.3511V14.6028H53.3932V14.5658H53.4352V14.4504H53.475V14.4133H53.5171V14.3742H53.5568V14.3371H53.5989V14.2587H53.6807V14.2217H53.7204V14.1825H53.7625V14.1455H53.8443V14.1063H53.884V14.0693H54.008V14.0301H54.0898V13.9931H54.3352V13.9538H54.7443V13.9931H54.95V14.0301H55.0318V14.0693H55.1557V14.1063H55.1955V14.1455H55.2772V14.1825H55.3194V14.2217H55.3591V14.2587H55.4011V14.2979H55.4408V14.3371H55.483V14.3742H55.5227V14.4504H55.5648V14.5266H55.6068V14.5658H55.6466V14.679H55.6887V14.7552H55.7284V14.9077H55.7704V15.0231H55.8102V15.0622H55.7704V15.0993ZM54.1716 13.0392H53.9659V13.0762H53.7204V13.1154H53.6807V13.1524H53.5171V13.1917H53.4352V13.2287H53.3511V13.2679H53.2693V13.3049H53.2296V13.3441H53.1477V13.3811H53.0659V13.4203H53.0239V13.4573H52.942V13.4965H52.9023V13.5335H52.8603V13.5728H52.8205V13.6098H52.7784V13.649H52.7387V13.686H52.6965V13.7252H52.6568V13.7644H52.6148V13.8014H52.5727V13.8776H52.5329V13.9168H52.4909V13.9538H52.4512V14.0301H52.4091V14.0693H52.3694V14.1455H52.3272V14.2217H52.2875V14.2979H52.2455V14.4133H52.2057V14.4504H52.1636V14.6028H52.1239V14.679H52.0818V14.8707H52.0421V15.2909H52V15.7091H52.0421V16.0923H52.0818V16.2818H52.1239V16.3602H52.1636V16.5126H52.2057V16.5888H52.2455V16.6651H52.2875V16.7783H52.3272V16.8175H52.3694V16.8937H52.4091V16.9307H52.4512V17.0069H52.4909V17.0854H52.5329V17.1224H52.5727V17.1616H52.6148V17.1986H52.6568V17.2378H52.6965V17.2748H52.7387V17.314H52.7784V17.351H52.8205V17.3902H52.8603V17.4272H52.9023V17.4665H52.942V17.5035H52.9841V17.5427H53.0659V17.5797H53.1056V17.6189H53.1875V17.6581H53.2296V17.6951H53.3113V17.7343H53.4352V17.7713H53.475V17.8105H53.6387V17.8475H53.6807V17.8868H53.884V17.9238H54.1295V18H55.1557V17.963H55.1955V17.9238H55.483V17.8868H55.6887V17.8475H55.7704V17.8105H55.9341V17.7713H55.9739V17.7343H56.0978V17.6951H56.1795V17.6581H56.2216V17.6189H56.3432V17.5797H56.3852V17.5427H56.425V17.5035H56.5068V17.4665H56.5488V17.4272H56.6307V17.3902H56.6704V17.351H56.7125V17.2378H56.6704V17.1986H56.6307V17.1224H56.5886V17.0461H56.5488V17.0069H56.5068V16.9699H56.4671V16.9307H56.425V16.8545H56.3852V16.8175H56.3432V16.7413H56.3035V16.6651H56.2614V16.6258H56.2216V16.5496H56.0978V16.5888H56.0556V16.6258H56.0159V16.6651H55.9739V16.7021H55.892V16.7413H55.8102V16.7783H55.7284V16.8175H55.6466V16.8545H55.5648V16.8937H55.4408V16.9307H55.3591V16.9699H55.1955V17.0069H54.9103V17.0461H54.4988V17.0069H54.2136V16.9699H54.0898V16.9307H54.008V16.8937H53.884V16.8545H53.8443V16.8175H53.7625V16.7783H53.7204V16.7413H53.6807V16.7021H53.6387V16.6651H53.5989V16.6258H53.5568V16.5888H53.5171V16.5496H53.475V16.4734H53.4352V16.3972H53.3932V16.3602H53.3511V16.2818H53.3113V16.1685H53.2693V16.0531H53.2296V15.9007H56.9579V15.7091H57V15.2909H56.9579V14.9839H56.9159V14.7552H56.8762V14.642H56.8341V14.5266H56.7943V14.3742H56.7522V14.3371H56.7125V14.2217H56.6704V14.1825H56.6307V14.0693H56.5886V14.0301H56.5488V13.9538H56.5068V13.9168H56.4671V13.8776H56.425V13.8014H56.3852V13.7644H56.3432V13.7252H56.3035V13.686H56.2614V13.649H56.2216V13.6098H56.1795V13.5728H56.1375V13.5335H56.0978V13.4965H56.0556V13.4573H56.0159V13.4203H55.9341V13.3811H55.892V13.3441H55.8102V13.3049H55.7704V13.2679H55.6887V13.2287H55.6068V13.1917H55.5227V13.1524H55.4011V13.1154H55.3194V13.0762H55.1136V13.0392H54.9103V13H54.1716V13.0392Z" fill="white" fill-opacity="0.4"/>
    <path fill-rule="evenodd" clip-rule="evenodd" d="M41.2883 15.2147H41.3314V15.1385H41.377V14.9469H41.4202V14.8707H41.4658V14.7944H41.509V14.679H41.5546V14.642H41.6002V14.6028H41.6434V14.5266H41.689V14.4896H41.7321V14.4504H41.7777V14.4133H41.8209V14.3742H41.8665V14.3371H41.9553V14.2979H41.9984V14.2587H42.044V14.2217H42.1328V14.1825H42.2215V14.1455H42.3559V14.1063H42.399V14.0693H42.6222V14.0301H42.8884V13.9931H43.1117V14.0301H43.3322V14.0693H43.5985V14.1063H43.6441V14.1455H43.7785V14.1825H43.8673V14.2217H43.9104V14.2587H43.9992V14.2979H44.0448V14.3371H44.1336V14.3742H44.1767V14.4133H44.2223V14.4504H44.2654V14.4896H44.3111V14.5658H44.3542V14.6028H44.3999V14.642H44.4429V14.7182H44.4887V14.7944H44.5317V14.8707H44.5774V14.9469H44.623V15.0993H44.6661V15.8636H44.623V16.0161H44.5774V16.0923H44.5317V16.2056H44.4887V16.2447H44.4429V16.321H44.3999V16.3972H44.3542V16.4364H44.3111V16.5126H44.2223V16.5496H44.1767V16.5888H44.1336V16.6258H44.088V16.6651H44.0448V16.7021H43.9561V16.7413H43.9104V16.7783H43.8217V16.8175H43.7329V16.8545H43.6441V16.8937H43.5098V16.9307H43.3779V16.9699H42.6222V16.9307H42.4877V16.8937H42.3103V16.8545H42.2672V16.8175H42.1328V16.7783H42.0871V16.7413H41.9984V16.7021H41.9096V16.6258H41.8209V16.5888H41.7777V16.5496H41.7321V16.5126H41.689V16.4364H41.6434V16.3972H41.6002V16.321H41.5546V16.2818H41.509V16.2056H41.4658V16.0923H41.4202V16.0531H41.377V15.8636H41.3314V15.7482H41.2883V15.2147ZM42.5765 13.0392H42.3103V13.0762H42.0871V13.1154H41.9984V13.1524H41.8209V13.1917H41.7321V13.2287H41.6434V13.2679H41.509V13.3049H41.4658V13.3441H41.377V13.3811H41.3314V13.4203H41.2427V13.4573H41.1995V13.4965H41.1107V13.5335H41.0651V13.5728H41.022V13.6098H40.9764V13.649H40.9332V13.686H40.8445V13.7252H40.7988V13.7644H40.7558V13.8406H40.7101V13.8776H40.6644V13.9168H40.6213V13.9538H40.5757V13.9931H40.5326V14.0693H40.4869V14.1063H40.4439V14.1825H40.3982V14.2587H40.3551V14.3371H40.3094V14.4133H40.2664V14.4504H40.2206V14.5658H40.1776V14.679H40.1319V14.7944H40.0888V14.9839H40.0432V15.1756H40V15.8244H40.0432V16.0161H40.0888V16.1685H40.1319V16.321H40.1776V16.3972H40.2206V16.5126H40.2664V16.5888H40.3094V16.6651H40.3551V16.7413H40.3982V16.8175H40.4439V16.8937H40.4869V16.9307H40.5326V16.9699H40.5757V17.0461H40.6213V17.0854H40.6644V17.1224H40.7101V17.1616H40.7558V17.1986H40.7988V17.2378H40.8445V17.2748H40.8876V17.314H40.9332V17.351H40.9764V17.3902H41.022V17.4272H41.0651V17.4665H41.1539V17.5035H41.1995V17.5427H41.2883V17.5797H41.3314V17.6189H41.4202V17.6581H41.4658V17.6951H41.5546V17.7343H41.689V17.7713H41.7321V17.8105H41.9096V17.8475H41.9984V17.8868H42.1758V17.9238H42.4447V18H43.5098V17.963H43.5554V17.9238H43.8217V17.8868H43.9992V17.8475H44.088V17.8105H44.2223V17.7713H44.3111V17.7343H44.3999V17.6951H44.5317V17.6581H44.5774V17.6189H44.6661V17.5797H44.7118V17.5427H44.8006V17.5035H44.8436V17.4665H44.8893V17.4272H44.9781V17.3902H45.0211V17.351H45.0668V17.314H45.1099V17.2748H45.1555V17.2378H45.1986V17.1986H45.2443V17.1616H45.29V17.1224H45.333V17.0854H45.3787V17.0069H45.4218V16.9699H45.4674V16.8937H45.5106V16.8545H45.5562V16.8175H45.5993V16.7021H45.6449V16.6651H45.6881V16.5888H45.7337V16.5126H45.7769V16.4364H45.8225V16.2818H45.8656V16.2056H45.9112V15.9769H45.9544V15.7874H46V15.1756H45.9544V15.0231H45.9112V14.7944H45.8656V14.7182H45.8225V14.5658H45.7769V14.4896H45.7337V14.4133H45.6881V14.3371H45.6449V14.2587H45.5993V14.1825H45.5562V14.1455H45.5106V14.0693H45.4674V14.0301H45.4218V13.9931H45.3787V13.9168H45.333V13.8776H45.29V13.8406H45.2443V13.8014H45.1986V13.7644H45.1555V13.7252H45.1099V13.686H45.0668V13.649H45.0211V13.6098H44.9781V13.5728H44.9324V13.5335H44.8436V13.4965H44.8006V13.4573H44.7548V13.4203H44.6661V13.3811H44.623V13.3441H44.4887V13.3049H44.4429V13.2679H44.3542V13.2287H44.2223V13.1917H44.1336V13.1524H43.9992V13.1154H43.9104V13.0762H43.6441V13.0392H43.421V13H42.5765V13.0392Z" fill="white" fill-opacity="0.4"/>
    <path fill-rule="evenodd" clip-rule="evenodd" d="M17.9554 3.03802H17.7395V3.07605H17.608V3.11196H17.4343V3.14998H17.3474V3.18589H17.2159V3.22392H17.129V3.25983H17.0869V3.29785H17V3.33376H16.9131V3.37178H16.8685V3.40769H16.8264V3.44571H16.737V3.48162H16.6948V3.55555H16.608V3.59358H16.5633V3.66751H16.5211V3.70554H16.4764V3.77947H16.4343V3.81538H16.3896V3.88932H16.3474V3.96324H16.3028V4.11111H16.2605V4.297H16.2159V4.7406H16.2605V4.92648H16.3028V5.03844H16.3474V5.11238H16.3896V5.18631H16.4343V5.22222H16.4764V5.29615H16.5211V5.33418H16.5633V5.37009H16.608V5.40811H16.6502V5.44402H16.6948V5.48204H16.737V5.51795H16.8264V5.55597H16.8685V5.594H16.9131V5.62991H17.0422V5.66793H17.0869V5.70384H17.1737V5.74186H17.3028V5.77777H17.3896V5.8158H17.5633V5.85171H17.6948V5.88973H17.9132V5.92564H18.1291V5.96367H18.5211V5.99958H18.9132V6.03759H19.0001V6.0735H19.2184V6.11153H19.3052V6.14955H19.392V6.18546H19.4789V6.22348H19.5211V6.25939H19.5658V6.29742H19.608V6.37135H19.6527V6.66708H19.608V6.74101H19.5658V6.77696H19.5211V6.81497H19.4789V6.85298H19.392V6.88889H19.3474V6.9269H19.2184V6.96281H19.1316V7.00082H18.8685V7.03673H18.6526V7.07474H18.1737V7.03673H17.9132V7.00082H17.608V6.96281H17.479V6.9269H17.3474V6.88889H17.1737V6.85298H17.0869V6.81497H17V6.77696H16.9554V6.74101H16.8264V6.70299H16.7817V6.66708H16.737V6.62906H16.6502V6.59315H16.608V6.55513H16.5633V6.59315H16.5211V6.62906H16.4764V6.70299H16.4343V6.77696H16.3896V6.85298H16.3474V6.88889H16.3028V6.96281H16.2605V7.03673H16.2159V7.07474H16.1738V7.14873H16.1291V7.18464H16.0869V7.25856H16.0422V7.29657H16V7.4085H16.0422V7.44441H16.1291V7.48249H16.1738V7.5184H16.2605V7.55641H16.3028V7.59232H16.4343V7.63033H16.5211V7.66624H16.5633V7.70425H16.6948V7.74016H16.7817V7.77817H16.9131V7.81408H17.0869V7.85209H17.1737V7.888H17.4343V7.92608H17.5633V7.96199H18V8H18.8263V7.96199H19.2184V7.92608H19.3474V7.888H19.5658V7.85209H19.6527V7.81408H19.7842V7.77817H19.9132V7.74016H19.9578V7.70425H20.0869V7.66624H20.1315V7.63033H20.2184V7.59232H20.2605V7.55641H20.3474V7.5184H20.392V7.48249H20.4343V7.44441H20.4789V7.4085H20.5211V7.37049H20.5658V7.33248H20.6104V7.29657H20.6527V7.25856H20.6973V7.18464H20.7395V7.14873H20.7841V7.07474H20.8263V7.00082H20.871V6.88889H20.9131V6.74101H20.9579V6.55513H21V6.25939H20.9579V6.11153H20.9131V5.96367H20.871V5.85171H20.8263V5.8158H20.7841V5.74186H20.7395V5.70384H20.6973V5.62991H20.6527V5.594H20.6104V5.55597H20.5658V5.51795H20.5211V5.48204H20.4343V5.44402H20.392V5.40811H20.3474V5.37009H20.2605V5.33418H20.1737V5.29615H20.0869V5.26024H20V5.22222H19.9132V5.18631H19.7842V5.14828H19.6948V5.11238H19.4789V5.07435H19.3052V5.03844H19.1316V5.00042H18.7817V4.96451H18.5658V4.92648H18.2159V4.89057H18.0422V4.85256H17.9132V4.81453H17.7816V4.77862H17.7395V4.7406H17.6526V4.70469H17.608V4.63075H17.5633V4.55682H17.5211V4.37094H17.5633V4.297H17.608V4.22307H17.6526V4.18504H17.6948V4.14913H17.7395V4.11111H17.7816V4.0752H17.8685V4.03718H17.9132V4.00127H18.0869V3.96324H18.3475V3.92733H18.8263V3.96324H19.1316V4.00127H19.3474V4.03718H19.4789V4.0752H19.6527V4.11111H19.7394V4.14913H19.871V4.18504H20V4.22307H20.0446V4.25898H20.1737V4.297H20.2184V4.33503H20.3053V4.297H20.3474V4.25898H20.392V4.18504H20.4343V4.11111H20.4789V4.03718H20.5211V4.00127H20.5658V3.88932H20.6104V3.85341H20.6527V3.77947H20.6973V3.70554H20.7395V3.66751H20.7841V3.59358H20.8263V3.48162H20.7841V3.44571H20.6973V3.40769H20.6527V3.37178H20.5658V3.33376H20.4789V3.29785H20.3474V3.25983H20.2605V3.22392H20.1315V3.18589H20V3.14998H19.871V3.11196H19.6948V3.07605H19.4789V3.03802H19.2184V3H17.9554V3.03802Z" fill="white" fill-opacity="0.4"/>
    <path fill-rule="evenodd" clip-rule="evenodd" d="M22.1615 2.59706H21V3.66176H21.0458V3.70145H21.135V3.66176H21.9832V3.70145H22.0265V3.66176H22.1615V6.48464H22.2074V6.64805H22.2506V6.81386H22.294V6.97727H22.3398V7.01696H22.3856V7.14077H22.429V7.22247H22.4748V7.26216H22.5181V7.34619H22.5639V7.38588H22.6073V7.42789H22.6531V7.46759H22.6965V7.50968H22.7423V7.54938H22.7856V7.59139H22.8314V7.63108H22.8747V7.67309H22.9639V7.71279H23.0097V7.7548H23.0988V7.79449H23.188V7.8365H23.2771V7.8762H23.4555V7.91821H23.5446V7.9579H23.8121V8H24.6169V7.9579H24.9736V7.91821H25.0627V7.8762H25.241V7.8365H25.2869V7.79449H25.4219V7.7548H25.5543V7.71279H25.6002V7.67309H25.7326V7.63108H25.7785V7.59139H25.8676V7.54938H25.9567V7.50968H26V7.34619H25.9567V7.26216H25.9109V7.18046H25.8676V7.14077H25.8217V7.01696H25.7785V6.97727H25.7326V6.85355H25.6893V6.77185H25.6434V6.73216H25.6002V6.60838H25.5543V6.56635H25.511V6.52666H25.4219V6.56635H25.376V6.60838H25.2869V6.64805H25.1977V6.69006H25.0627V6.73216H25.0194V6.77185H24.8844V6.81386H24.7061V6.85355H24.4387V6.89557H24.2604V6.85355H24.0821V6.81386H23.9037V6.77185H23.8579V6.73216H23.7687V6.69006H23.7229V6.64805H23.6796V6.56635H23.6338V6.52666H23.5904V6.44494H23.5446V6.32119H23.5013V6.23947H23.4555V3.70145H23.5013V3.66176H23.5904V3.70145H23.6338V3.66176H25.4652V3.70145H25.6002V3.66176H25.6434V3.61973H25.6893V2.7605H25.6434V2.7208H25.6893V2.63908H25.6434V2.59706H23.4555V1H22.1615V2.59706Z" fill="white" fill-opacity="0.4"/>
    <path fill-rule="evenodd" clip-rule="evenodd" d="M17.0439 13.0379H17V13.1159H17.0439V15.7731H17V15.8511H17.0439V16.3214H17.0877V16.4374H17.1292V16.5934H17.1706V16.7116H17.2145V16.7896H17.2584V16.9055H17.2999V16.9457H17.3437V17.0237H17.3851V17.1017H17.429V17.1418H17.4705V17.1797H17.5144V17.2199H17.5559V17.2979H17.5997V17.3358H17.6411V17.3759H17.685V17.4138H17.7265V17.4539H17.7704V17.4918H17.8556V17.5319H17.8996V17.5698H17.941V17.61H18.0263V17.6501H18.0702V17.688H18.1555V17.7281H18.2409V17.766H18.3262V17.8061H18.4529V17.844H18.5383V17.8841H18.7528V17.922H19.0088V18H19.9912V17.9621H20.0351V17.922H20.291V17.8841H20.4617V17.844H20.547V17.8061H20.6762V17.766H20.7616V17.7281H20.8469V17.688H20.9322V17.6501H20.9761V17.61H21.0614V17.5698H21.1029V17.5319H21.1882V17.4918H21.2321V17.4539H21.2735V17.4138H21.3174V17.3759H21.3589V17.3358H21.4027V17.2979H21.4441V17.2578H21.488V17.1797H21.5295V17.1418H21.5734V17.1017H21.6172V17.0237H21.6586V16.9835H21.7026V16.8676H21.744V16.8275H21.7879V16.7116H21.8294V16.6335H21.8732V16.4775H21.9146V16.3593H21.9585V16.0852H22V13.0379H21.9585V13H20.8055V13.0379H20.7616V16.0852H20.7176V16.2033H20.6762V16.3593H20.6324V16.3995H20.5909V16.4775H20.547V16.5555H20.5056V16.5934H20.4617V16.6335H20.4202V16.6714H20.3764V16.7116H20.335V16.7494H20.291V16.7896H20.1643V16.8275H20.1204V16.8676H19.9912V16.9055H19.8645V16.9457H19.138V16.9055H19.0526V16.8676H18.882V16.8275H18.8381V16.7896H18.7528V16.7494H18.6675V16.7116H18.6236V16.6714H18.5821V16.6335H18.5383V16.5934H18.4969V16.5154H18.4529V16.4775H18.4115V16.3995H18.3676V16.2813H18.3262V16.2033H18.2823V16.0071H18.2409V13.0379H18.197V13H17.0439V13.0379Z" fill="white" fill-opacity="0.4"/>
    <path fill-rule="evenodd" clip-rule="evenodd" d="M38.2872 3.03802H38.118V3.07605H37.9899V3.11196H37.8206V3.14998H37.7795V3.18589H37.6103V3.22392H37.5668V3.25983H37.4821V3.29785H37.3564V3.33376H37.3129V3.37178H37.2282V3.40769H37.1847V3.44571H37.1437V3.48162H37.059V3.51964H37.0155V3.55555H36.9743V3.59358H36.9308V3.6316H36.8898V3.66751H36.8463V3.70554H36.8051V3.74145H36.7616V3.77947H36.7206V3.81538H36.677V3.85341H36.6335V3.88932H36.5924V3.96324H36.5513V4.00127H36.5077V4.0752H36.4642V4.11111H36.4231V4.18504H36.3796V4.22307H36.3385V4.33503H36.295V4.40895H36.2539V4.48289H36.2104V4.59273H36.1693V4.66666H36.1257V4.85256H36.0847V4.96451H36.0411V5.33418H36V5.66793H36.0411V5.99958H36.0847V6.14955H36.1257V6.29742H36.1693V6.37135H36.2104V6.51921H36.2539V6.59315H36.295V6.66708H36.3385V6.74101H36.3796V6.81497H36.4231V6.88889H36.4642V6.9269H36.5077V7.00082H36.5513V7.03673H36.5924V7.07474H36.6335V7.14873H36.677V7.18464H36.7206V7.22265H36.7616V7.25856H36.8051V7.29657H36.8463V7.33248H36.8898V7.37049H36.9308V7.4085H36.9743V7.44441H37.059V7.48249H37.1002V7.5184H37.1437V7.55641H37.1847V7.59232H37.2694V7.63033H37.3564V7.66624H37.3975V7.70425H37.5256V7.74016H37.5668V7.77817H37.6949V7.81408H37.7795V7.85209H37.9052V7.888H38.0745V7.92608H38.1615V7.96199H38.5V8H39.3462V7.96199H39.6025V7.92608H39.7283V7.888H39.8975V7.85209H39.9821V7.81408H40.1102V7.77817H40.1949V7.74016H40.2795V7.70425H40.3641V7.66624H40.4076V7.63033H40.4923V7.59232H40.5769V7.55641H40.618V7.5184H40.6615V7.48249H40.7026V7.44441H40.7461V7.4085H40.7872V7.37049H40.8308V7.33248H40.8718V7.29657H40.9153V7.25856H41V7.22265H40.9564V7.18464H40.9153V7.14873H40.8718V7.11065H40.8308V7.07474H40.7872V7.03673H40.7461V6.96281H40.7026V6.9269H40.6615V6.88889H40.618V6.85298H40.5769V6.81497H40.5333V6.77696H40.4923V6.74101H40.4487V6.70299H40.4076V6.62906H40.3641V6.59315H40.3229V6.55513H40.2795V6.51921H40.2384V6.4812H40.1949V6.51921H40.1514V6.55513H40.0667V6.59315H40.0257V6.62906H39.9821V6.66708H39.941V6.70299H39.8563V6.74101H39.7718V6.77696H39.7283V6.81497H39.6025V6.85298H39.559V6.88889H39.4309V6.9269H39.2616V6.96281H38.9666V7.00082H38.7974V6.96281H38.5V6.9269H38.3307V6.88889H38.2462V6.85298H38.1615V6.81497H38.0745V6.77696H37.9899V6.74101H37.9488V6.70299H37.9052V6.66708H37.8641V6.62906H37.7795V6.59315H37.736V6.51921H37.6949V6.4812H37.6514V6.44528H37.6103V6.40726H37.5668V6.33333H37.5256V6.25939H37.4821V6.22348H37.441V6.11153H37.3975V5.99958H37.3564V5.88973H37.3129V5.14828H37.3564V4.96451H37.3975V4.89057H37.441V4.77862H37.4821V4.7406H37.5256V4.63075H37.5668V4.59273H37.6103V4.55682H37.6514V4.48289H37.6949V4.44486H37.736V4.40895H37.7795V4.37094H37.8206V4.33503H37.8641V4.297H37.9052V4.25898H37.9899V4.22307H38.0334V4.18504H38.118V4.14913H38.2027V4.11111H38.2872V4.0752H38.4565V4.03718H38.5846V4.00127H39.1769V4.03718H39.3051V4.0752H39.4744V4.11111H39.559V4.14913H39.6436V4.18504H39.7718V4.22307H39.8128V4.25898H39.8975V4.297H39.941V4.33503H39.9821V4.37094H40.0257V4.40895H40.0667V4.44486H40.1514V4.48289H40.2384V4.44486H40.2795V4.40895H40.3229V4.37094H40.3641V4.33503H40.4076V4.297H40.4487V4.22307H40.4923V4.18504H40.5333V4.14913H40.5769V4.11111H40.618V4.0752H40.6615V4.03718H40.7026V4.00127H40.7461V3.96324H40.7872V3.92733H40.8308V3.88932H40.8718V3.85341H40.9153V3.81538H40.9564V3.70554H40.9153V3.66751H40.8718V3.6316H40.8308V3.59358H40.7872V3.55555H40.7461V3.51964H40.7026V3.48162H40.618V3.44571H40.5769V3.40769H40.5333V3.37178H40.4487V3.33376H40.4076V3.29785H40.3229V3.25983H40.2384V3.22392H40.1514V3.18589H40.0257V3.14998H39.941V3.11196H39.8128V3.07605H39.6436V3.03802H39.4744V3H38.2872V3.03802Z" fill="white" fill-opacity="0.4"/>
    <path fill-rule="evenodd" clip-rule="evenodd" d="M14.0171 13.0392H13.8051V13.0762H13.5931V13.1154H13.5568V13.1524H13.4155V13.1917H13.3448V13.2287H13.2741V13.2679H13.1671V13.3049H13.1327V13.3441H13.0621V13.3811H13.0258V13.4203H12.9551V13.4573H12.8844V13.4965H12.8501V13.5335H12.8138V13.5728H12.7794V13.6098H12.7431V13.649H12.6724V13.7252H12.6018V13.8014H12.5674V13.8406H12.5311V13.8776H12.4947V13.9168H12.4604V13.9931H12.424V14.0301H12.3897V14.0693H12.3533V14.1455H12.319V14.2217H12.2827V14.2979H12.2483V14.4133H12.212V14.4504H12.1777V14.5658H12.1414V14.642H12.107V14.7944H12.0707V15.0231H12.0363V15.2147H12V15.7874H12.0363V15.9399H12.0707V16.1685H12.107V16.3602H12.1414V16.4364H12.1777V16.5496H12.212V16.5888H12.2483V16.7021H12.2827V16.7783H12.319V16.8175H12.3533V16.8937H12.3897V16.9307H12.424V17.0069H12.4604V17.0461H12.4947V17.1224H12.5311V17.1616H12.5674V17.1986H12.6018V17.2378H12.636V17.2748H12.6724V17.314H12.7087V17.351H12.7431V17.3902H12.7794V17.4272H12.8138V17.4665H12.8844V17.5035H12.9207V17.5427H12.9914V17.5797H13.0258V17.6189H13.0964V17.6581H13.1327V17.6951H13.2034V17.7343H13.2741V17.7713H13.3448V17.8105H13.4518V17.8475H13.5225V17.8868H13.6638V17.9238H13.9122V17.963H13.9465V18H14.7602V17.9238H14.9722V17.8868H15.1156V17.8475H15.1863V17.8105H15.2913V17.7713H15.3619V17.7343H15.4326V17.6951H15.5033V17.6581H15.5396V17.6189H15.6103V17.5797H15.6467V17.5427H15.7173V17.5035H15.7517V17.4665H15.788V17.4272H15.8587V17.3902H15.893V17.351H15.9293V17.314H15.9637V17.2748H16V17.1616H15.9293V17.0854H15.893V17.0461H15.8587V17.0069H15.8223V16.9699H15.788V16.9307H15.7517V16.8937H15.7173V16.8545H15.681V16.7783H15.6467V16.7413H15.6103V16.7021H15.5739V16.6651H15.5396V16.6258H15.5033V16.5888H15.4689V16.5496H15.4326V16.5126H15.3276V16.5496H15.2913V16.5888H15.2569V16.6258H15.1863V16.6651H15.15V16.7021H15.0793V16.7413H15.0429V16.7783H14.9722V16.8175H14.8673V16.8545H14.8309V16.8937H14.6895V16.9307H14.5845V16.9699H14.0536V16.9307H13.9465V16.8937H13.8051V16.8545H13.7708V16.8175H13.6638V16.7783H13.6275V16.7413H13.5931V16.7021H13.5225V16.6651H13.4862V16.6258H13.4518V16.5888H13.4155V16.5496H13.3812V16.5126H13.3448V16.4734H13.3105V16.4364H13.2741V16.3602H13.2398V16.2818H13.2034V16.2056H13.1671V16.1293H13.1327V16.0531H13.0964V15.8244H13.0621V15.672H13.0258V15.2909H13.0621V15.1385H13.0964V14.9469H13.1327V14.8707H13.1671V14.7552H13.2034V14.7182H13.2398V14.642H13.2741V14.5658H13.3105V14.5266H13.3448V14.4896H13.3812V14.4504H13.4155V14.4133H13.4518V14.3371H13.5225V14.2979H13.5568V14.2587H13.6275V14.2217H13.6638V14.1825H13.7345V14.1455H13.8395V14.1063H13.8758V14.0693H14.0536V14.0301H14.2292V13.9931H14.4069V14.0301H14.5845V14.0693H14.7602V14.1063H14.8309V14.1455H14.9379V14.1825H15.0086V14.2217H15.0429V14.2587H15.1156V14.2979H15.15V14.3371H15.1863V14.3742H15.2569V14.4133H15.2913V14.4504H15.3276V14.4896H15.3983V14.4504H15.4326V14.4133H15.4689V14.3742H15.5033V14.3371H15.5396V14.2979H15.5739V14.2587H15.6103V14.2217H15.6467V14.1825H15.681V14.1455H15.7173V14.1063H15.7517V14.0693H15.788V14.0301H15.8223V13.9931H15.8587V13.9168H15.893V13.8776H15.9293V13.8406H15.9637V13.8014H16V13.7252H15.9637V13.686H15.9293V13.649H15.893V13.6098H15.8587V13.5728H15.8223V13.5335H15.7517V13.4965H15.7173V13.4573H15.681V13.4203H15.6467V13.3811H15.5739V13.3441H15.5033V13.3049H15.4689V13.2679H15.3619V13.2287H15.3276V13.1917H15.2569V13.1524H15.1156V13.1154H15.0429V13.0762H14.8673V13.0392H14.6552V13H14.0171V13.0392Z" fill="white" fill-opacity="0.4"/>
    <path fill-rule="evenodd" clip-rule="evenodd" d="M34.4549 3.0389H34.2735V3.07779H34.1827V3.11452H34.0013V3.15342H33.9547V3.19015H33.8639V3.22905H33.7731V3.26578H33.7291V3.30467H33.6357V3.34141H33.5917V3.3803H33.5451V3.41703H33.501V3.45592H33.4543V3.49266H33.4103V3.53155H33.3636V3.56829H33.3195V3.11452H32V7.96327H32.0466V8H33.3195V7.96327H33.3636V4.895H33.4103V4.81937H33.4543V4.66812H33.501V4.62923H33.5451V4.5536H33.5917V4.47797H33.6357V4.44124H33.6825V4.36561H33.7291V4.32671H33.7731V4.28783H33.8199V4.25109H33.9105V4.2122H33.9547V4.17547H34.0453V4.13657H34.1361V4.09984H34.3175V4.06094H34.4549V4.02421H34.9553V4.06094H35.1368V4.09984H35.409V4.13657H35.4997V4.17547H35.5904V4.2122H35.6812V4.13657H35.7278V4.06094H35.7719V3.83407H35.8186V3.7217H35.8626V3.56829H35.9092V3.3803H35.9534V3.22905H36V3.11452H35.9092V3.07779H35.7719V3.0389H35.5904V3H34.4549V3.0389Z" fill="white" fill-opacity="0.4"/>
    <path fill-rule="evenodd" clip-rule="evenodd" d="M50.4728 3.0389H50.2908V3.07779H50.1575V3.11452H50.0217V3.15342H49.9782V3.19015H49.8424V3.22905H49.7988V3.26578H49.7527V3.30467H49.663V3.34141H49.6194V3.3803H49.5733V3.41703H49.5272V3.45592H49.4836V3.49266H49.4375V3.53155H49.3939V3.60718H49.3043V3.45592H49.3478V3.41703H49.3043V3.22905H49.3478V3.15342H49.3043V3.11452H48.0461V3.15342H48V3.22905H48.0461V7.81204H48V7.96327H48.0461V8H49.3478V5.12188H49.3939V4.8561H49.4375V4.78047H49.4836V4.66812H49.5272V4.59249H49.5733V4.51687H49.6194V4.44124H49.663V4.40234H49.7092V4.36561H49.7527V4.32671H49.7988V4.28783H49.8424V4.25109H49.8885V4.2122H49.9782V4.17547H50.0679V4.13657H50.1575V4.09984H50.337V4.06094H50.4728V4.02421H50.9647V4.06094H51.1441V4.09984H51.3696V4.13657H51.4592V4.17547H51.595V4.2122H51.6848V4.09984H51.7284V3.98531H51.7745V3.79732H51.818V3.68281H51.8642V3.49266H51.9103V3.30467H51.9538V3.22905H52V3.11452H51.9103V3.07779H51.7284V3.0389H51.5489V3H50.4728V3.0389Z" fill="white" fill-opacity="0.4"/>
    <path fill-rule="evenodd" clip-rule="evenodd" d="M25.6362 13.0401H25.4V13.078H25.1665V13.1181H25.1181V13.1559H24.9758V13.1961H24.8819V13.234H24.8362V13.2741H24.7422V13.312H24.6939V13.3521H24.6001V13.3899H24.5544V13.43H24.5061V13.4679H24.4604V13.508H24.4121V13.5459H24.3665V13.586H24.3181V13.4679H24.3665V13.1559H24.3181V13.1181H23.0483V13.1559H23V17.9598H23.0483V18H24.3181V17.9598H24.3665V14.914H24.4121V14.836H24.4604V14.7179H24.5061V14.602H24.5544V14.5619H24.6001V14.484H24.6484V14.4461H24.6939V14.3681H24.7422V14.3279H24.7879V14.2879H24.8819V14.25H24.9302V14.2099H25.0242V14.172H25.1181V14.1319H25.2121V14.094H25.4483V14.0539H26.0121V14.094H26.3423V14.1319H26.4362V14.172H26.5759V14.2099H26.718V14.094H26.7664V13.8979H26.812V13.7821H26.8603V13.586H26.906V13.4679H26.9543V13.2741H27V13.1559H26.9543V13.1181H26.906V13.078H26.6725V13.0401H26.4362V13H25.6362V13.0401Z" fill="white" fill-opacity="0.4"/>
    <path fill-rule="evenodd" clip-rule="evenodd" d="M58.3872 7.77783H58.4445V7.72386H58.4984V7.66674H58.5555V7.72386H58.6126V7.77783H58.6667V7.83495H58.3872V7.77783ZM58.2222 7.39049H58.2762V7.33337H58.3333V7.72386H58.2762V7.66674H58.2222V7.39049ZM58.4984 7.39049H58.5555V7.44446H58.6126V7.50158H58.4984V7.39049ZM58.3872 7.22229H58.7238V7.27941H58.7777V7.39049H58.8349V7.66674H58.7777V7.72386H58.7238V7.66674H58.6667V7.61278H58.7238V7.50158H58.7777V7.44446H58.7238V7.33337H58.6667V7.27941H58.3872V7.22229ZM58.4984 7.05724H58.3333V7.1112H58.2222V7.16832H58.1651V7.22229H58.1112V7.33337H58.0539V7.50158H58V7.61278H58.0539V7.72386H58.1112V7.83495H58.1651V7.88892H58.2222V7.94603H58.3333V8H58.7238V7.94603H58.8349V7.88892H58.8888V7.83495H58.946V7.77783H59V7.27941H58.946V7.22229H58.8888V7.16832H58.8349V7.1112H58.7238V7.05724H58.5555V7H58.4984V7.05724Z" fill="white" fill-opacity="0.4"/>
</svg>
