<svg width="40" height="39" viewBox="0 0 40 39" fill="none" xmlns="http://www.w3.org/2000/svg">
<g clip-path="url(#clip0_1998_6642)">
<path d="M26.0474 0.0234375C23.2101 0.0234375 20.6745 1.49407 20.6745 4.21118C20.6745 7.32719 25.1714 7.54242 25.1714 9.10781C25.1714 9.76694 24.4161 10.357 23.126 10.357C21.2951 10.357 19.9266 9.53252 19.9266 9.53252L19.3411 12.2744C19.3411 12.2744 20.9175 12.9708 23.0104 12.9708C26.1125 12.9708 28.5535 11.4279 28.5535 8.66437C28.5535 5.37174 24.0379 5.16291 24.0379 3.70996C24.0379 3.19364 24.6579 2.6279 25.9444 2.6279C27.3958 2.6279 28.58 3.22748 28.58 3.22748L29.1531 0.579305C29.1531 0.579305 27.8646 0.0234375 26.0474 0.0234375ZM0.0887222 0.2233L0.0200195 0.623025C0.0200195 0.623025 1.21368 0.841485 2.28877 1.27726C3.67303 1.77697 3.77164 2.06787 4.00478 2.97141L6.54521 12.7647H9.95068L15.1971 0.2233H11.7994L8.42829 8.75025L7.05268 1.52241C6.92652 0.695186 6.2875 0.2233 5.5053 0.2233H0.0887222ZM16.5633 0.2233L13.898 12.7647H17.1379L19.7939 0.2233H16.5633ZM34.6337 0.2233C33.8524 0.2233 33.4385 0.641579 33.1347 1.37251L28.388 12.7647H31.7856L32.443 10.866H36.5823L36.9821 12.7647H39.98L37.3646 0.2233H34.6337ZM35.0756 3.61159L36.0827 8.31773H33.3845L35.0756 3.61159Z" fill="#1434CB"/>
</g>
<g clip-path="url(#clip1_1998_6642)">
<path d="M24.8244 19.2031H15.1475V36.591H24.8244V19.2031Z" fill="#FF5F00"/>
<path d="M15.762 27.8954C15.762 24.3625 17.4209 21.229 19.9707 19.2014C18.0967 17.7268 15.7312 16.8359 13.1507 16.8359C7.03732 16.8359 2.09131 21.782 2.09131 27.8954C2.09131 34.0088 7.03732 38.9548 13.1507 38.9548C15.7312 38.9548 18.0967 38.0639 19.9707 36.5893C17.4209 34.5925 15.762 31.4282 15.762 27.8954Z" fill="#EB001B"/>
<path d="M37.8808 27.8954C37.8808 34.0088 32.9348 38.9548 26.8214 38.9548C24.2409 38.9548 21.8754 38.0639 20.0015 36.5893C22.582 34.5617 24.2102 31.4282 24.2102 27.8954C24.2102 24.3625 22.5513 21.229 20.0015 19.2014C21.8754 17.7268 24.2409 16.8359 26.8214 16.8359C32.9348 16.8359 37.8808 21.8127 37.8808 27.8954Z" fill="#F79E1B"/>
</g>
<defs>
<clipPath id="clip0_1998_6642">
<rect width="40" height="12.9873" fill="white"/>
</clipPath>
<clipPath id="clip1_1998_6642">
<rect width="35.7895" height="22.1188" fill="white" transform="translate(2.09131 16.8359)"/>
</clipPath>
</defs>
</svg>
