<svg xmlns="http://www.w3.org/2000/svg" width="21" height="12" viewBox="0 0 21 12" fill="none">
<path d="M5.0519 0H20.0948C20.3631 0 20.599 0.10683 20.7613 0.278759C20.9254 0.450689 21.0177 0.689387 20.9972 0.951454L20.2418 11.0485C20.2264 11.2455 20.1512 11.4291 20.0333 11.5827C20.0094 11.6328 19.9769 11.6778 19.9324 11.7162C19.9034 11.7413 19.8709 11.763 19.8367 11.778C19.6573 11.9165 19.4334 12 19.1976 12H4.15466C3.88634 12 3.65049 11.8932 3.48643 11.7212C3.32236 11.5493 3.23178 11.3106 3.25058 11.0485L3.46421 9.34928H4.21106L4.02648 10.6479L9.68509 5.48505L4.72889 1.28864L4.67933 1.94464H3.93077L4.00426 0.951454C4.02306 0.689387 4.15124 0.450689 4.34094 0.278759C4.53064 0.10683 4.78358 0 5.0519 0ZM0.374278 8.30936C0.167485 8.30936 0 8.14578 0 7.9438C0 7.74183 0.167485 7.57825 0.374278 7.57825H5.31167C5.51847 7.57825 5.68595 7.74183 5.68595 7.9438C5.68595 8.14578 5.51847 8.30936 5.31167 8.30936H0.374278ZM2.22516 6.0459C2.01837 6.0459 1.85088 5.88232 1.85088 5.68035C1.85088 5.47837 2.01837 5.31479 2.22516 5.31479H6.508C6.71479 5.31479 6.88227 5.47837 6.88227 5.68035C6.88227 5.88232 6.71479 6.0459 6.508 6.0459H2.22516ZM0.374278 3.78245C0.167485 3.78245 0 3.61886 0 3.41689C0 3.21491 0.167485 3.05133 0.374278 3.05133H5.31167C5.51847 3.05133 5.68595 3.21491 5.68595 3.41689C5.68595 3.61886 5.51847 3.78245 5.31167 3.78245H0.374278ZM10.232 5.94909L4.39905 11.2706H19.0164L14.2191 5.94909L12.4007 7.3746C12.2589 7.48644 12.0572 7.49311 11.9222 7.37961L10.232 5.94909ZM14.8241 5.4767L19.524 10.6897L20.2298 1.2419L14.8241 5.4767ZM5.24844 0.729448L12.2093 6.62345L19.7342 0.729448H5.24844Z" fill="var(--icon-color-stroke)"/>
</svg>