<svg xmlns="http://www.w3.org/2000/svg" width="14" height="11" viewBox="0 0 14 11" fill="none">
<path d="M0.931274 3C0.931274 2.37875 0.931274 2.06812 1.03271 1.82309C1.16797 1.49639 1.4274 1.23682 1.75393 1.10149C1.99884 1 2.3093 1 2.93023 1H10.9261C11.547 1 11.8574 1 12.1024 1.10149C12.4289 1.23682 12.6883 1.49639 12.8236 1.82309C12.925 2.06812 12.925 2.37875 12.925 3V8.33333C12.925 8.9546 12.925 9.2652 12.8236 9.51027C12.6883 9.83693 12.4289 10.0965 12.1024 10.2319C11.8574 10.3333 11.547 10.3333 10.9261 10.3333H2.93023C2.3093 10.3333 1.99884 10.3333 1.75393 10.2319C1.4274 10.0965 1.16797 9.83693 1.03271 9.51027C0.931274 9.2652 0.931274 8.9546 0.931274 8.33333V3Z" stroke="white" stroke-linejoin="round"/>
<path d="M1.5976 1.66797L6.05061 5.56637C6.55301 6.00624 7.30329 6.00624 7.80569 5.56637L12.2587 1.66797" stroke="white" stroke-linecap="round" stroke-linejoin="round"/>
</svg>