<svg width="12" height="12" viewBox="0 0 12 12" fill="none" xmlns="http://www.w3.org/2000/svg">
<path d="M11.0034 0.996598C10.3651 0.358479 9.49957 0 8.59704 0C7.69451 0 6.82893 0.358479 6.19068 0.996598L1.03229 6.15499C0.708656 6.46929 0.450742 6.8448 0.273541 7.25968C0.0963394 7.67456 0.00338786 8.12053 9.08964e-05 8.57165C-0.00320606 9.02278 0.0832174 9.47006 0.254336 9.88748C0.425454 10.3049 0.677853 10.6841 0.996854 11.0031C1.31586 11.3221 1.6951 11.5745 2.11252 11.7457C2.52994 11.9168 2.97722 12.0032 3.42835 11.9999C3.87947 11.9966 4.32544 11.9037 4.74032 11.7265C5.1552 11.5493 5.53071 11.2913 5.84501 10.9677L11.0034 5.80932C11.6415 5.17107 12 4.30549 12 3.40296C12 2.50043 11.6415 1.63485 11.0034 0.996598ZM4.90108 10.0304C4.50491 10.4049 3.98045 10.6135 3.43533 10.6135C2.8902 10.6135 2.36574 10.4049 1.96957 10.0304C1.58272 9.64069 1.36563 9.11381 1.36563 8.56468C1.36563 8.01554 1.58272 7.48866 1.96957 7.09892L4.08345 4.98504L7.01496 7.91655L4.90108 10.0304ZM10.0661 4.86539L7.95224 6.97927L5.02073 4.04776L7.13461 1.93388C7.52749 1.56583 8.04809 1.36496 8.58636 1.37374C9.12464 1.38252 9.63841 1.60025 10.0191 1.98092C10.3997 2.36159 10.6175 2.87536 10.6263 3.41364C10.635 3.95191 10.4342 4.47251 10.0661 4.86539Z" fill="white"/>
</svg>
