<svg width="68" height="26" viewBox="0 0 68 26" fill="none" xmlns="http://www.w3.org/2000/svg">
    <path d="M5.76463 12.5304L2.88231 15.3528L0 12.5304L2.88231 9.70793L5.76463 12.5304ZM12.7962 5.64488L17.7373 10.5144L20.6197 7.69192L15.6785 2.82244L12.7962 0L9.9139 2.82244L4.94111 7.69192L7.82342 10.5144L12.7962 5.64488ZM22.7101 9.70793L19.8278 12.5304L22.7101 15.3528L25.5924 12.5304L22.7101 9.70793ZM12.7962 19.3849L7.8551 14.5464L4.94111 17.3688L9.88224 22.2074L12.7646 25.0298L15.6469 22.2074L20.6197 17.3688L17.7373 14.5464L12.7962 19.3849ZM12.7962 15.3528L15.6785 12.5304L12.7962 9.70793L9.9139 12.5304L12.7962 15.3528Z" fill="white" fill-opacity="0.4"/>
    <path d="M40.6651 10.6538C40.6651 7.85518 38.6215 6.05469 35.387 6.05469H29.9102V19.7541H32.351V15.3508H35.1094C38.1653 15.3508 40.6651 13.7459 40.6651 10.6538ZM38.1852 10.7125C38.1852 12.1803 37.0342 13.1784 35.1883 13.1784H32.351V8.24659H35.1883C37.0142 8.24659 38.1852 9.08814 38.1852 10.7125Z" fill="white" fill-opacity="0.4"/>
    <path d="M48.9599 5.95312H46.6977L40.5859 19.7504H43.0867L44.5153 16.443H51.0833L52.492 19.7504H55.0716L48.9599 5.95312ZM50.1899 14.3098H45.4078L47.7889 8.83001L50.1899 14.3098Z" fill="white" fill-opacity="0.4"/>
    <path d="M61.8087 14.2939L67.3255 6.05469H64.5272L60.5987 12.1216L56.7092 6.05469H53.832L59.3479 14.3527V19.7541H61.8087V14.2939Z" fill="white" fill-opacity="0.4"/>
</svg>
