<svg xmlns="http://www.w3.org/2000/svg" width="20" height="17" viewBox="0 0 20 17" fill="none">
    <path d="M13.225 11.7465H12.6937V12.2778V14.1667V14.6979H13.225H17.025H17.5562V14.1667V12.2778V11.7465H17.025H13.225ZM19.3438 7.14236V16.0556C19.3438 16.1641 19.3004 16.2689 19.2222 16.3466C19.1439 16.4245 19.0371 16.4688 18.925 16.4688H1.825C1.71294 16.4688 1.60609 16.4245 1.5278 16.3466C1.44961 16.2689 1.40625 16.1641 1.40625 16.0556V7.14236H19.3438ZM19.3438 4.19097H1.40625V0.944444C1.40625 0.835867 1.44961 0.731104 1.5278 0.653372C1.60609 0.575535 1.71294 0.53125 1.825 0.53125H18.925C19.0371 0.53125 19.1439 0.575536 19.2222 0.653372C19.3004 0.731103 19.3438 0.835866 19.3438 0.944444V4.19097Z" fill="white" fill-opacity="0.2" stroke="white" stroke-width="1.0625"/>
</svg>