<svg width="77" height="21" viewBox="0 0 77 21" fill="none" xmlns="http://www.w3.org/2000/svg">
<g id="PayPal 2">
<path id="Vector" d="M28.6955 4.1875H24.4487C24.1581 4.1875 23.9109 4.39863 23.8656 4.68552L22.148 15.5754C22.1139 15.7903 22.2803 15.984 22.4982 15.984H24.5257C24.8163 15.984 25.0635 15.7729 25.1088 15.4854L25.572 12.5482C25.6167 12.2607 25.8645 12.0496 26.1545 12.0496H27.4989C30.2964 12.0496 31.9109 10.6959 32.3325 8.01329C32.5225 6.83966 32.3406 5.91752 31.791 5.27171C31.1874 4.56256 30.1169 4.1875 28.6955 4.1875ZM29.1854 8.1648C28.9532 9.68866 27.7889 9.68866 26.6631 9.68866H26.0222L26.4718 6.84276C26.4985 6.67075 26.6476 6.54407 26.8214 6.54407H27.1151C27.882 6.54407 28.6055 6.54407 28.9793 6.98124C29.2022 7.24204 29.2705 7.62953 29.1854 8.1648Z" fill="#253B80"/>
<path id="Vector_2" d="M41.3898 8.12095H39.3561C39.1828 8.12095 39.0332 8.24762 39.0065 8.41963L38.9165 8.98844L38.7742 8.78228C38.334 8.1433 37.3522 7.92969 36.3723 7.92969C34.1251 7.92969 32.2057 9.63176 31.8318 12.0194C31.6375 13.2104 31.9138 14.3493 32.5894 15.1435C33.2091 15.8737 34.0959 16.178 35.1509 16.178C36.9616 16.178 37.9657 15.0137 37.9657 15.0137L37.8751 15.5788C37.8409 15.7949 38.0074 15.9886 38.2241 15.9886H40.0559C40.3472 15.9886 40.5931 15.7775 40.639 15.49L41.7381 8.52954C41.7729 8.31531 41.6071 8.12095 41.3898 8.12095ZM38.555 12.079C38.3588 13.2408 37.4367 14.0208 36.2606 14.0208C35.67 14.0208 35.1981 13.8314 34.8951 13.4725C34.5945 13.116 34.4803 12.6087 34.5759 12.0436C34.7591 10.8917 35.6967 10.0863 36.8548 10.0863C37.4323 10.0863 37.9018 10.2782 38.211 10.6402C38.5209 11.006 38.6438 11.5164 38.555 12.079Z" fill="#253B80"/>
<path id="Vector_3" d="M52.2207 8.11719H50.1771C49.9821 8.11719 49.7989 8.21406 49.6884 8.37613L46.8698 12.5279L45.6751 8.5382C45.6 8.28858 45.3696 8.11719 45.1088 8.11719H43.1006C42.8565 8.11719 42.687 8.35564 42.7646 8.5854L45.0156 15.1913L42.8994 18.1787C42.733 18.4141 42.9006 18.7376 43.1881 18.7376H45.2292C45.423 18.7376 45.6043 18.6432 45.7142 18.4843L52.5113 8.67295C52.674 8.43823 52.507 8.11719 52.2207 8.11719Z" fill="#253B80"/>
<path id="Vector_4" d="M58.987 4.1875H54.7396C54.4496 4.1875 54.2024 4.39863 54.1571 4.68552L52.4395 15.5754C52.4054 15.7903 52.5718 15.984 52.7885 15.984H54.9681C55.1705 15.984 55.3438 15.8362 55.3754 15.635L55.8629 12.5482C55.9076 12.2607 56.1554 12.0496 56.4454 12.0496H57.7891C60.5872 12.0496 62.2011 10.6959 62.6234 8.01329C62.814 6.83966 62.6308 5.91752 62.0813 5.27171C61.4783 4.56256 60.4084 4.1875 58.987 4.1875ZM59.4769 8.1648C59.2453 9.68866 58.081 9.68866 56.9546 9.68866H56.3143L56.7645 6.84276C56.7913 6.67075 56.939 6.54407 57.1135 6.54407H57.4072C58.1735 6.54407 58.8976 6.54407 59.2714 6.98124C59.4943 7.24204 59.562 7.62953 59.4769 8.1648Z" fill="#179BD7"/>
<path id="Vector_5" d="M71.6806 8.12095H69.6481C69.4736 8.12095 69.3252 8.24762 69.2992 8.41963L69.2091 8.98844L69.0663 8.78228C68.626 8.1433 67.6449 7.92969 66.665 7.92969C64.4177 7.92969 62.4989 9.63176 62.1251 12.0194C61.9314 13.2104 62.2065 14.3493 62.8821 15.1435C63.503 15.8737 64.3885 16.178 65.4436 16.178C67.2543 16.178 68.2584 15.0137 68.2584 15.0137L68.1677 15.5788C68.1336 15.7949 68.3 15.9886 68.518 15.9886H70.3492C70.6392 15.9886 70.8863 15.7775 70.9317 15.49L72.0314 8.52954C72.0649 8.31531 71.8985 8.12095 71.6806 8.12095ZM68.8458 12.079C68.6509 13.2408 67.7275 14.0208 66.5514 14.0208C65.9621 14.0208 65.4889 13.8314 65.1859 13.4725C64.8853 13.116 64.7723 12.6087 64.8667 12.0436C65.0511 10.8917 65.9875 10.0863 67.1456 10.0863C67.7231 10.0863 68.1926 10.2782 68.5018 10.6402C68.8129 11.006 68.9359 11.5164 68.8458 12.079Z" fill="#179BD7"/>
<path id="Vector_6" d="M74.0786 4.48681L72.3355 15.5761C72.3014 15.7909 72.4678 15.9847 72.6845 15.9847H74.4369C74.7281 15.9847 74.9753 15.7735 75.02 15.486L76.7388 4.59672C76.773 4.38186 76.6065 4.1875 76.3898 4.1875H74.4276C74.2543 4.18812 74.1053 4.3148 74.0786 4.48681Z" fill="#179BD7"/>
<path id="Vector_7" d="M4.5118 18.1006L4.83656 16.0378L4.11314 16.021H0.658691L3.05935 0.799232C3.06681 0.75328 3.09102 0.710433 3.12642 0.680006C3.16181 0.649579 3.20714 0.632812 3.25434 0.632812H9.07902C11.0127 0.632812 12.3472 1.0352 13.0439 1.82942C13.3705 2.202 13.5786 2.59135 13.6791 3.01981C13.7847 3.46939 13.7866 4.00653 13.6835 4.66165L13.676 4.70947V5.12924L14.0027 5.31429C14.2778 5.46022 14.4963 5.62726 14.664 5.81852C14.9434 6.13707 15.1241 6.54194 15.2005 7.02195C15.2794 7.51562 15.2533 8.10306 15.1241 8.76811C14.9751 9.53315 14.7342 10.1994 14.4088 10.7447C14.1095 11.247 13.7282 11.6637 13.2755 11.9866C12.8433 12.2933 12.3298 12.5262 11.7492 12.6752C11.1866 12.8218 10.5451 12.8957 9.84157 12.8957H9.38826C9.06411 12.8957 8.74928 13.0124 8.50214 13.2217C8.25437 13.4353 8.09044 13.7272 8.04014 14.0463L8.00598 14.232L7.43221 17.8678L7.40613 18.0013C7.3993 18.0435 7.3875 18.0646 7.37011 18.0789C7.35459 18.0919 7.33223 18.1006 7.3105 18.1006H4.5118Z" fill="#253B80"/>
<path id="Vector_8" d="M14.3121 4.75781C14.2947 4.86897 14.2748 4.9826 14.2525 5.09934C13.4843 9.04311 10.8564 10.4055 7.50007 10.4055H5.79116C5.3807 10.4055 5.03482 10.7036 4.97087 11.1085L4.09592 16.6574L3.84816 18.2303C3.80655 18.4961 4.01147 18.7358 4.27973 18.7358H7.31067C7.66959 18.7358 7.97449 18.475 8.031 18.121L8.0608 17.967L8.63147 14.3456L8.66811 14.1468C8.724 13.7917 9.02951 13.5308 9.38843 13.5308H9.84174C12.7783 13.5308 15.0771 12.3386 15.749 8.88849C16.0297 7.44722 15.8844 6.24379 15.1417 5.39741C14.9169 5.14219 14.6381 4.93044 14.3121 4.75781Z" fill="#179BD7"/>
<path id="Vector_9" d="M13.5084 4.43977C13.391 4.40562 13.2699 4.37457 13.1457 4.34663C13.0209 4.3193 12.893 4.29509 12.7614 4.27397C12.3006 4.19946 11.7958 4.16406 11.2549 4.16406H6.68954C6.57715 4.16406 6.47034 4.18952 6.37471 4.23547C6.1642 4.33669 6.00772 4.53602 5.96984 4.78006L4.99865 10.9314L4.9707 11.1108C5.03466 10.706 5.38054 10.4079 5.791 10.4079H7.49991C10.8562 10.4079 13.4842 9.04487 14.2523 5.10172C14.2753 4.98498 14.2945 4.87134 14.3119 4.76019C14.1176 4.65711 13.9071 4.56893 13.6804 4.4938C13.6245 4.47517 13.5668 4.45716 13.5084 4.43977Z" fill="#222D65"/>
<path id="Vector_10" d="M5.96997 4.78083C6.00785 4.53679 6.16433 4.33746 6.37484 4.23686C6.47109 4.19091 6.57728 4.16545 6.68967 4.16545H11.255C11.7959 4.16545 12.3007 4.20085 12.7615 4.27536C12.8931 4.29648 13.0211 4.32069 13.1459 4.34802C13.2701 4.37596 13.3911 4.40701 13.5085 4.44116C13.5669 4.45855 13.6246 4.47656 13.6811 4.49457C13.9078 4.5697 14.1183 4.6585 14.3127 4.76096C14.5412 3.30355 14.3108 2.31124 13.5228 1.4127C12.6541 0.4235 11.0861 0 9.07977 0H3.2551C2.84526 0 2.49566 0.298065 2.43232 0.703557L0.00620273 16.0818C-0.0416117 16.3861 0.193114 16.6606 0.499871 16.6606H4.09589L4.99878 10.9321L5.96997 4.78083Z" fill="#253B80"/>
</g>
</svg>
