<svg width="20" height="20" viewBox="0 0 20 20" fill="none" xmlns="http://www.w3.org/2000/svg">
<path opacity="0.2" d="M14.7516 6.40625L10 10L5.25 6.4375C5.17238 6.37928 5.10938 6.30379 5.06598 6.21701C5.02259 6.13022 5 6.03453 5 5.9375V3.125C5 2.95924 5.06585 2.80027 5.18306 2.68306C5.30027 2.56585 5.45924 2.5 5.625 2.5H14.375C14.5408 2.5 14.6997 2.56585 14.8169 2.68306C14.9342 2.80027 15 2.95924 15 3.125V5.90937C14.9997 6.00574 14.9771 6.10074 14.934 6.18693C14.8909 6.27313 14.8285 6.34819 14.7516 6.40625ZM5 14.0625V16.875C5 17.0408 5.06585 17.1997 5.18306 17.3169C5.30027 17.4342 5.45924 17.5 5.625 17.5H14.375C14.5408 17.5 14.6997 17.4342 14.8169 17.3169C14.9342 17.1997 15 17.0408 15 16.875V14.0906C14.9999 13.994 14.9775 13.8987 14.9344 13.8122C14.8913 13.7257 14.8287 13.6504 14.7516 13.5922L10 10L5.25 13.5625C5.17238 13.6207 5.10938 13.6962 5.06598 13.783C5.02259 13.8698 5 13.9655 5 14.0625Z" fill="white" fill-opacity="0.6"/>
<path d="M15.625 5.90938V3.125C15.625 2.79348 15.4933 2.47554 15.2589 2.24112C15.0245 2.0067 14.7065 1.875 14.375 1.875H5.625C5.29348 1.875 4.97554 2.0067 4.74112 2.24112C4.5067 2.47554 4.375 2.79348 4.375 3.125V5.9375C4.37542 6.13148 4.42079 6.32273 4.50754 6.49623C4.59429 6.66973 4.72007 6.82077 4.875 6.9375L8.95859 10L4.875 13.0625C4.72007 13.1792 4.59429 13.3303 4.50754 13.5038C4.42079 13.6773 4.37542 13.8685 4.375 14.0625V16.875C4.375 17.2065 4.5067 17.5245 4.74112 17.7589C4.97554 17.9933 5.29348 18.125 5.625 18.125H14.375C14.7065 18.125 15.0245 17.9933 15.2589 17.7589C15.4933 17.5245 15.625 17.2065 15.625 16.875V14.0906C15.6246 13.8974 15.5796 13.7069 15.4935 13.5338C15.4075 13.3608 15.2827 13.2099 15.1289 13.093L11.0367 10L15.1289 6.90703C15.2827 6.79006 15.4075 6.6392 15.4935 6.46617C15.5796 6.29314 15.6246 6.10261 15.625 5.90938ZM14.375 16.875H5.625V14.0625L10 10.7812L14.375 14.0898V16.875ZM14.375 5.90938L10 9.21875L5.625 5.9375V3.125H14.375V5.90938Z" fill="white" fill-opacity="0.6"/>
</svg>
