<svg width="40" height="40" viewBox="0 0 40 40" fill="none" xmlns="http://www.w3.org/2000/svg">
<g clip-path="url(#clip0_1998_6688)">
<circle cx="20" cy="20" r="20" fill="#010101"/>
<path d="M40 20C40 31.0457 31.0457 40 20 40C8.9543 40 0 31.0457 0 20C0 8.9543 8.9543 0 20 0C31.0457 0 40 8.9543 40 20ZM2.32038 20C2.32038 29.7642 10.2358 37.6796 20 37.6796C29.7642 37.6796 37.6796 29.7642 37.6796 20C37.6796 10.2358 29.7642 2.32038 20 2.32038C10.2358 2.32038 2.32038 10.2358 2.32038 20Z" fill="#6DC72E"/>
<path d="M10.5795 25.877C10.5795 24.6934 10.9721 23.6094 11.7572 22.625C12.5307 21.6523 13.5561 20.7969 14.8334 20.0586C15.642 19.5898 16.2924 19.0859 16.7846 18.5469C17.2768 18.0078 17.5229 17.3926 17.5229 16.7012C17.5229 16.0684 17.2533 15.5527 16.7143 15.1543C16.1752 14.7441 15.5482 14.5391 14.8334 14.5391C14.0834 14.5391 13.4389 14.8027 12.8998 15.3301C12.3725 15.8457 12.1088 16.4785 12.1088 17.2285V18.002H10.685V17.2285C10.685 16.1152 11.0893 15.1719 11.8979 14.3984C12.7182 13.6133 13.6967 13.2207 14.8334 13.2207C15.935 13.2207 16.8959 13.5488 17.7162 14.2051C18.5365 14.8613 18.9467 15.6934 18.9467 16.7012C18.9467 17.5918 18.6479 18.4062 18.0502 19.1445C17.4643 19.8828 16.6967 20.5273 15.7475 21.0781L14.06 22.0449C13.017 22.6426 12.4076 23.4453 12.2318 24.4531H18.9467V25.877H10.5795ZM21.6706 21.4824H25.5378V15.9102L21.6706 21.4824ZM20.1237 22.748V21.4824L25.5378 13.4492H26.9616V21.4824H28.614V22.748H26.9616V26H25.5378V22.748H20.1237Z" fill="white"/>
<path d="M10.5795 25.877H10.3795V26.077H10.5795V25.877ZM11.7572 22.625L11.9136 22.7497L11.9138 22.7495L11.7572 22.625ZM14.8334 20.0586L14.9335 20.2318L14.9337 20.2316L14.8334 20.0586ZM16.7143 15.1543L16.5931 15.3135L16.5954 15.3151L16.7143 15.1543ZM12.8998 15.3301L13.0396 15.4731L13.0397 15.473L12.8998 15.3301ZM12.1088 18.002V18.202H12.3088V18.002H12.1088ZM10.685 18.002H10.485V18.202H10.685V18.002ZM11.8979 14.3984L12.0361 14.543L12.0361 14.5429L11.8979 14.3984ZM18.0502 19.1445L17.8947 19.0187L17.8935 19.0202L18.0502 19.1445ZM15.7475 21.0781L15.8469 21.2517L15.8478 21.2511L15.7475 21.0781ZM14.06 22.0449L13.9605 21.8714L13.9605 21.8714L14.06 22.0449ZM12.2318 24.4531L12.0348 24.4188L11.9939 24.6531H12.2318V24.4531ZM18.9467 24.4531H19.1467V24.2531H18.9467V24.4531ZM18.9467 25.877V26.077H19.1467V25.877H18.9467ZM10.7795 25.877C10.7795 24.7417 11.1548 23.7011 11.9136 22.7497L11.6009 22.5003C10.7894 23.5177 10.3795 24.645 10.3795 25.877H10.7795ZM11.9138 22.7495C12.669 21.7997 13.6739 20.9598 14.9335 20.2318L14.7333 19.8854C13.4383 20.634 12.3924 21.5049 11.6007 22.5005L11.9138 22.7495ZM14.9337 20.2316C15.7553 19.7554 16.4231 19.2394 16.9323 18.6817L16.6369 18.412C16.1617 18.9325 15.5287 19.4243 14.7331 19.8856L14.9337 20.2316ZM16.9323 18.6817C17.4561 18.1081 17.7229 17.4454 17.7229 16.7012H17.3229C17.3229 17.3397 17.0975 17.9076 16.6369 18.412L16.9323 18.6817ZM17.7229 16.7012C17.7229 16.0006 17.4197 15.427 16.8331 14.9935L16.5954 15.3151C17.087 15.6785 17.3229 16.1361 17.3229 16.7012H17.7229ZM16.8354 14.9951C16.2595 14.557 15.5894 14.3391 14.8334 14.3391V14.7391C15.5071 14.7391 16.0909 14.9313 16.5932 15.3135L16.8354 14.9951ZM14.8334 14.3391C14.0308 14.3391 13.3362 14.6234 12.76 15.1871L13.0397 15.473C13.5416 14.982 14.136 14.7391 14.8334 14.7391V14.3391ZM12.76 15.1871C12.1934 15.741 11.9088 16.4257 11.9088 17.2285H12.3088C12.3088 16.5313 12.5515 15.9504 13.0396 15.4731L12.76 15.1871ZM11.9088 17.2285V18.002H12.3088V17.2285H11.9088ZM12.1088 17.802H10.685V18.202H12.1088V17.802ZM10.885 18.002V17.2285H10.485V18.002H10.885ZM10.885 17.2285C10.885 16.1701 11.2667 15.2789 12.0361 14.543L11.7596 14.2539C10.9118 15.0649 10.485 16.0603 10.485 17.2285H10.885ZM12.0361 14.5429C12.8192 13.7934 13.7482 13.4207 14.8334 13.4207V13.0207C13.6452 13.0207 12.6171 13.4331 11.7596 14.254L12.0361 14.5429ZM14.8334 13.4207C15.8919 13.4207 16.8082 13.7348 17.5913 14.3613L17.8412 14.0489C16.9836 13.3628 15.978 13.0207 14.8334 13.0207V13.4207ZM17.5913 14.3613C18.3665 14.9814 18.7467 15.757 18.7467 16.7012H19.1467C19.1467 15.6297 18.7066 14.7412 17.8412 14.0489L17.5913 14.3613ZM18.7467 16.7012C18.7467 17.5428 18.4656 18.3135 17.8948 19.0187L18.2057 19.2704C18.8301 18.499 19.1467 17.6408 19.1467 16.7012H18.7467ZM17.8935 19.0202C17.3255 19.7359 16.5782 20.3649 15.6471 20.9051L15.8478 21.2511C16.8152 20.6898 17.603 20.0297 18.2069 19.2689L17.8935 19.0202ZM15.648 20.9046L13.9605 21.8714L14.1594 22.2185L15.8469 21.2517L15.648 20.9046ZM13.9605 21.8714C12.876 22.4929 12.2227 23.3418 12.0348 24.4188L12.4289 24.4875C12.5926 23.5488 13.158 22.7923 14.1594 22.2185L13.9605 21.8714ZM12.2318 24.6531H18.9467V24.2531H12.2318V24.6531ZM18.7467 24.4531V25.877H19.1467V24.4531H18.7467ZM18.9467 25.677H10.5795V26.077H18.9467V25.677ZM21.6706 21.4824L21.5063 21.3684L21.2883 21.6824H21.6706V21.4824ZM25.5378 21.4824V21.6824H25.7378V21.4824H25.5378ZM25.5378 15.9102H25.7378V15.2712L25.3735 15.7961L25.5378 15.9102ZM20.1237 22.748H19.9237V22.948H20.1237V22.748ZM20.1237 21.4824L19.9579 21.3706L19.9237 21.4213V21.4824H20.1237ZM25.5378 13.4492V13.2492H25.4314L25.3719 13.3374L25.5378 13.4492ZM26.9616 13.4492H27.1616V13.2492H26.9616V13.4492ZM26.9616 21.4824H26.7616V21.6824H26.9616V21.4824ZM28.614 21.4824H28.814V21.2824H28.614V21.4824ZM28.614 22.748V22.948H28.814V22.748H28.614ZM26.9616 22.748V22.548H26.7616V22.748H26.9616ZM26.9616 26V26.2H27.1616V26H26.9616ZM25.5378 26H25.3378V26.2H25.5378V26ZM25.5378 22.748H25.7378V22.548H25.5378V22.748ZM21.6706 21.6824H25.5378V21.2824H21.6706V21.6824ZM25.7378 21.4824V15.9102H25.3378V21.4824H25.7378ZM25.3735 15.7961L21.5063 21.3684L21.8349 21.5965L25.7021 16.0242L25.3735 15.7961ZM20.3237 22.748V21.4824H19.9237V22.748H20.3237ZM20.2896 21.5942L25.7036 13.561L25.3719 13.3374L19.9579 21.3706L20.2896 21.5942ZM25.5378 13.6492H26.9616V13.2492H25.5378V13.6492ZM26.7616 13.4492V21.4824H27.1616V13.4492H26.7616ZM26.9616 21.6824H28.614V21.2824H26.9616V21.6824ZM28.414 21.4824V22.748H28.814V21.4824H28.414ZM28.614 22.548H26.9616V22.948H28.614V22.548ZM26.7616 22.748V26H27.1616V22.748H26.7616ZM26.9616 25.8H25.5378V26.2H26.9616V25.8ZM25.7378 26V22.748H25.3378V26H25.7378ZM25.5378 22.548H20.1237V22.948H25.5378V22.548Z" fill="white"/>
</g>
<defs>
<clipPath id="clip0_1998_6688">
<rect width="40" height="40" fill="white"/>
</clipPath>
</defs>
</svg>
