<svg width="22" height="20" viewBox="0 0 22 20" fill="none" xmlns="http://www.w3.org/2000/svg">
<g clip-path="url(#clip0_3_6)">
<path d="M3.50129 4.99971H6.50107C6.99853 4.99971 7.00103 4.49725 7.00103 3.99978C7.00103 2.34305 8.34403 1 10.0008 1C11.6576 1 13.0006 2.34305 13.0006 3.99978C13.0006 4.49725 13.0031 4.99971 13.5006 4.99971H16.5003C17.0526 4.99971 17.0003 4.94743 17.0003 5.49967V8.49945C17.0003 8.99691 17.5027 8.99941 18.0002 8.99941C19.6569 8.99941 21 10.3424 21 11.9992C21 13.656 19.6569 14.999 18.0002 14.999C17.5027 14.999 17.0003 15.0015 17.0003 15.4989V18.4987C17.0003 19.051 17.0526 18.9987 16.5003 18.9987H3.50129C2.94903 18.9987 3.00133 19.051 3.00133 18.4987V15.4989C3.00133 15.0015 3.50379 14.999 4.00125 14.999C5.65803 14.999 7.00103 13.656 7.00103 11.9992C7.00103 10.3424 5.65803 8.99941 4.00125 8.99941C3.50379 8.99941 3.00133 8.99691 3.00133 8.49945V5.49967C3.00133 4.94743 2.94903 4.99971 3.50129 4.99971Z" stroke="var(--icon-color-stroke)" stroke-linecap="round" stroke-linejoin="round"/>
</g>
<line x1="0.335457" y1="0.629232" x2="21.3355" y2="19.6292" stroke="var(--icon-color-stroke)"/>
<defs>
<clipPath id="clip0_3_6">
<rect width="20" height="20" fill="var(--icon-color-stroke)" transform="translate(2)"/>
</clipPath>
</defs>
</svg>
