<svg width="20" height="20" viewBox="0 0 20 20" fill="none" xmlns="http://www.w3.org/2000/svg">
<path d="M1.50129 4.99971H4.50107C4.99853 4.99971 5.00103 4.49725 5.00103 3.99978C5.00103 2.34305 6.34403 1 8.00081 1C9.65759 1 11.0006 2.34305 11.0006 3.99978C11.0006 4.49725 11.0031 4.99971 11.5006 4.99971H14.5003C15.0526 4.99971 15.0003 4.94743 15.0003 5.49967V8.49945C15.0003 8.99691 15.5027 8.99941 16.0002 8.99941C17.6569 8.99941 19 10.3424 19 11.9992C19 13.656 17.6569 14.999 16.0002 14.999C15.5027 14.999 15.0003 15.0015 15.0003 15.4989V18.4987C15.0003 19.051 15.0526 18.9987 14.5003 18.9987H1.50129C0.949029 18.9987 1.00133 19.051 1.00133 18.4987V15.4989C1.00133 15.0015 1.50379 14.999 2.00125 14.999C3.65803 14.999 5.00103 13.656 5.00103 11.9992C5.00103 10.3424 3.65803 8.99941 2.00125 8.99941C1.50379 8.99941 1.00133 8.99691 1.00133 8.49945V5.49967C1.00133 4.94743 0.949029 4.99971 1.50129 4.99971Z" stroke="var(--icon-color-stroke)" stroke-linecap="round" stroke-linejoin="round"/>
</svg>
