<svg width="88" height="88" viewBox="0 0 88 88" fill="none" xmlns="http://www.w3.org/2000/svg">
<g id="Group">
<path id="Vector" d="M3.52 0H0V3.52H3.52V0Z" fill="white"/>
<path id="Vector_2" d="M3.52 3.52344H0V7.04344H3.52V3.52344Z" fill="white"/>
<path id="Vector_3" d="M3.52 7.03906H0V10.5591H3.52V7.03906Z" fill="white"/>
<path id="Vector_4" d="M3.52 10.5625H0V14.0825H3.52V10.5625Z" fill="white"/>
<path id="Vector_5" d="M3.52 14.0781H0V17.5981H3.52V14.0781Z" fill="white"/>
<path id="Vector_6" d="M3.52 17.6016H0V21.1216H3.52V17.6016Z" fill="white"/>
<path id="Vector_7" d="M3.52 21.1172H0V24.6372H3.52V21.1172Z" fill="white"/>
<path id="Vector_8" d="M3.52 28.1562H0V31.6762H3.52V28.1562Z" fill="white"/>
<path id="Vector_9" d="M3.52 31.6797H0V35.1997H3.52V31.6797Z" fill="white"/>
<path id="Vector_10" d="M3.52 35.2031H0V38.7231H3.52V35.2031Z" fill="white"/>
<path id="Vector_11" d="M3.52 38.7188H0V42.2387H3.52V38.7188Z" fill="white"/>
<path id="Vector_12" d="M3.52 63.3594H0V66.8794H3.52V63.3594Z" fill="white"/>
<path id="Vector_13" d="M3.52 66.8828H0V70.4028H3.52V66.8828Z" fill="white"/>
<path id="Vector_14" d="M3.52 70.3984H0V73.9184H3.52V70.3984Z" fill="white"/>
<path id="Vector_15" d="M3.52 73.9219H0V77.4419H3.52V73.9219Z" fill="white"/>
<path id="Vector_16" d="M3.52 77.4375H0V80.9575H3.52V77.4375Z" fill="white"/>
<path id="Vector_17" d="M3.52 80.9609H0V84.4809H3.52V80.9609Z" fill="white"/>
<path id="Vector_18" d="M3.52 84.4766H0V87.9966H3.52V84.4766Z" fill="white"/>
<path id="Vector_19" d="M7.04002 0H3.52002V3.52H7.04002V0Z" fill="white"/>
<path id="Vector_20" d="M7.04002 21.1172H3.52002V24.6372H7.04002V21.1172Z" fill="white"/>
<path id="Vector_21" d="M7.04002 28.1562H3.52002V31.6762H7.04002V28.1562Z" fill="white"/>
<path id="Vector_22" d="M7.04002 31.6797H3.52002V35.1997H7.04002V31.6797Z" fill="white"/>
<path id="Vector_23" d="M7.04002 38.7188H3.52002V42.2387H7.04002V38.7188Z" fill="white"/>
<path id="Vector_24" d="M7.04002 45.7578H3.52002V49.2778H7.04002V45.7578Z" fill="white"/>
<path id="Vector_25" d="M7.04002 52.7969H3.52002V56.3169H7.04002V52.7969Z" fill="white"/>
<path id="Vector_26" d="M7.04002 56.3203H3.52002V59.8403H7.04002V56.3203Z" fill="white"/>
<path id="Vector_27" d="M7.04002 63.3594H3.52002V66.8794H7.04002V63.3594Z" fill="white"/>
<path id="Vector_28" d="M7.04002 84.4766H3.52002V87.9966H7.04002V84.4766Z" fill="white"/>
<path id="Vector_29" d="M10.56 0H7.04004V3.52H10.56V0Z" fill="white"/>
<path id="Vector_30" d="M10.56 7.03906H7.04004V10.5591H10.56V7.03906Z" fill="white"/>
<path id="Vector_31" d="M10.56 10.5625H7.04004V14.0825H10.56V10.5625Z" fill="white"/>
<path id="Vector_32" d="M10.56 14.0781H7.04004V17.5981H10.56V14.0781Z" fill="white"/>
<path id="Vector_33" d="M10.56 21.1172H7.04004V24.6372H10.56V21.1172Z" fill="white"/>
<path id="Vector_34" d="M10.56 31.6797H7.04004V35.1997H10.56V31.6797Z" fill="white"/>
<path id="Vector_35" d="M10.56 45.7578H7.04004V49.2778H10.56V45.7578Z" fill="white"/>
<path id="Vector_36" d="M10.56 63.3594H7.04004V66.8794H10.56V63.3594Z" fill="white"/>
<path id="Vector_37" d="M10.56 70.3984H7.04004V73.9184H10.56V70.3984Z" fill="white"/>
<path id="Vector_38" d="M10.56 73.9219H7.04004V77.4419H10.56V73.9219Z" fill="white"/>
<path id="Vector_39" d="M10.56 77.4375H7.04004V80.9575H10.56V77.4375Z" fill="white"/>
<path id="Vector_40" d="M10.56 84.4766H7.04004V87.9966H10.56V84.4766Z" fill="white"/>
<path id="Vector_41" d="M14.0801 0H10.5601V3.52H14.0801V0Z" fill="white"/>
<path id="Vector_42" d="M14.0801 7.03906H10.5601V10.5591H14.0801V7.03906Z" fill="white"/>
<path id="Vector_43" d="M14.0801 10.5625H10.5601V14.0825H14.0801V10.5625Z" fill="white"/>
<path id="Vector_44" d="M14.0801 14.0781H10.5601V17.5981H14.0801V14.0781Z" fill="white"/>
<path id="Vector_45" d="M14.0801 21.1172H10.5601V24.6372H14.0801V21.1172Z" fill="white"/>
<path id="Vector_46" d="M14.0801 28.1562H10.5601V31.6762H14.0801V28.1562Z" fill="white"/>
<path id="Vector_47" d="M14.0801 35.2031H10.5601V38.7231H14.0801V35.2031Z" fill="white"/>
<path id="Vector_48" d="M14.0801 45.7578H10.5601V49.2778H14.0801V45.7578Z" fill="white"/>
<path id="Vector_49" d="M14.0801 52.7969H10.5601V56.3169H14.0801V52.7969Z" fill="white"/>
<path id="Vector_50" d="M14.0801 63.3594H10.5601V66.8794H14.0801V63.3594Z" fill="white"/>
<path id="Vector_51" d="M14.0801 70.3984H10.5601V73.9184H14.0801V70.3984Z" fill="white"/>
<path id="Vector_52" d="M14.0801 73.9219H10.5601V77.4419H14.0801V73.9219Z" fill="white"/>
<path id="Vector_53" d="M14.0801 77.4375H10.5601V80.9575H14.0801V77.4375Z" fill="white"/>
<path id="Vector_54" d="M14.0801 84.4766H10.5601V87.9966H14.0801V84.4766Z" fill="white"/>
<path id="Vector_55" d="M17.6001 0H14.0801V3.52H17.6001V0Z" fill="white"/>
<path id="Vector_56" d="M17.6001 7.03906H14.0801V10.5591H17.6001V7.03906Z" fill="white"/>
<path id="Vector_57" d="M17.6001 10.5625H14.0801V14.0825H17.6001V10.5625Z" fill="white"/>
<path id="Vector_58" d="M17.6001 14.0781H14.0801V17.5981H17.6001V14.0781Z" fill="white"/>
<path id="Vector_59" d="M17.6001 21.1172H14.0801V24.6372H17.6001V21.1172Z" fill="white"/>
<path id="Vector_60" d="M17.6001 28.1562H14.0801V31.6762H17.6001V28.1562Z" fill="white"/>
<path id="Vector_61" d="M17.6001 38.7188H14.0801V42.2387H17.6001V38.7188Z" fill="white"/>
<path id="Vector_62" d="M17.6001 45.7578H14.0801V49.2778H17.6001V45.7578Z" fill="white"/>
<path id="Vector_63" d="M17.6001 56.3203H14.0801V59.8403H17.6001V56.3203Z" fill="white"/>
<path id="Vector_64" d="M17.6001 63.3594H14.0801V66.8794H17.6001V63.3594Z" fill="white"/>
<path id="Vector_65" d="M17.6001 70.3984H14.0801V73.9184H17.6001V70.3984Z" fill="white"/>
<path id="Vector_66" d="M17.6001 73.9219H14.0801V77.4419H17.6001V73.9219Z" fill="white"/>
<path id="Vector_67" d="M17.6001 77.4375H14.0801V80.9575H17.6001V77.4375Z" fill="white"/>
<path id="Vector_68" d="M17.6001 84.4766H14.0801V87.9966H17.6001V84.4766Z" fill="white"/>
<path id="Vector_69" d="M21.1201 0H17.6001V3.52H21.1201V0Z" fill="white"/>
<path id="Vector_70" d="M21.1201 21.1172H17.6001V24.6372H21.1201V21.1172Z" fill="white"/>
<path id="Vector_71" d="M21.1201 31.6797H17.6001V35.1997H21.1201V31.6797Z" fill="white"/>
<path id="Vector_72" d="M21.1201 38.7188H17.6001V42.2387H21.1201V38.7188Z" fill="white"/>
<path id="Vector_73" d="M21.1201 42.2422H17.6001V45.7622H21.1201V42.2422Z" fill="white"/>
<path id="Vector_74" d="M21.1201 45.7578H17.6001V49.2778H21.1201V45.7578Z" fill="white"/>
<path id="Vector_75" d="M21.1201 63.3594H17.6001V66.8794H21.1201V63.3594Z" fill="white"/>
<path id="Vector_76" d="M21.1201 84.4766H17.6001V87.9966H21.1201V84.4766Z" fill="white"/>
<path id="Vector_77" d="M24.6401 0H21.1201V3.52H24.6401V0Z" fill="white"/>
<path id="Vector_78" d="M24.6401 3.52344H21.1201V7.04344H24.6401V3.52344Z" fill="white"/>
<path id="Vector_79" d="M24.6401 7.03906H21.1201V10.5591H24.6401V7.03906Z" fill="white"/>
<path id="Vector_80" d="M24.6401 10.5625H21.1201V14.0825H24.6401V10.5625Z" fill="white"/>
<path id="Vector_81" d="M24.6401 14.0781H21.1201V17.5981H24.6401V14.0781Z" fill="white"/>
<path id="Vector_82" d="M24.6401 17.6016H21.1201V21.1216H24.6401V17.6016Z" fill="white"/>
<path id="Vector_83" d="M24.6401 21.1172H21.1201V24.6372H24.6401V21.1172Z" fill="white"/>
<path id="Vector_84" d="M24.6401 28.1562H21.1201V31.6762H24.6401V28.1562Z" fill="white"/>
<path id="Vector_85" d="M24.6401 35.2031H21.1201V38.7231H24.6401V35.2031Z" fill="white"/>
<path id="Vector_86" d="M24.6401 42.2422H21.1201V45.7622H24.6401V42.2422Z" fill="white"/>
<path id="Vector_87" d="M24.6401 49.2812H21.1201V52.8012H24.6401V49.2812Z" fill="white"/>
<path id="Vector_88" d="M24.6401 56.3203H21.1201V59.8403H24.6401V56.3203Z" fill="white"/>
<path id="Vector_89" d="M24.6401 63.3594H21.1201V66.8794H24.6401V63.3594Z" fill="white"/>
<path id="Vector_90" d="M24.6401 66.8828H21.1201V70.4028H24.6401V66.8828Z" fill="white"/>
<path id="Vector_91" d="M24.6401 70.3984H21.1201V73.9184H24.6401V70.3984Z" fill="white"/>
<path id="Vector_92" d="M24.6401 73.9219H21.1201V77.4419H24.6401V73.9219Z" fill="white"/>
<path id="Vector_93" d="M24.6401 77.4375H21.1201V80.9575H24.6401V77.4375Z" fill="white"/>
<path id="Vector_94" d="M24.6401 80.9609H21.1201V84.4809H24.6401V80.9609Z" fill="white"/>
<path id="Vector_95" d="M24.6401 84.4766H21.1201V87.9966H24.6401V84.4766Z" fill="white"/>
<path id="Vector_96" d="M28.1601 31.6797H24.6401V35.1997H28.1601V31.6797Z" fill="white"/>
<path id="Vector_97" d="M28.1601 35.2031H24.6401V38.7231H28.1601V35.2031Z" fill="white"/>
<path id="Vector_98" d="M28.1601 49.2812H24.6401V52.8012H28.1601V49.2812Z" fill="white"/>
<path id="Vector_99" d="M28.1601 52.7969H24.6401V56.3169H28.1601V52.7969Z" fill="white"/>
<path id="Vector_100" d="M31.6802 0H28.1602V3.52H31.6802V0Z" fill="white"/>
<path id="Vector_101" d="M31.6802 21.1172H28.1602V24.6372H31.6802V21.1172Z" fill="white"/>
<path id="Vector_102" d="M31.6802 24.6406H28.1602V28.1606H31.6802V24.6406Z" fill="white"/>
<path id="Vector_103" d="M31.6802 38.7188H28.1602V42.2387H31.6802V38.7188Z" fill="white"/>
<path id="Vector_104" d="M31.6802 42.2422H28.1602V45.7622H31.6802V42.2422Z" fill="white"/>
<path id="Vector_105" d="M31.6802 45.7578H28.1602V49.2778H31.6802V45.7578Z" fill="white"/>
<path id="Vector_106" d="M31.6802 52.7969H28.1602V56.3169H31.6802V52.7969Z" fill="white"/>
<path id="Vector_107" d="M31.6802 59.8438H28.1602V63.3637H31.6802V59.8438Z" fill="white"/>
<path id="Vector_108" d="M31.6802 70.3984H28.1602V73.9184H31.6802V70.3984Z" fill="white"/>
<path id="Vector_109" d="M31.6802 73.9219H28.1602V77.4419H31.6802V73.9219Z" fill="white"/>
<path id="Vector_110" d="M31.6802 80.9609H28.1602V84.4809H31.6802V80.9609Z" fill="white"/>
<path id="Vector_111" d="M31.6802 84.4766H28.1602V87.9966H31.6802V84.4766Z" fill="white"/>
<path id="Vector_112" d="M35.2002 3.52344H31.6802V7.04344H35.2002V3.52344Z" fill="white"/>
<path id="Vector_113" d="M35.2002 14.0781H31.6802V17.5981H35.2002V14.0781Z" fill="white"/>
<path id="Vector_114" d="M35.2002 28.1562H31.6802V31.6762H35.2002V28.1562Z" fill="white"/>
<path id="Vector_115" d="M35.2002 31.6797H31.6802V35.1997H35.2002V31.6797Z" fill="white"/>
<path id="Vector_116" d="M35.2002 38.7188H31.6802V42.2387H35.2002V38.7188Z" fill="white"/>
<path id="Vector_117" d="M35.2002 42.2422H31.6802V45.7622H35.2002V42.2422Z" fill="white"/>
<path id="Vector_118" d="M35.2002 45.7578H31.6802V49.2778H35.2002V45.7578Z" fill="white"/>
<path id="Vector_119" d="M35.2002 49.2812H31.6802V52.8012H35.2002V49.2812Z" fill="white"/>
<path id="Vector_120" d="M35.2002 56.3203H31.6802V59.8403H35.2002V56.3203Z" fill="white"/>
<path id="Vector_121" d="M35.2002 59.8438H31.6802V63.3637H35.2002V59.8438Z" fill="white"/>
<path id="Vector_122" d="M35.2002 63.3594H31.6802V66.8794H35.2002V63.3594Z" fill="white"/>
<path id="Vector_123" d="M38.7202 3.52344H35.2002V7.04344H38.7202V3.52344Z" fill="white"/>
<path id="Vector_124" d="M38.7202 7.03906H35.2002V10.5591H38.7202V7.03906Z" fill="white"/>
<path id="Vector_125" d="M38.7202 17.6016H35.2002V21.1216H38.7202V17.6016Z" fill="white"/>
<path id="Vector_126" d="M38.7202 21.1172H35.2002V24.6372H38.7202V21.1172Z" fill="white"/>
<path id="Vector_127" d="M38.7202 24.6406H35.2002V28.1606H38.7202V24.6406Z" fill="white"/>
<path id="Vector_128" d="M38.7202 28.1562H35.2002V31.6762H38.7202V28.1562Z" fill="white"/>
<path id="Vector_129" d="M38.7202 35.2031H35.2002V38.7231H38.7202V35.2031Z" fill="white"/>
<path id="Vector_130" d="M38.7202 38.7188H35.2002V42.2387H38.7202V38.7188Z" fill="white"/>
<path id="Vector_131" d="M38.7202 49.2812H35.2002V52.8012H38.7202V49.2812Z" fill="white"/>
<path id="Vector_132" d="M38.7202 52.7969H35.2002V56.3169H38.7202V52.7969Z" fill="white"/>
<path id="Vector_133" d="M38.7202 59.8438H35.2002V63.3637H38.7202V59.8438Z" fill="white"/>
<path id="Vector_134" d="M38.7202 73.9219H35.2002V77.4419H38.7202V73.9219Z" fill="white"/>
<path id="Vector_135" d="M38.7202 77.4375H35.2002V80.9575H38.7202V77.4375Z" fill="white"/>
<path id="Vector_136" d="M38.7202 80.9609H35.2002V84.4809H38.7202V80.9609Z" fill="white"/>
<path id="Vector_137" d="M38.7202 84.4766H35.2002V87.9966H38.7202V84.4766Z" fill="white"/>
<path id="Vector_138" d="M42.2402 0H38.7202V3.52H42.2402V0Z" fill="white"/>
<path id="Vector_139" d="M42.2402 14.0781H38.7202V17.5981H42.2402V14.0781Z" fill="white"/>
<path id="Vector_140" d="M42.2402 24.6406H38.7202V28.1606H42.2402V24.6406Z" fill="white"/>
<path id="Vector_141" d="M42.2402 28.1562H38.7202V31.6762H42.2402V28.1562Z" fill="white"/>
<path id="Vector_142" d="M42.2402 35.2031H38.7202V38.7231H42.2402V35.2031Z" fill="white"/>
<path id="Vector_143" d="M42.2402 45.7578H38.7202V49.2778H42.2402V45.7578Z" fill="white"/>
<path id="Vector_144" d="M42.2402 52.7969H38.7202V56.3169H42.2402V52.7969Z" fill="white"/>
<path id="Vector_145" d="M42.2402 56.3203H38.7202V59.8403H42.2402V56.3203Z" fill="white"/>
<path id="Vector_146" d="M42.2402 63.3594H38.7202V66.8794H42.2402V63.3594Z" fill="white"/>
<path id="Vector_147" d="M42.2402 66.8828H38.7202V70.4028H42.2402V66.8828Z" fill="white"/>
<path id="Vector_148" d="M42.2402 73.9219H38.7202V77.4419H42.2402V73.9219Z" fill="white"/>
<path id="Vector_149" d="M42.2402 77.4375H38.7202V80.9575H42.2402V77.4375Z" fill="white"/>
<path id="Vector_150" d="M45.7602 0H42.2402V3.52H45.7602V0Z" fill="white"/>
<path id="Vector_151" d="M45.7602 7.03906H42.2402V10.5591H45.7602V7.03906Z" fill="white"/>
<path id="Vector_152" d="M45.7602 10.5625H42.2402V14.0825H45.7602V10.5625Z" fill="white"/>
<path id="Vector_153" d="M45.7602 17.6016H42.2402V21.1216H45.7602V17.6016Z" fill="white"/>
<path id="Vector_154" d="M45.7602 21.1172H42.2402V24.6372H45.7602V21.1172Z" fill="white"/>
<path id="Vector_155" d="M45.7602 28.1562H42.2402V31.6762H45.7602V28.1562Z" fill="white"/>
<path id="Vector_156" d="M45.7602 31.6797H42.2402V35.1997H45.7602V31.6797Z" fill="white"/>
<path id="Vector_157" d="M45.7602 42.2422H42.2402V45.7622H45.7602V42.2422Z" fill="white"/>
<path id="Vector_158" d="M45.7602 45.7578H42.2402V49.2778H45.7602V45.7578Z" fill="white"/>
<path id="Vector_159" d="M45.7602 56.3203H42.2402V59.8403H45.7602V56.3203Z" fill="white"/>
<path id="Vector_160" d="M45.7602 63.3594H42.2402V66.8794H45.7602V63.3594Z" fill="white"/>
<path id="Vector_161" d="M45.7602 66.8828H42.2402V70.4028H45.7602V66.8828Z" fill="white"/>
<path id="Vector_162" d="M45.7602 84.4766H42.2402V87.9966H45.7602V84.4766Z" fill="white"/>
<path id="Vector_163" d="M49.2798 0H45.7598V3.52H49.2798V0Z" fill="white"/>
<path id="Vector_164" d="M49.2798 3.52344H45.7598V7.04344H49.2798V3.52344Z" fill="white"/>
<path id="Vector_165" d="M49.2798 7.03906H45.7598V10.5591H49.2798V7.03906Z" fill="white"/>
<path id="Vector_166" d="M49.2798 10.5625H45.7598V14.0825H49.2798V10.5625Z" fill="white"/>
<path id="Vector_167" d="M49.2798 24.6406H45.7598V28.1606H49.2798V24.6406Z" fill="white"/>
<path id="Vector_168" d="M49.2798 49.2812H45.7598V52.8012H49.2798V49.2812Z" fill="white"/>
<path id="Vector_169" d="M49.2798 56.3203H45.7598V59.8403H49.2798V56.3203Z" fill="white"/>
<path id="Vector_170" d="M49.2798 63.3594H45.7598V66.8794H49.2798V63.3594Z" fill="white"/>
<path id="Vector_171" d="M49.2798 66.8828H45.7598V70.4028H49.2798V66.8828Z" fill="white"/>
<path id="Vector_172" d="M49.2798 73.9219H45.7598V77.4419H49.2798V73.9219Z" fill="white"/>
<path id="Vector_173" d="M49.2798 77.4375H45.7598V80.9575H49.2798V77.4375Z" fill="white"/>
<path id="Vector_174" d="M52.7998 3.52344H49.2798V7.04344H52.7998V3.52344Z" fill="white"/>
<path id="Vector_175" d="M52.7998 14.0781H49.2798V17.5981H52.7998V14.0781Z" fill="white"/>
<path id="Vector_176" d="M52.7998 17.6016H49.2798V21.1216H52.7998V17.6016Z" fill="white"/>
<path id="Vector_177" d="M52.7998 21.1172H49.2798V24.6372H52.7998V21.1172Z" fill="white"/>
<path id="Vector_178" d="M52.7998 28.1562H49.2798V31.6762H52.7998V28.1562Z" fill="white"/>
<path id="Vector_179" d="M52.7998 31.6797H49.2798V35.1997H52.7998V31.6797Z" fill="white"/>
<path id="Vector_180" d="M52.7998 45.7578H49.2798V49.2778H52.7998V45.7578Z" fill="white"/>
<path id="Vector_181" d="M52.7998 63.3594H49.2798V66.8794H52.7998V63.3594Z" fill="white"/>
<path id="Vector_182" d="M52.7998 73.9219H49.2798V77.4419H52.7998V73.9219Z" fill="white"/>
<path id="Vector_183" d="M56.3198 7.03906H52.7998V10.5591H56.3198V7.03906Z" fill="white"/>
<path id="Vector_184" d="M56.3198 10.5625H52.7998V14.0825H56.3198V10.5625Z" fill="white"/>
<path id="Vector_185" d="M56.3198 24.6406H52.7998V28.1606H56.3198V24.6406Z" fill="white"/>
<path id="Vector_186" d="M56.3198 31.6797H52.7998V35.1997H56.3198V31.6797Z" fill="white"/>
<path id="Vector_187" d="M56.3198 35.2031H52.7998V38.7231H56.3198V35.2031Z" fill="white"/>
<path id="Vector_188" d="M56.3198 45.7578H52.7998V49.2778H56.3198V45.7578Z" fill="white"/>
<path id="Vector_189" d="M56.3198 49.2812H52.7998V52.8012H56.3198V49.2812Z" fill="white"/>
<path id="Vector_190" d="M56.3198 52.7969H52.7998V56.3169H56.3198V52.7969Z" fill="white"/>
<path id="Vector_191" d="M56.3198 56.3203H52.7998V59.8403H56.3198V56.3203Z" fill="white"/>
<path id="Vector_192" d="M56.3198 59.8438H52.7998V63.3637H56.3198V59.8438Z" fill="white"/>
<path id="Vector_193" d="M56.3198 66.8828H52.7998V70.4028H56.3198V66.8828Z" fill="white"/>
<path id="Vector_194" d="M56.3198 70.3984H52.7998V73.9184H56.3198V70.3984Z" fill="white"/>
<path id="Vector_195" d="M56.3198 84.4766H52.7998V87.9966H56.3198V84.4766Z" fill="white"/>
<path id="Vector_196" d="M59.8398 3.52344H56.3198V7.04344H59.8398V3.52344Z" fill="white"/>
<path id="Vector_197" d="M59.8398 7.03906H56.3198V10.5591H59.8398V7.03906Z" fill="white"/>
<path id="Vector_198" d="M59.8398 10.5625H56.3198V14.0825H59.8398V10.5625Z" fill="white"/>
<path id="Vector_199" d="M59.8398 14.0781H56.3198V17.5981H59.8398V14.0781Z" fill="white"/>
<path id="Vector_200" d="M59.8398 21.1172H56.3198V24.6372H59.8398V21.1172Z" fill="white"/>
<path id="Vector_201" d="M59.8398 28.1562H56.3198V31.6762H59.8398V28.1562Z" fill="white"/>
<path id="Vector_202" d="M59.8398 35.2031H56.3198V38.7231H59.8398V35.2031Z" fill="white"/>
<path id="Vector_203" d="M59.8398 38.7188H56.3198V42.2387H59.8398V38.7188Z" fill="white"/>
<path id="Vector_204" d="M59.8398 42.2422H56.3198V45.7622H59.8398V42.2422Z" fill="white"/>
<path id="Vector_205" d="M59.8398 45.7578H56.3198V49.2778H59.8398V45.7578Z" fill="white"/>
<path id="Vector_206" d="M59.8398 56.3203H56.3198V59.8403H59.8398V56.3203Z" fill="white"/>
<path id="Vector_207" d="M59.8398 59.8438H56.3198V63.3637H59.8398V59.8438Z" fill="white"/>
<path id="Vector_208" d="M59.8398 63.3594H56.3198V66.8794H59.8398V63.3594Z" fill="white"/>
<path id="Vector_209" d="M59.8398 66.8828H56.3198V70.4028H59.8398V66.8828Z" fill="white"/>
<path id="Vector_210" d="M59.8398 70.3984H56.3198V73.9184H59.8398V70.3984Z" fill="white"/>
<path id="Vector_211" d="M59.8398 77.4375H56.3198V80.9575H59.8398V77.4375Z" fill="white"/>
<path id="Vector_212" d="M59.8398 84.4766H56.3198V87.9966H59.8398V84.4766Z" fill="white"/>
<path id="Vector_213" d="M63.3598 35.2031H59.8398V38.7231H63.3598V35.2031Z" fill="white"/>
<path id="Vector_214" d="M63.3598 42.2422H59.8398V45.7622H63.3598V42.2422Z" fill="white"/>
<path id="Vector_215" d="M63.3598 49.2812H59.8398V52.8012H63.3598V49.2812Z" fill="white"/>
<path id="Vector_216" d="M63.3598 56.3203H59.8398V59.8403H63.3598V56.3203Z" fill="white"/>
<path id="Vector_217" d="M63.3598 70.3984H59.8398V73.9184H63.3598V70.3984Z" fill="white"/>
<path id="Vector_218" d="M63.3598 73.9219H59.8398V77.4419H63.3598V73.9219Z" fill="white"/>
<path id="Vector_219" d="M63.3598 77.4375H59.8398V80.9575H63.3598V77.4375Z" fill="white"/>
<path id="Vector_220" d="M66.8799 0H63.3599V3.52H66.8799V0Z" fill="white"/>
<path id="Vector_221" d="M66.8799 3.52344H63.3599V7.04344H66.8799V3.52344Z" fill="white"/>
<path id="Vector_222" d="M66.8799 7.03906H63.3599V10.5591H66.8799V7.03906Z" fill="white"/>
<path id="Vector_223" d="M66.8799 10.5625H63.3599V14.0825H66.8799V10.5625Z" fill="white"/>
<path id="Vector_224" d="M66.8799 14.0781H63.3599V17.5981H66.8799V14.0781Z" fill="white"/>
<path id="Vector_225" d="M66.8799 17.6016H63.3599V21.1216H66.8799V17.6016Z" fill="white"/>
<path id="Vector_226" d="M66.8799 21.1172H63.3599V24.6372H66.8799V21.1172Z" fill="white"/>
<path id="Vector_227" d="M66.8799 28.1562H63.3599V31.6762H66.8799V28.1562Z" fill="white"/>
<path id="Vector_228" d="M66.8799 42.2422H63.3599V45.7622H66.8799V42.2422Z" fill="white"/>
<path id="Vector_229" d="M66.8799 56.3203H63.3599V59.8403H66.8799V56.3203Z" fill="white"/>
<path id="Vector_230" d="M66.8799 63.3594H63.3599V66.8794H66.8799V63.3594Z" fill="white"/>
<path id="Vector_231" d="M66.8799 70.3984H63.3599V73.9184H66.8799V70.3984Z" fill="white"/>
<path id="Vector_232" d="M66.8799 73.9219H63.3599V77.4419H66.8799V73.9219Z" fill="white"/>
<path id="Vector_233" d="M66.8799 84.4766H63.3599V87.9966H66.8799V84.4766Z" fill="white"/>
<path id="Vector_234" d="M70.3999 0H66.8799V3.52H70.3999V0Z" fill="white"/>
<path id="Vector_235" d="M70.3999 21.1172H66.8799V24.6372H70.3999V21.1172Z" fill="white"/>
<path id="Vector_236" d="M70.3999 31.6797H66.8799V35.1997H70.3999V31.6797Z" fill="white"/>
<path id="Vector_237" d="M70.3999 35.2031H66.8799V38.7231H70.3999V35.2031Z" fill="white"/>
<path id="Vector_238" d="M70.3999 38.7188H66.8799V42.2387H70.3999V38.7188Z" fill="white"/>
<path id="Vector_239" d="M70.3999 52.7969H66.8799V56.3169H70.3999V52.7969Z" fill="white"/>
<path id="Vector_240" d="M70.3999 56.3203H66.8799V59.8403H70.3999V56.3203Z" fill="white"/>
<path id="Vector_241" d="M70.3999 70.3984H66.8799V73.9184H70.3999V70.3984Z" fill="white"/>
<path id="Vector_242" d="M70.3999 80.9609H66.8799V84.4809H70.3999V80.9609Z" fill="white"/>
<path id="Vector_243" d="M73.9199 0H70.3999V3.52H73.9199V0Z" fill="white"/>
<path id="Vector_244" d="M73.9199 7.03906H70.3999V10.5591H73.9199V7.03906Z" fill="white"/>
<path id="Vector_245" d="M73.9199 10.5625H70.3999V14.0825H73.9199V10.5625Z" fill="white"/>
<path id="Vector_246" d="M73.9199 14.0781H70.3999V17.5981H73.9199V14.0781Z" fill="white"/>
<path id="Vector_247" d="M73.9199 21.1172H70.3999V24.6372H73.9199V21.1172Z" fill="white"/>
<path id="Vector_248" d="M73.9199 31.6797H70.3999V35.1997H73.9199V31.6797Z" fill="white"/>
<path id="Vector_249" d="M73.9199 35.2031H70.3999V38.7231H73.9199V35.2031Z" fill="white"/>
<path id="Vector_250" d="M73.9199 45.7578H70.3999V49.2778H73.9199V45.7578Z" fill="white"/>
<path id="Vector_251" d="M73.9199 49.2812H70.3999V52.8012H73.9199V49.2812Z" fill="white"/>
<path id="Vector_252" d="M73.9199 56.3203H70.3999V59.8403H73.9199V56.3203Z" fill="white"/>
<path id="Vector_253" d="M73.9199 59.8438H70.3999V63.3637H73.9199V59.8438Z" fill="white"/>
<path id="Vector_254" d="M73.9199 63.3594H70.3999V66.8794H73.9199V63.3594Z" fill="white"/>
<path id="Vector_255" d="M73.9199 66.8828H70.3999V70.4028H73.9199V66.8828Z" fill="white"/>
<path id="Vector_256" d="M73.9199 70.3984H70.3999V73.9184H73.9199V70.3984Z" fill="white"/>
<path id="Vector_257" d="M73.9199 77.4375H70.3999V80.9575H73.9199V77.4375Z" fill="white"/>
<path id="Vector_258" d="M73.9199 80.9609H70.3999V84.4809H73.9199V80.9609Z" fill="white"/>
<path id="Vector_259" d="M77.4399 0H73.9199V3.52H77.4399V0Z" fill="white"/>
<path id="Vector_260" d="M77.4399 7.03906H73.9199V10.5591H77.4399V7.03906Z" fill="white"/>
<path id="Vector_261" d="M77.4399 10.5625H73.9199V14.0825H77.4399V10.5625Z" fill="white"/>
<path id="Vector_262" d="M77.4399 14.0781H73.9199V17.5981H77.4399V14.0781Z" fill="white"/>
<path id="Vector_263" d="M77.4399 21.1172H73.9199V24.6372H77.4399V21.1172Z" fill="white"/>
<path id="Vector_264" d="M77.4399 31.6797H73.9199V35.1997H77.4399V31.6797Z" fill="white"/>
<path id="Vector_265" d="M77.4399 35.2031H73.9199V38.7231H77.4399V35.2031Z" fill="white"/>
<path id="Vector_266" d="M77.4399 38.7188H73.9199V42.2387H77.4399V38.7188Z" fill="white"/>
<path id="Vector_267" d="M77.4399 49.2812H73.9199V52.8012H77.4399V49.2812Z" fill="white"/>
<path id="Vector_268" d="M77.4399 52.7969H73.9199V56.3169H77.4399V52.7969Z" fill="white"/>
<path id="Vector_269" d="M77.4399 77.4375H73.9199V80.9575H77.4399V77.4375Z" fill="white"/>
<path id="Vector_270" d="M77.4399 84.4766H73.9199V87.9966H77.4399V84.4766Z" fill="white"/>
<path id="Vector_271" d="M80.9599 0H77.4399V3.52H80.9599V0Z" fill="white"/>
<path id="Vector_272" d="M80.9599 7.03906H77.4399V10.5591H80.9599V7.03906Z" fill="white"/>
<path id="Vector_273" d="M80.9599 10.5625H77.4399V14.0825H80.9599V10.5625Z" fill="white"/>
<path id="Vector_274" d="M80.9599 14.0781H77.4399V17.5981H80.9599V14.0781Z" fill="white"/>
<path id="Vector_275" d="M80.9599 21.1172H77.4399V24.6372H80.9599V21.1172Z" fill="white"/>
<path id="Vector_276" d="M80.9599 31.6797H77.4399V35.1997H80.9599V31.6797Z" fill="white"/>
<path id="Vector_277" d="M80.9599 38.7188H77.4399V42.2387H80.9599V38.7188Z" fill="white"/>
<path id="Vector_278" d="M80.9599 49.2812H77.4399V52.8012H80.9599V49.2812Z" fill="white"/>
<path id="Vector_279" d="M80.9599 52.7969H77.4399V56.3169H80.9599V52.7969Z" fill="white"/>
<path id="Vector_280" d="M80.9599 56.3203H77.4399V59.8403H80.9599V56.3203Z" fill="white"/>
<path id="Vector_281" d="M80.9599 59.8438H77.4399V63.3637H80.9599V59.8438Z" fill="white"/>
<path id="Vector_282" d="M80.9599 77.4375H77.4399V80.9575H80.9599V77.4375Z" fill="white"/>
<path id="Vector_283" d="M80.9599 80.9609H77.4399V84.4809H80.9599V80.9609Z" fill="white"/>
<path id="Vector_284" d="M84.48 0H80.96V3.52H84.48V0Z" fill="white"/>
<path id="Vector_285" d="M84.48 21.1172H80.96V24.6372H84.48V21.1172Z" fill="white"/>
<path id="Vector_286" d="M84.48 31.6797H80.96V35.1997H84.48V31.6797Z" fill="white"/>
<path id="Vector_287" d="M84.48 38.7188H80.96V42.2387H84.48V38.7188Z" fill="white"/>
<path id="Vector_288" d="M84.48 45.7578H80.96V49.2778H84.48V45.7578Z" fill="white"/>
<path id="Vector_289" d="M84.48 49.2812H80.96V52.8012H84.48V49.2812Z" fill="white"/>
<path id="Vector_290" d="M84.48 56.3203H80.96V59.8403H84.48V56.3203Z" fill="white"/>
<path id="Vector_291" d="M84.48 59.8438H80.96V63.3637H84.48V59.8438Z" fill="white"/>
<path id="Vector_292" d="M84.48 66.8828H80.96V70.4028H84.48V66.8828Z" fill="white"/>
<path id="Vector_293" d="M84.48 73.9219H80.96V77.4419H84.48V73.9219Z" fill="white"/>
<path id="Vector_294" d="M84.48 77.4375H80.96V80.9575H84.48V77.4375Z" fill="white"/>
<path id="Vector_295" d="M84.48 80.9609H80.96V84.4809H84.48V80.9609Z" fill="white"/>
<path id="Vector_296" d="M88 0H84.48V3.52H88V0Z" fill="white"/>
<path id="Vector_297" d="M88 3.52344H84.48V7.04344H88V3.52344Z" fill="white"/>
<path id="Vector_298" d="M88 7.03906H84.48V10.5591H88V7.03906Z" fill="white"/>
<path id="Vector_299" d="M88 10.5625H84.48V14.0825H88V10.5625Z" fill="white"/>
<path id="Vector_300" d="M88 14.0781H84.48V17.5981H88V14.0781Z" fill="white"/>
<path id="Vector_301" d="M88 17.6016H84.48V21.1216H88V17.6016Z" fill="white"/>
<path id="Vector_302" d="M88 21.1172H84.48V24.6372H88V21.1172Z" fill="white"/>
<path id="Vector_303" d="M88 28.1562H84.48V31.6762H88V28.1562Z" fill="white"/>
<path id="Vector_304" d="M88 35.2031H84.48V38.7231H88V35.2031Z" fill="white"/>
<path id="Vector_305" d="M88 38.7188H84.48V42.2387H88V38.7188Z" fill="white"/>
<path id="Vector_306" d="M88 42.2422H84.48V45.7622H88V42.2422Z" fill="white"/>
<path id="Vector_307" d="M88 49.2812H84.48V52.8012H88V49.2812Z" fill="white"/>
<path id="Vector_308" d="M88 52.7969H84.48V56.3169H88V52.7969Z" fill="white"/>
<path id="Vector_309" d="M88 63.3594H84.48V66.8794H88V63.3594Z" fill="white"/>
<path id="Vector_310" d="M88 73.9219H84.48V77.4419H88V73.9219Z" fill="white"/>
<path id="Vector_311" d="M88 77.4375H84.48V80.9575H88V77.4375Z" fill="white"/>
<path id="Vector_312" d="M88 80.9609H84.48V84.4809H88V80.9609Z" fill="white"/>
<path id="Vector_313" d="M88 84.4766H84.48V87.9966H88V84.4766Z" fill="white"/>
</g>
</svg>
