<svg width="17" height="18" viewBox="0 0 17 18" fill="currentColor" xmlns="http://www.w3.org/2000/svg" style="transform: scale(-1, 1)">
<path d="M8.50029 0.456066C6.82965 0.456066 5.27214 0.945995 3.95696 1.78636L2.17969 0V5.00492H7.15914L5.18251 3.01817C6.16542 2.463 7.29483 2.14208 8.50029 2.14208C12.2622 2.14208 15.3229 5.21835 15.3229 8.99984C15.3229 9.90048 15.1445 10.7595 14.8286 11.548L16.2931 12.406C16.7475 11.3613 17.0003 10.2102 17.0003 8.99984C17.0003 4.28882 13.187 0.456066 8.50029 0.456066Z"/>
<path d="M11.8156 14.9784C10.833 15.5332 9.70576 15.8566 8.50031 15.8566C4.73836 15.8566 1.67775 12.7804 1.67775 8.99917C1.67775 8.14824 1.83971 7.33708 2.12253 6.58494L0.660218 5.69922C0.235218 6.71543 0 7.8298 0 8.99917C0 13.7102 3.81295 17.5426 8.5 17.5426C10.1709 17.5426 11.7251 17.0505 13.0409 16.2102L14.8206 17.9993V12.9938H9.84084L11.8156 14.9784Z"/>
</svg>
