<svg width="10" height="10" viewBox="0 0 10 10" fill="none" xmlns="http://www.w3.org/2000/svg">
<path d="M9.72541 0.226515C9.65602 0.156988 9.57361 0.101827 9.48288 0.064191C9.39215 0.0265549 9.29489 0.00718224 9.19666 0.00718224C9.09843 0.00718224 9.00117 0.0265549 8.91044 0.064191C8.81971 0.101827 8.7373 0.156988 8.66791 0.226515L5.00041 3.88652L1.33291 0.219015C1.26348 0.149579 1.18104 0.0944988 1.09032 0.0569201C0.999596 0.0193413 0.90236 7.31631e-10 0.804162 0C0.705964 -7.31632e-10 0.608727 0.0193413 0.518004 0.0569201C0.427281 0.0944988 0.344848 0.149579 0.275412 0.219015C0.205975 0.288452 0.150895 0.370885 0.113317 0.461608C0.0757378 0.552331 0.0563965 0.649568 0.0563965 0.747766C0.0563965 0.845963 0.0757378 0.9432 0.113317 1.03392C0.150895 1.12465 0.205975 1.20708 0.275412 1.27652L3.94291 4.94402L0.275412 8.61152C0.205975 8.68095 0.150895 8.76338 0.113317 8.85411C0.0757378 8.94483 0.0563965 9.04207 0.0563965 9.14026C0.0563965 9.23846 0.0757378 9.3357 0.113317 9.42642C0.150895 9.51715 0.205975 9.59958 0.275412 9.66901C0.344848 9.73845 0.427281 9.79353 0.518004 9.83111C0.608727 9.86869 0.705964 9.88803 0.804162 9.88803C0.90236 9.88803 0.999596 9.86869 1.09032 9.83111C1.18104 9.79353 1.26348 9.73845 1.33291 9.66901L5.00041 6.00151L8.66791 9.66901C8.73735 9.73845 8.81978 9.79353 8.9105 9.83111C9.00123 9.86869 9.09846 9.88803 9.19666 9.88803C9.29486 9.88803 9.3921 9.86869 9.48282 9.83111C9.57354 9.79353 9.65597 9.73845 9.72541 9.66901C9.79485 9.59958 9.84993 9.51715 9.88751 9.42642C9.92509 9.3357 9.94443 9.23846 9.94443 9.14026C9.94443 9.04207 9.92509 8.94483 9.88751 8.85411C9.84993 8.76338 9.79485 8.68095 9.72541 8.61152L6.05791 4.94402L9.72541 1.27652C10.0104 0.991516 10.0104 0.511515 9.72541 0.226515Z" fill="#EFC3C3"/>
</svg>
