<svg xmlns="http://www.w3.org/2000/svg" width="12" height="12" viewBox="0 0 12 12" fill="none">
    <path d="M4.95086 4.30797C4.90033 4.26088 4.8598 4.20411 4.83169 4.14102C4.80358 4.07794 4.78847 4.00984 4.78725 3.94078C4.78603 3.87173 4.79874 3.80314 4.8246 3.7391C4.85047 3.67506 4.88897 3.61689 4.9378 3.56805C4.98664 3.51922 5.04481 3.48072 5.10885 3.45485C5.17288 3.42899 5.24148 3.41629 5.31053 3.4175C5.37958 3.41872 5.44768 3.43384 5.51077 3.46195C5.57385 3.49005 5.63063 3.53058 5.67771 3.58111L7.73486 5.63825C7.83117 5.73468 7.88526 5.86539 7.88526 6.00168C7.88526 6.13797 7.83117 6.26868 7.73486 6.36511L5.67771 8.42225C5.63063 8.47278 5.57385 8.51331 5.51077 8.54142C5.44768 8.56952 5.37958 8.58464 5.31053 8.58586C5.24148 8.58708 5.17288 8.57437 5.10885 8.54851C5.04481 8.52264 4.98664 8.48414 4.9378 8.43531C4.88897 8.38647 4.85047 8.3283 4.8246 8.26426C4.79874 8.20022 4.78603 8.13163 4.78725 8.06258C4.78847 7.99353 4.80358 7.92543 4.83169 7.86234C4.8598 7.79925 4.90033 7.74248 4.95086 7.69539L6.13029 6.51597H0.514286C0.377889 6.51597 0.247078 6.46178 0.150631 6.36533C0.0541834 6.26889 0 6.13808 0 6.00168C0 5.86528 0.0541834 5.73447 0.150631 5.63803C0.247078 5.54158 0.377889 5.48739 0.514286 5.48739H6.13029L4.95086 4.30797Z" fill="white"/>
    <path d="M6.00025 0C5.86385 0 5.73304 0.054183 5.63659 0.15063C5.54015 0.247077 5.48596 0.377889 5.48596 0.514285C5.48596 0.650682 5.54015 0.781493 5.63659 0.877941C5.73304 0.974388 5.86385 1.02857 6.00025 1.02857C6.6531 1.02857 7.29957 1.15716 7.90273 1.407C8.50589 1.65684 9.05394 2.02303 9.51558 2.48467C9.97722 2.94631 10.3434 3.49436 10.5932 4.09752C10.8431 4.70068 10.9717 5.34714 10.9717 6C10.9717 6.65286 10.8431 7.29932 10.5932 7.90248C10.3434 8.50564 9.97722 9.05369 9.51558 9.51533C9.05394 9.97697 8.50589 10.3432 7.90273 10.593C7.29957 10.8428 6.6531 10.9714 6.00025 10.9714C5.86385 10.9714 5.73304 11.0256 5.63659 11.1221C5.54015 11.2185 5.48596 11.3493 5.48596 11.4857C5.48596 11.6221 5.54015 11.7529 5.63659 11.8494C5.73304 11.9458 5.86385 12 6.00025 12C7.59155 12 9.11767 11.3679 10.2429 10.2426C11.3681 9.11742 12.0002 7.5913 12.0002 6C12.0002 4.4087 11.3681 2.88258 10.2429 1.75736C9.11767 0.63214 7.59155 0 6.00025 0Z" fill="white"/>
</svg>