<svg xmlns="http://www.w3.org/2000/svg" width="14" height="14" viewBox="0 0 14 14" fill="none">
    <path d="M5.81898 1.7777C5.54349 2.43918 4.77101 2.738 4.12071 2.43771C3.04473 1.94084 1.92839 3.05777 2.42499 4.13431C2.72513 4.78495 2.42646 5.55783 1.76533 5.83346C0.728939 6.26551 0.728939 7.73448 1.76533 8.16653C2.42646 8.44216 2.72513 9.21508 2.42499 9.86566C1.92839 10.9422 3.04473 12.0592 4.12071 11.5623C4.77101 11.262 5.54349 11.5608 5.81898 12.2223C6.25081 13.2592 7.71901 13.2592 8.15084 12.2223C8.42632 11.5608 9.19883 11.262 9.84908 11.5623C10.9251 12.0592 12.0414 10.9422 11.5448 9.86566C11.2447 9.21508 11.5433 8.44216 12.2045 8.16653C13.2409 7.73448 13.2409 6.26551 12.2045 5.83346C11.5433 5.55783 11.2447 4.78495 11.5448 4.13431C12.0414 3.05777 10.9251 1.94084 9.84908 2.43771C9.19883 2.738 8.42632 2.43918 8.15084 1.7777C7.71901 0.740767 6.25081 0.740767 5.81898 1.7777Z" stroke="white" stroke-linecap="round" stroke-linejoin="round"/>
    <path d="M8.98939 7.0016C8.98939 8.10924 8.09199 9.00711 6.98493 9.00711C5.87787 9.00711 4.98047 8.10924 4.98047 7.0016C4.98047 5.89396 5.87787 4.99609 6.98493 4.99609C8.09199 4.99609 8.98939 5.89396 8.98939 7.0016Z" stroke="white"/>
</svg>