<svg width="18" height="18" viewBox="0 0 18 18" fill="none" xmlns="http://www.w3.org/2000/svg">
<path fill="var(--icon-color-fill)" d="M9.00032 0.667969C4.40532 0.667969 0.666992 4.4063 0.666992 9.0013V12.4538C0.666992 13.3071 1.41449 14.0013 2.33366 14.0013H3.16699C3.38801 14.0013 3.59997 13.9135 3.75625 13.7572C3.91253 13.6009 4.00032 13.389 4.00032 13.168V8.88213C4.00032 8.66112 3.91253 8.44916 3.75625 8.29288C3.59997 8.1366 3.38801 8.0488 3.16699 8.0488H2.41033C2.87366 4.8238 5.64866 2.33464 9.00032 2.33464C12.352 2.33464 15.127 4.8238 15.5903 8.0488H14.8337C14.6126 8.0488 14.4007 8.1366 14.2444 8.29288C14.0881 8.44916 14.0003 8.66112 14.0003 8.88213V14.0013C14.0003 14.9205 13.2528 15.668 12.3337 15.668H10.667V14.8346H7.33366V17.3346H12.3337C14.172 17.3346 15.667 15.8396 15.667 14.0013C16.5862 14.0013 17.3337 13.3071 17.3337 12.4538V9.0013C17.3337 4.4063 13.5953 0.667969 9.00032 0.667969Z"/>
<path stroke="var(--icon-color-stroke)" d="M2.11337 8.00614L2.06414 8.3488H2.41033H3.16699C3.30844 8.3488 3.4441 8.40499 3.54412 8.50501C3.64413 8.60503 3.70033 8.74069 3.70033 8.88213V13.168C3.70033 13.3094 3.64413 13.4451 3.54412 13.5451C3.4441 13.6451 3.30844 13.7013 3.16699 13.7013H2.33366C1.55885 13.7013 0.966992 13.1209 0.966992 12.4538V9.0013C0.966992 4.57199 4.57101 0.967969 9.00032 0.967969C13.4296 0.967969 17.0337 4.57199 17.0337 9.0013V12.4538C17.0337 13.1209 16.4418 13.7013 15.667 13.7013H15.367V14.0013C15.367 15.6739 14.0063 17.0346 12.3337 17.0346H7.63366V15.1346H10.367V15.668V15.968H10.667H12.3337C13.4185 15.968 14.3003 15.0862 14.3003 14.0013V8.88213C14.3003 8.74069 14.3565 8.60503 14.4565 8.50501C14.5566 8.40499 14.6922 8.3488 14.8337 8.3488H15.5903H15.9365L15.8873 8.00614C15.4031 4.63625 12.504 2.03464 9.00032 2.03464C5.49665 2.03464 2.59752 4.63625 2.11337 8.00614Z" stroke-width="0.6"/>
</svg>
