<svg xmlns="http://www.w3.org/2000/svg" width="14" height="14" viewBox="0 0 14 14" fill="none">
    <path d="M6.3999 4L4.5999 10M9.3999 4L7.5999 10M10.5999 5.8H3.9999M9.9999 8.2H3.3999" stroke="white" stroke-width="0.7" stroke-linecap="round" stroke-linejoin="round"/>
    <path d="M1 7C1 4.1716 1 2.7574 1.8784 1.8784C2.758 1 4.1716 1 7 1C9.8284 1 11.2426 1 12.121 1.8784C13 2.758 13 4.1716 13 7C13 9.8284 13 11.2426 12.121 12.121C11.2432 13 9.8284 13 7 13C4.1716 13 2.7574 13 1.8784 12.121C1 11.2432 1 9.8284 1 7Z" stroke="white" stroke-width="0.7"/>
</svg>