<svg xmlns="http://www.w3.org/2000/svg" width="18" height="18" viewBox="0 0 18 18" fill="none">
    <path d="M13.2166 3.335C12.59 2.61965 12.2446 1.70098 12.2449 0.75H9.4124V12.1167C9.39055 12.7318 9.13086 13.3144 8.68802 13.7419C8.24517 14.1693 7.65373 14.4082 7.03823 14.4083C5.73657 14.4083 4.6549 13.345 4.6549 12.025C4.6549 10.4483 6.17657 9.26583 7.74407 9.75167V6.855C4.58157 6.43333 1.81323 8.89 1.81323 12.025C1.81323 15.0775 4.34323 17.25 7.02907 17.25C9.9074 17.25 12.2449 14.9125 12.2449 12.025V6.25917C13.3935 7.08403 14.7725 7.52659 16.1866 7.52417V4.69167C16.1866 4.69167 14.4632 4.77417 13.2166 3.335Z" fill="white" fill-opacity="0.4"/>
</svg>