<svg width="66" height="66" viewBox="0 0 66 66" fill="none" xmlns="http://www.w3.org/2000/svg">
<path d="M31.114 35.3404C31.2198 36.4359 31.3966 37.2514 31.6438 37.7869C31.8905 38.322 32.3328 38.5906 32.9694 38.5906C33.0888 38.5906 33.196 38.5709 33.3023 38.5508C33.4095 38.5709 33.5154 38.5906 33.6344 38.5906C34.2701 38.5906 34.7115 38.322 34.96 37.7869C35.2063 37.2514 35.3835 36.4359 35.489 35.3404L36.0542 26.8836C36.1601 25.2351 36.213 24.0516 36.213 23.3341C36.213 22.3567 35.9571 21.5942 35.4461 21.0477C34.9329 20.5009 34.2587 20.2266 33.4231 20.2266C33.3793 20.2266 33.3456 20.2366 33.3032 20.2384C33.2608 20.2366 33.2266 20.2266 33.1833 20.2266C32.3468 20.2266 31.6735 20.5004 31.1608 21.0477C30.6489 21.5946 30.393 22.3572 30.393 23.3346C30.393 24.0525 30.4463 25.2355 30.5518 26.884L31.1166 35.3404M33.3194 41.6789C32.5105 41.6789 31.8196 41.9358 31.2474 42.4463C30.676 42.9599 30.3899 43.5803 30.3899 44.3092C30.3899 45.1352 30.6791 45.7814 31.2566 46.2513C31.8358 46.722 32.5105 46.9591 33.28 46.9591C34.0649 46.9591 34.7487 46.7255 35.3336 46.2613C35.9186 45.7963 36.2086 45.1457 36.2086 44.3088C36.2086 43.5799 35.9286 42.9595 35.37 42.4459C34.8117 41.9358 34.1279 41.6789 33.3176 41.6789" fill="#BE212F"/>
<circle cx="33" cy="33" r="30.5" stroke="#BE212F" stroke-width="5"/>
</svg>
