<svg xmlns="http://www.w3.org/2000/svg" width="22" height="22" viewBox="0 0 22 22" fill="none">
    <path d="M4.8125 4.8125L5.67188 18.5625C5.7127 19.357 6.29062 19.9375 7.04688 19.9375H14.9531C15.7124 19.9375 16.2796 19.357 16.3281 18.5625L17.1875 4.8125" stroke="white" stroke-width="1.29375" stroke-linecap="round" stroke-linejoin="round"/>
    <path d="M3.4375 4.8125H18.5625H3.4375Z" fill="white"/>
    <path d="M3.4375 4.8125H18.5625" stroke="white" stroke-width="1.29375" stroke-miterlimit="10" stroke-linecap="round"/>
    <path d="M8.25 4.8125V3.09375C8.2496 2.95822 8.27601 2.82394 8.32769 2.69864C8.37938 2.57335 8.45532 2.4595 8.55116 2.36367C8.647 2.26783 8.76084 2.19188 8.88614 2.14019C9.01143 2.08851 9.14571 2.06211 9.28125 2.0625H12.7188C12.8543 2.06211 12.9886 2.08851 13.1139 2.14019C13.2392 2.19188 13.353 2.26783 13.4488 2.36367C13.5447 2.4595 13.6206 2.57335 13.6723 2.69864C13.724 2.82394 13.7504 2.95822 13.75 3.09375V4.8125M11 7.56251V17.1875M7.90625 7.56251L8.25 17.1875M14.0938 7.56251L13.75 17.1875" stroke="white" stroke-width="1.29375" stroke-linecap="round" stroke-linejoin="round"/>
</svg>