<svg width="15" height="15" viewBox="0 0 14 15" fill="none" xmlns="http://www.w3.org/2000/svg">
<path d="M5.2417 3.18994V2.04843C5.24144 1.95842 5.25897 1.86924 5.2933 1.78602C5.32763 1.7028 5.37807 1.6272 5.44172 1.56354C5.50537 1.49989 5.58098 1.44945 5.66419 1.41513C5.74741 1.3808 5.83659 1.36326 5.92661 1.36353H8.20963C8.29964 1.36326 8.38882 1.3808 8.47204 1.41513C8.55526 1.44945 8.63086 1.49989 8.69452 1.56354C8.75817 1.6272 8.80861 1.7028 8.84293 1.78602C8.87726 1.86924 8.8948 1.95842 8.89453 2.04843V3.18994" stroke="currentColor" stroke-width="1.4375" stroke-linecap="round" stroke-linejoin="round"/>
<path d="M2.9585 3.18994L3.52925 12.322C3.55636 12.8497 3.94019 13.2352 4.44246 13.2352H9.6934C10.1977 13.2352 10.5744 12.8497 10.6066 12.322L11.1774 3.18994" stroke="currentColor" stroke-width="1.4375" stroke-linecap="round" stroke-linejoin="round"/>
<path d="M2.04541 3.18994H12.0907" stroke="currentColor" stroke-width="1.4375" stroke-miterlimit="10" stroke-linecap="round"/>
</svg>
