<svg xmlns="http://www.w3.org/2000/svg" width="19" height="19" viewBox="0 0 19 19" fill="none">
    <path d="M17.7811 4.7474C17.1716 5.02448 16.5145 5.20656 15.8336 5.29365C16.5303 4.87406 17.0686 4.20906 17.322 3.40948C16.6649 3.80531 15.9366 4.0824 15.1686 4.24073C14.5432 3.5599 13.6645 3.16406 12.667 3.16406C10.8066 3.16406 9.28656 4.68406 9.28656 6.56031C9.28656 6.82948 9.31823 7.09073 9.37365 7.33615C6.55532 7.19365 4.04573 5.8399 2.37532 3.78948C2.0824 4.28823 1.91615 4.87406 1.91615 5.49156C1.91615 6.67115 2.5099 7.71615 3.42823 8.3099C2.86615 8.3099 2.34365 8.15156 1.88448 7.91406V7.93781C1.88448 9.58448 3.05615 10.962 4.60782 11.2707C4.10964 11.4071 3.58664 11.426 3.0799 11.3261C3.29492 12.001 3.71603 12.5916 4.28404 13.0147C4.85204 13.4379 5.53838 13.6724 6.24657 13.6853C5.04611 14.6357 3.55806 15.1494 2.02698 15.142C1.75782 15.142 1.48865 15.1261 1.21948 15.0945C2.72365 16.0603 4.51282 16.6224 6.42865 16.6224C12.667 16.6224 16.0949 11.4449 16.0949 6.95615C16.0949 6.80573 16.0949 6.66323 16.087 6.51281C16.752 6.03781 17.322 5.43615 17.7811 4.7474Z" fill="white" fill-opacity="0.4"/>
</svg>