<svg width="14" height="15" viewBox="0 0 14 15" fill="none" xmlns="http://www.w3.org/2000/svg">
<path d="M13.8536 4.35355C14.0488 4.15829 14.0488 3.84171 13.8536 3.64645L10.6716 0.464466C10.4763 0.269203 10.1597 0.269203 9.96447 0.464466C9.7692 0.659728 9.7692 0.97631 9.96447 1.17157L12.7929 4L9.96447 6.82843C9.7692 7.02369 9.7692 7.34027 9.96447 7.53553C10.1597 7.7308 10.4763 7.7308 10.6716 7.53553L13.8536 4.35355ZM1 4.5L13.5 4.5V3.5L1 3.5L1 4.5Z" fill="white" fill-opacity="0.5"/>
<path d="M0.646447 10.6464C0.451184 10.8417 0.451184 11.1583 0.646447 11.3536L3.82843 14.5355C4.02369 14.7308 4.34027 14.7308 4.53553 14.5355C4.7308 14.3403 4.7308 14.0237 4.53553 13.8284L1.70711 11L4.53553 8.17157C4.7308 7.97631 4.7308 7.65973 4.53553 7.46447C4.34027 7.2692 4.02369 7.2692 3.82843 7.46447L0.646447 10.6464ZM13.5 10.5L1 10.5V11.5L13.5 11.5V10.5Z" fill="white" fill-opacity="0.5"/>
</svg>
