<svg width="27" height="27" viewBox="0 0 27 27" fill="none" xmlns="http://www.w3.org/2000/svg">
<path d="M27 13.5C27 20.9558 20.9558 27 13.5 27C6.04416 27 0 20.9558 0 13.5C0 6.04416 6.04416 0 13.5 0C20.9558 0 27 6.04416 27 13.5Z" fill="#D9D9D9"/>
<path fill-rule="evenodd" clip-rule="evenodd" d="M13.2415 5.42285C12.2616 5.42285 11.3218 5.79357 10.629 6.45345C9.9361 7.11333 9.54684 8.00832 9.54684 8.94153C9.54684 9.87474 9.9361 10.7697 10.629 11.4296C11.3218 12.0895 12.2616 12.4602 13.2415 12.4602C14.2213 12.4602 15.1611 12.0895 15.8539 11.4296C16.5468 10.7697 16.9361 9.87474 16.9361 8.94153C16.9361 8.00832 16.5468 7.11333 15.8539 6.45345C15.1611 5.79357 14.2213 5.42285 13.2415 5.42285ZM10.7136 8.94153C10.7136 8.30302 10.9799 7.69066 11.454 7.23916C11.928 6.78766 12.571 6.53401 13.2415 6.53401C13.9119 6.53401 14.5549 6.78766 15.029 7.23916C15.503 7.69066 15.7694 8.30302 15.7694 8.94153C15.7694 9.58005 15.503 10.1924 15.029 10.6439C14.5549 11.0954 13.9119 11.3491 13.2415 11.3491C12.571 11.3491 11.928 11.0954 11.454 10.6439C10.9799 10.1924 10.7136 9.58005 10.7136 8.94153ZM13.2415 13.5714C11.4424 13.5714 9.78408 13.961 8.55591 14.6188C7.34563 15.2677 6.43559 16.25 6.43559 17.4604V17.536C6.43481 18.3968 6.43403 19.4768 7.42886 20.2487C7.9181 20.628 8.60336 20.8984 9.52896 21.0762C10.4561 21.2554 11.6656 21.3495 13.2415 21.3495C14.8173 21.3495 16.026 21.2554 16.9547 21.0762C17.8803 20.8984 18.5648 20.628 19.0548 20.2487C20.0497 19.4768 20.0481 18.3968 20.0473 17.536V17.4604C20.0473 16.25 19.1373 15.2677 17.9278 14.6188C16.6988 13.961 15.0413 13.5714 13.2415 13.5714ZM7.60231 17.4604C7.60231 16.83 8.08611 16.1456 9.1276 15.5878C10.1512 15.0396 11.6042 14.6825 13.2422 14.6825C14.8788 14.6825 16.3317 15.0396 17.3553 15.5878C18.3976 16.1456 18.8806 16.83 18.8806 17.4604C18.8806 18.4294 18.8495 18.9746 18.3175 19.3865C18.0297 19.6102 17.5474 19.8287 16.723 19.9872C15.9008 20.1458 14.7769 20.2383 13.2415 20.2383C11.7061 20.2383 10.5813 20.1458 9.75997 19.9872C8.93548 19.8287 8.45324 19.6102 8.16545 19.3872C7.63342 18.9746 7.60231 18.4294 7.60231 17.4604Z" fill="#959595"/>
</svg>
