<svg width="37" height="38" viewBox="0 0 37 38" fill="none" xmlns="http://www.w3.org/2000/svg">
    <path d="M36.7669 19.2352C36.7669 29.3764 28.5459 37.5975 18.4046 37.5975C8.26344 37.5975 0.0423584 29.3764 0.0423584 19.2352C0.0423584 9.094 8.26344 0.872925 18.4046 0.872925C28.5459 0.872925 36.7669 9.094 36.7669 19.2352Z" fill="#D9D9D9"/>
    <path fill-rule="evenodd" clip-rule="evenodd" d="M18.0544 8.24896C16.7216 8.24896 15.4434 8.7532 14.501 9.65075C13.5586 10.5483 13.0291 11.7656 13.0291 13.035C13.0291 14.3043 13.5586 15.5216 14.501 16.4192C15.4434 17.3167 16.7216 17.821 18.0544 17.821C19.3872 17.821 20.6654 17.3167 21.6079 16.4192C22.5503 15.5216 23.0797 14.3043 23.0797 13.035C23.0797 11.7656 22.5503 10.5483 21.6079 9.65075C20.6654 8.7532 19.3872 8.24896 18.0544 8.24896ZM14.6161 13.035C14.6161 12.1665 14.9783 11.3336 15.6231 10.7194C16.268 10.1053 17.1425 9.76033 18.0544 9.76033C18.9663 9.76033 19.8409 10.1053 20.4857 10.7194C21.1305 11.3336 21.4928 12.1665 21.4928 13.035C21.4928 13.9035 21.1305 14.7364 20.4857 15.3505C19.8409 15.9646 18.9663 16.3096 18.0544 16.3096C17.1425 16.3096 16.268 15.9646 15.6231 15.3505C14.9783 14.7364 14.6161 13.9035 14.6161 13.035ZM18.0544 19.3323C15.6074 19.3323 13.3518 19.8623 11.6813 20.7571C10.0351 21.6397 8.7973 22.9757 8.7973 24.6221V24.7249C8.79624 25.8957 8.79518 27.3648 10.1483 28.4147C10.8138 28.9305 11.7458 29.2983 13.0048 29.5401C14.2659 29.784 15.911 29.9119 18.0544 29.9119C20.1979 29.9119 21.8419 29.784 23.1051 29.5401C24.3641 29.2983 25.2951 28.9305 25.9616 28.4147C27.3147 27.3648 27.3126 25.8957 27.3116 24.7249V24.6221C27.3116 22.9757 26.0738 21.6397 24.4286 20.7571C22.7571 19.8623 20.5026 19.3323 18.0544 19.3323ZM10.3842 24.6221C10.3842 23.7647 11.0423 22.8337 12.4589 22.075C13.8512 21.3294 15.8274 20.8437 18.0555 20.8437C20.2814 20.8437 22.2577 21.3294 23.65 22.075C25.0676 22.8337 25.7246 23.7647 25.7246 24.6221C25.7246 25.94 25.6823 26.6816 24.9587 27.2418C24.5672 27.5461 23.9113 27.8434 22.7899 28.059C21.6716 28.2746 20.1428 28.4006 18.0544 28.4006C15.966 28.4006 14.4362 28.2746 13.319 28.059C12.1976 27.8434 11.5416 27.5461 11.1502 27.2428C10.4266 26.6816 10.3842 25.94 10.3842 24.6221Z" fill="#959595"/>
</svg>
