<svg xmlns="http://www.w3.org/2000/svg" width="15" height="11" viewBox="0 0 15 11" fill="none">
    <path d="M10.105 1.83472C10.3004 1.76225 10.5117 1.72266 10.7323 1.72266C11.729 1.72266 12.5369 2.53103 12.5369 3.52821C12.5369 4.52538 11.729 5.33377 10.7323 5.33377C10.5117 5.33377 10.3004 5.29419 10.105 5.22168" stroke="white" stroke-linecap="round"/>
    <path d="M0.987488 10.3893C1.48655 8.72301 2.77043 8.22266 5.67949 8.22266C8.58853 8.22266 9.8724 8.72301 10.3715 10.3893" stroke="white" stroke-linecap="round"/>
    <path d="M11.0933 7.5C12.8279 7.56861 13.6409 7.96099 13.9807 8.94444" stroke="white" stroke-linecap="round"/>
    <path d="M8.206 3.52778C8.206 4.92383 7.07487 6.05556 5.67954 6.05556C4.28421 6.05556 3.15308 4.92383 3.15308 3.52778C3.15308 2.13172 4.28421 1 5.67954 1C7.07487 1 8.206 2.13172 8.206 3.52778Z" stroke="white"/>
</svg>