<svg width="160" height="160" viewBox="0 0 160 160" fill="none" xmlns="http://www.w3.org/2000/svg">
<circle cx="80" cy="80" r="80" fill="white"/>
<path d="M98.151 52.6858C99.4825 52.1918 100.923 51.9219 102.427 51.9219C109.221 51.9219 114.728 57.4323 114.728 64.2296C114.728 71.027 109.221 76.5374 102.427 76.5374C100.923 76.5374 99.4825 76.2676 98.151 75.7733" stroke="#488385" stroke-width="6" stroke-linecap="round"/>
<path d="M36 111C39.4019 99.6412 48.1536 96.2305 67.9835 96.2305C87.8133 96.2305 96.565 99.6412 99.9671 111" stroke="#488385" stroke-width="6" stroke-linecap="round"/>
<path d="M104.888 91.3086C116.712 91.7763 122.253 94.451 124.57 101.155" stroke="#488385" stroke-width="6" stroke-linecap="round"/>
<path d="M85.2058 64.2309C85.2058 73.7472 77.4953 81.4618 67.9839 81.4618C58.4725 81.4618 50.762 73.7472 50.762 64.2309C50.762 54.7145 58.4725 47 67.9839 47C77.4953 47 85.2058 54.7145 85.2058 64.2309Z" stroke="#488385" stroke-width="6"/>
</svg>
