<svg width="22" height="22" viewBox="0 0 22 22" fill="none" xmlns="http://www.w3.org/2000/svg">
<path d="M8.10524 10.6226C10.0119 10.6226 11.5611 9.07343 11.5611 7.16677C11.5611 5.2601 10.0119 3.71094 8.10524 3.71094C6.19857 3.71094 4.64941 5.2601 4.64941 7.16677C4.64941 9.07343 6.19857 10.6226 8.10524 10.6226Z" />
<path d="M11.0611 7.16677C11.0611 8.79729 9.73576 10.1226 8.10524 10.1226C6.47471 10.1226 5.14941 8.79729 5.14941 7.16677C5.14941 5.53624 6.47471 4.21094 8.10524 4.21094C9.73576 4.21094 11.0611 5.53624 11.0611 7.16677Z" stroke="var(--icon-color-stroke)"/>
<path d="M14.815 16.0215V17.5981C14.815 17.974 14.5125 18.2856 14.1275 18.2856H2.52246C2.14663 18.2856 1.83496 17.974 1.83496 17.5981V16.0215C1.83496 13.8123 3.63162 12.0156 5.84079 12.0156H10.8091C11.2583 12.0156 11.6891 12.089 12.0925 12.2356C12.0925 12.2356 12.0925 12.2265 12.1016 12.2356C13.6783 12.7673 14.815 14.2615 14.815 16.0215Z" />
<path d="M11.9216 12.7055L12.1775 12.7986C13.4327 13.3267 14.315 14.5711 14.315 16.0215V17.5981C14.315 17.7022 14.232 17.7856 14.1275 17.7856H2.52246C2.42277 17.7856 2.33496 17.6978 2.33496 17.5981V16.0215C2.33496 14.0884 3.90777 12.5156 5.84079 12.5156H10.8091C11.2034 12.5156 11.5761 12.5799 11.9216 12.7055Z" stroke="var(--icon-color-stroke)"/>
<path d="M14.815 16.0215V17.5981C14.815 17.974 14.5125 18.2856 14.1275 18.2856H2.52246C2.14663 18.2856 1.83496 17.974 1.83496 17.5981V16.0215C1.83496 13.8123 3.63162 12.0156 5.84079 12.0156H10.8091C11.2583 12.0156 11.6891 12.089 12.0925 12.2356C12.0925 12.2356 12.0925 12.2265 12.1016 12.2356C13.6783 12.7673 14.815 14.2615 14.815 16.0215Z" />
<path d="M20.1671 15.234V16.5265C20.1671 16.829 19.9196 17.0765 19.6171 17.0765H16.1888V16.0223C16.1888 15.0965 15.9504 14.2165 15.5379 13.4557C15.3638 13.144 15.1713 12.8507 14.9513 12.5848C14.7954 12.4107 14.6396 12.2365 14.4746 12.0898H17.023C17.1238 12.0898 17.2155 12.0898 17.3071 12.1082C17.4263 12.1173 17.5455 12.1357 17.6646 12.1632C18.3613 12.3098 18.9663 12.6948 19.4154 13.2082C19.4888 13.2907 19.5621 13.3823 19.6263 13.4832C19.6355 13.4832 19.6355 13.4832 19.6263 13.4923C19.8005 13.749 19.938 14.024 20.0296 14.3265C20.0571 14.4273 20.0846 14.5282 20.1029 14.629C20.1488 14.8215 20.1671 15.0232 20.1671 15.234Z" />
<path d="M19.6171 16.5765H16.6888V16.0223C16.6888 15.0105 16.4283 14.0489 15.9775 13.2174L15.9775 13.2173L15.9744 13.2118C15.8552 12.9984 15.7261 12.7899 15.5842 12.5898H17.023C17.1328 12.5898 17.1742 12.5915 17.2091 12.5985L17.2387 12.6044L17.2688 12.6067C17.3624 12.6139 17.4568 12.6284 17.5522 12.6504L17.5522 12.6505L17.5616 12.6524C18.1416 12.7746 18.6538 13.0971 19.0392 13.5374L19.0391 13.5374L19.0417 13.5404C19.0638 13.5652 19.0851 13.5902 19.1054 13.6153L19.2125 13.7731C19.3604 13.991 19.4737 14.2186 19.5492 14.4651C19.5767 14.5662 19.5975 14.6442 19.611 14.7185L19.6134 14.7317L19.6165 14.7448C19.6512 14.8902 19.6671 15.0515 19.6671 15.234V16.5265C19.6671 16.5387 19.6626 16.5508 19.652 16.5614C19.6414 16.572 19.6293 16.5765 19.6171 16.5765ZM19.6263 13.9832C19.6345 13.9832 19.6315 13.9834 19.6224 13.9832H19.6263Z" stroke="var(--icon-color-stroke)"/>
<path d="M15.0172 10.4934C16.5309 10.4934 17.758 9.26627 17.758 7.75255C17.758 6.23883 16.5309 5.01172 15.0172 5.01172C13.5035 5.01172 12.2764 6.23883 12.2764 7.75255C12.2764 9.26627 13.5035 10.4934 15.0172 10.4934Z" />
<path d="M17.258 7.75255C17.258 8.99013 16.2548 9.99338 15.0172 9.99338C13.7796 9.99338 12.7764 8.99013 12.7764 7.75255C12.7764 6.51497 13.7796 5.51172 15.0172 5.51172C16.2548 5.51172 17.258 6.51497 17.258 7.75255Z" stroke="var(--icon-color-stroke)"/>
</svg>

