<svg width="20" height="20" viewBox="0 0 20 20" fill="none" xmlns="http://www.w3.org/2000/svg">
<mask id="path-1-inside-1_1_3236" fill="white">
<path d="M10.0016 0.832031C4.95079 0.832031 0.834961 4.94786 0.834961 9.9987C0.834961 15.0495 4.95079 19.1654 10.0016 19.1654C15.0525 19.1654 19.1683 15.0495 19.1683 9.9987C19.1683 4.94786 15.0525 0.832031 10.0016 0.832031ZM9.8183 5.20453C11.45 5.20453 12.77 6.52453 12.77 8.1562C12.77 9.7787 11.45 11.1079 9.8183 11.1079C8.1958 11.1079 6.87579 9.7787 6.87579 8.1562C6.87579 6.52453 8.1958 5.20453 9.8183 5.20453ZM15.4375 15.572C15.025 15.9845 14.5575 16.342 14.0625 16.6445C12.88 17.3779 11.4866 17.7904 10.0016 17.7904C8.51663 17.7904 7.1233 17.3779 5.9408 16.6445C5.4458 16.342 4.9783 15.9845 4.5658 15.572V15.3979C4.5658 13.5187 6.09663 11.9879 7.96663 11.9879H12.0366C13.9066 11.9879 15.4375 13.5187 15.4375 15.3979V15.572Z"/>
</mask>
<path fill="var(--icon-color-fill)" stroke="var(--icon-color-stroke)" d="M10.0016 0.832031C4.95079 0.832031 0.834961 4.94786 0.834961 9.9987C0.834961 15.0495 4.95079 19.1654 10.0016 19.1654C15.0525 19.1654 19.1683 15.0495 19.1683 9.9987C19.1683 4.94786 15.0525 0.832031 10.0016 0.832031ZM9.8183 5.20453C11.45 5.20453 12.77 6.52453 12.77 8.1562C12.77 9.7787 11.45 11.1079 9.8183 11.1079C8.1958 11.1079 6.87579 9.7787 6.87579 8.1562C6.87579 6.52453 8.1958 5.20453 9.8183 5.20453ZM15.4375 15.572C15.025 15.9845 14.5575 16.342 14.0625 16.6445C12.88 17.3779 11.4866 17.7904 10.0016 17.7904C8.51663 17.7904 7.1233 17.3779 5.9408 16.6445C5.4458 16.342 4.9783 15.9845 4.5658 15.572V15.3979C4.5658 13.5187 6.09663 11.9879 7.96663 11.9879H12.0366C13.9066 11.9879 15.4375 13.5187 15.4375 15.3979V15.572Z" stroke-width="2" mask="url(#path-1-inside-1_1_3236)"/>
</svg>


