<svg width="56" height="28" viewBox="0 0 56 28" fill="none" xmlns="http://www.w3.org/2000/svg">
    <path d="M2.99109 9.61486L0 0.628906H1.27986L2.70588 5.05725C3.09982 6.26958 3.44028 7.36313 3.68449 8.4165H3.71301C3.97148 7.36837 4.35294 6.24163 4.75935 5.06948L6.31016 0.630654H7.57397L4.29233 9.61486H2.99109Z" fill="white" fill-opacity="0.4"/>
    <path d="M8.21401 6.60063C8.24253 8.18855 9.27462 8.84013 10.4725 8.84013C11.0978 8.85933 11.7199 8.7455 12.296 8.50648L12.4921 9.35372C11.7986 9.63635 11.0522 9.77265 10.3014 9.75375C8.27284 9.75375 7.0625 8.44534 7.0625 6.49932C7.0625 4.55329 8.23362 3.01953 10.1498 3.01953C12.3014 3.01953 12.8736 4.87472 12.8736 6.0591C12.871 6.24206 12.8567 6.42467 12.8308 6.60587L8.21401 6.60063ZM11.7238 5.76038C11.7399 5.01447 11.4119 3.85279 10.0643 3.85279C8.85394 3.85279 8.32275 4.94634 8.22649 5.76038H11.7238Z" fill="white" fill-opacity="0.4"/>
    <path d="M13.8151 5.1727C13.8151 4.41455 13.8009 3.75947 13.7617 3.15855H14.8134L14.8526 4.42504H14.906C15.2055 3.5516 15.9257 3.01181 16.7314 3.01181C16.8456 3.01048 16.9595 3.02398 17.07 3.05198V4.15951C16.936 4.13062 16.799 4.11714 16.6618 4.11933C15.8187 4.11933 15.2216 4.74646 15.0576 5.62514C15.0231 5.80609 15.0046 5.9896 15.0023 6.17366V9.61502H13.8151V5.1727Z" fill="white" fill-opacity="0.4"/>
    <path d="M19.1082 1.34991C19.1082 1.54265 19.0301 1.72749 18.891 1.86377C18.752 2.00005 18.5633 2.07661 18.3667 2.07661C18.17 2.07661 17.9814 2.00005 17.8423 1.86377C17.7033 1.72749 17.6251 1.54265 17.6251 1.34991C17.6232 1.25298 17.6413 1.15665 17.6785 1.06682C17.7158 0.976979 17.7712 0.895504 17.8416 0.827355C17.912 0.759206 17.9958 0.705806 18.0879 0.670409C18.18 0.635011 18.2785 0.618358 18.3774 0.621459C18.4757 0.618455 18.5736 0.635427 18.6649 0.67131C18.7563 0.707192 18.839 0.761207 18.908 0.829957C18.977 0.898706 19.0307 0.980703 19.0658 1.07079C19.1008 1.16087 19.1165 1.2571 19.1118 1.35341L19.1082 1.34991ZM17.7767 3.16667H18.9763V9.61965H17.7767V3.16667Z" fill="white" fill-opacity="0.4"/>
    <path d="M20.5306 9.61531V4.05324H19.6055V3.16059H20.5306V2.85314C20.5306 1.94651 20.7356 1.12023 21.2918 0.599663C21.7269 0.203344 22.3022 -0.0115445 22.8961 0.000478643C23.2449 -0.000648441 23.5908 0.0627685 23.9157 0.187396L23.7535 1.09403C23.513 0.991843 23.2526 0.942362 22.9905 0.949039C21.9709 0.949039 21.7143 1.82247 21.7143 2.81645V3.16583H23.3043V4.05848H21.7143V9.61531H20.5306Z" fill="white" fill-opacity="0.4"/>
    <path d="M25.8231 1.34556C25.8231 1.53829 25.745 1.72313 25.6059 1.85942C25.4668 1.9957 25.2782 2.07226 25.0815 2.07226C24.8849 2.07226 24.6963 1.9957 24.5572 1.85942C24.4181 1.72313 24.34 1.53829 24.34 1.34556C24.3378 1.2487 24.3557 1.15241 24.3926 1.06252C24.4294 0.972629 24.4845 0.891002 24.5545 0.822577C24.6245 0.754152 24.7079 0.700353 24.7997 0.664437C24.8916 0.62852 24.9899 0.611234 25.0887 0.613621C25.187 0.610617 25.2849 0.627589 25.3762 0.663472C25.4676 0.699354 25.5503 0.753368 25.6193 0.822119C25.6883 0.890868 25.742 0.972865 25.7771 1.06295C25.8121 1.15303 25.8278 1.24925 25.8231 1.34556ZM24.4915 3.15882H25.6858V9.61179H24.4915V3.15882Z" fill="white" fill-opacity="0.4"/>
    <path d="M27.7949 6.60063C27.8235 8.18855 28.8556 8.84013 30.0534 8.84013C30.6787 8.85944 31.3009 8.7456 31.877 8.50648L32.0819 9.35372C31.3885 9.63635 30.642 9.77265 29.8912 9.75375C27.8627 9.75375 26.6523 8.44534 26.6523 6.49932C26.6523 4.55329 27.8235 3.01953 29.7379 3.01953C31.8894 3.01953 32.4598 4.87472 32.4598 6.0591C32.458 6.24209 32.4437 6.42475 32.4171 6.60587L27.7949 6.60063ZM31.3048 5.76038C31.3172 5.01447 30.991 3.85279 29.6452 3.85279C28.4349 3.85279 27.9055 4.94634 27.8074 5.76038H31.3048Z" fill="white" fill-opacity="0.4"/>
    <path d="M39.0839 0.148438V7.94651C39.0839 8.52123 39.0964 9.16932 39.1374 9.61479H38.0679L38.0126 8.49504H37.977C37.6098 9.21475 36.8094 9.75978 35.7327 9.75978C34.1409 9.75978 32.9181 8.43913 32.9181 6.47913C32.9039 4.33221 34.2657 3.01332 35.87 3.01332C36.8754 3.01332 37.5563 3.48148 37.854 4.0003H37.8825V0.148438H39.0839ZM37.8843 5.78736C37.8867 5.62107 37.8687 5.4551 37.8308 5.293C37.7451 4.90694 37.5269 4.56137 37.2125 4.31401C36.8981 4.06666 36.5067 3.9325 36.1035 3.93393C34.8557 3.93393 34.1303 4.99952 34.1303 6.42847C34.1303 7.73514 34.7809 8.81471 36.0768 8.81471C36.4881 8.81347 36.8866 8.67406 37.2058 8.41975C37.525 8.16545 37.7456 7.8116 37.8308 7.41721C37.8702 7.2518 37.8882 7.08217 37.8843 6.91235V5.78736Z" fill="white" fill-opacity="0.4"/>
    <path d="M43.5195 9.61479C43.548 9.17282 43.573 8.52124 43.573 7.94651V0.148438H44.7548V4.2012H44.7815C45.204 3.48148 45.9651 3.01507 47.0275 3.01507C48.6603 3.01507 49.8154 4.34968 49.8047 6.30794C49.8047 8.61382 48.3198 9.76153 46.851 9.76153C45.8974 9.76153 45.1362 9.40166 44.646 8.54918H44.6068L44.5498 9.61479H43.5195ZM44.7672 7.02765C44.7709 7.1712 44.7894 7.31401 44.8225 7.45389C44.9211 7.84544 45.1505 8.19344 45.4741 8.44255C45.7977 8.69166 46.1971 8.82757 46.6086 8.82868C47.8564 8.82868 48.6086 7.82947 48.6086 6.34811C48.6086 5.05542 47.9277 3.9479 46.6478 3.9479C46.224 3.95563 45.8148 4.10125 45.4847 4.36183C45.1546 4.62242 44.9223 4.98317 44.8243 5.38733C44.784 5.54167 44.7607 5.69979 44.7548 5.85899L44.7672 7.02765Z" fill="white" fill-opacity="0.4"/>
    <path d="M51.1191 3.16016L52.5612 6.97535C52.7109 7.40159 52.8749 7.90819 52.9818 8.29599H53.0086C53.1334 7.90993 53.267 7.42255 53.4328 6.94915L54.7412 3.16016H56.0086L54.2064 7.7597C53.3508 9.973 52.7644 11.1067 51.948 11.8002C51.5333 12.1736 51.0274 12.4359 50.4792 12.5619L50.1797 11.5749C50.5634 11.4508 50.9192 11.2557 51.2278 11.0002C51.6623 10.647 52.0071 10.1997 52.235 9.6935C52.2829 9.60648 52.3149 9.51187 52.3294 9.414C52.319 9.30788 52.2913 9.20409 52.2474 9.10654L49.8125 3.16715L51.1191 3.16016Z" fill="white" fill-opacity="0.4"/>
    <path d="M19.8647 14.0156L16.2408 23.0103L14.772 15.3624C14.7128 14.9872 14.5185 14.645 14.2243 14.398C13.93 14.151 13.5552 14.0153 13.1678 14.0156H7.22474L7.14453 14.3982C8.362 14.6602 9.74524 15.0777 10.5849 15.5214C11.0982 15.7974 11.2444 16.0367 11.4102 16.6866L14.1945 27.2307H17.8825L23.5332 14.0156H19.8647Z" fill="white" fill-opacity="0.4"/>
    <path d="M25.0208 14.0156L22.1367 27.2307H25.6269L28.5039 14.0156H25.0208Z" fill="white" fill-opacity="0.4"/>
    <path d="M33.0819 17.6838C33.0926 17.2104 33.5542 16.7073 34.5614 16.5728C35.7415 16.4658 36.9293 16.6704 38.0016 17.1651L38.613 14.3699C37.5701 13.985 36.4654 13.7856 35.351 13.7812C31.9018 13.7812 29.4794 15.5805 29.4544 18.1486C29.4366 20.0473 31.1888 21.1181 32.5079 21.7435C33.868 22.3899 34.3261 22.804 34.3172 23.3874C34.3172 24.2748 33.2334 24.6627 32.2334 24.6765C30.4776 24.7045 29.4615 24.2136 28.6487 23.845L28.0195 26.7396C28.8305 27.1047 30.3368 27.4244 31.9 27.4384C35.5578 27.4384 37.9606 25.6618 37.9606 22.9174C37.9749 19.4237 33.0409 19.2368 33.0747 17.6768" fill="white" fill-opacity="0.4"/>
    <path d="M43.1791 22.5509L45.0329 17.588L46.0757 22.5509H43.1791ZM44.5035 14.0157C44.1851 14.0126 43.8731 14.1034 43.608 14.2763C43.3429 14.4492 43.137 14.6961 43.0169 14.9852L37.7852 27.2291H41.45L42.1773 25.2551H46.6337L47.0526 27.2291H50.2861L47.4822 14.0157H44.5035Z" fill="white" fill-opacity="0.4"/>
</svg>
