<svg xmlns="http://www.w3.org/2000/svg" width="13" height="12" viewBox="0 0 13 12" fill="none">
    <path d="M11.2929 2.66667H10.3243V2C10.3237 1.46973 10.1195 0.961329 9.75628 0.586371C9.39308 0.211413 8.90063 0.000529477 8.38699 0H1.60657C1.17852 0.000353112 0.76809 0.176061 0.465408 0.488545C0.162726 0.80103 -0.00747047 1.22475 -0.0078125 1.66667V10C-0.00729963 10.5303 0.196969 11.0387 0.560165 11.4136C0.923361 11.7886 1.41581 11.9995 1.92945 12H11.2929C11.7209 11.9996 12.1314 11.8239 12.434 11.5115C12.7367 11.199 12.9069 10.7753 12.9073 10.3333V4.33333C12.9069 3.89141 12.7367 3.4677 12.434 3.15521C12.1314 2.84273 11.7209 2.66702 11.2929 2.66667ZM1.60657 0.666667H8.38699C8.72936 0.667196 9.05756 0.807841 9.29966 1.05778C9.54175 1.30771 9.67799 1.64654 9.6785 2V2.66667H1.60657C1.47937 2.66667 1.35341 2.6408 1.23589 2.59055C1.11837 2.54029 1.01159 2.46663 0.921647 2.37377C0.831701 2.28092 0.760352 2.17068 0.711674 2.04935C0.662996 1.92802 0.637942 1.79799 0.637942 1.66667C0.637942 1.53534 0.662996 1.40531 0.711674 1.28398C0.760352 1.16266 0.831701 1.05242 0.921647 0.95956C1.01159 0.866701 1.11837 0.793042 1.23589 0.742787C1.35341 0.692532 1.47937 0.666667 1.60657 0.666667ZM12.2615 8.66667H10.97C10.6275 8.66667 10.299 8.52619 10.0568 8.27614C9.81457 8.02609 9.6785 7.68696 9.6785 7.33333C9.6785 6.97971 9.81457 6.64057 10.0568 6.39052C10.299 6.14048 10.6275 6 10.97 6H12.2615V8.66667ZM12.2615 5.33333H10.97C10.7156 5.33333 10.4637 5.38507 10.2286 5.48557C9.99361 5.58608 9.78005 5.7334 9.60015 5.91912C9.42026 6.10484 9.27757 6.32532 9.18021 6.56797C9.08285 6.81062 9.03274 7.07069 9.03274 7.33333C9.03274 7.59598 9.08285 7.85605 9.18021 8.0987C9.27757 8.34135 9.42026 8.56183 9.60015 8.74755C9.78005 8.93326 9.99361 9.08058 10.2286 9.18109C10.4637 9.2816 10.7156 9.33333 10.97 9.33333H12.2615V10.3333C12.2615 10.5985 12.1595 10.8529 11.9778 11.0404C11.7962 11.228 11.5498 11.3333 11.2929 11.3333H1.92945C1.58708 11.3328 1.25888 11.1922 1.01678 10.9422C0.774688 10.6923 0.638454 10.3535 0.637942 10V2.99933C0.916907 3.21667 1.25722 3.334 1.60657 3.33333H11.2929C11.5498 3.33333 11.7962 3.43869 11.9778 3.62623C12.1595 3.81376 12.2615 4.06812 12.2615 4.33333V5.33333Z" fill="white"/>
</svg>