<svg xmlns="http://www.w3.org/2000/svg" width="19" height="19" viewBox="0 0 19 19" fill="none">
    <path d="M9.71478 2.46094C10.1845 2.46358 11.3597 2.47501 12.6088 2.52515L13.0521 2.5445C14.3091 2.60344 15.5652 2.70547 16.1889 2.87876C17.0201 3.11274 17.6728 3.79358 17.8936 4.65737C18.2454 6.02959 18.2894 8.70543 18.2947 9.35372L18.2956 9.48742V9.64047C18.2894 10.2888 18.2454 12.9655 17.8936 14.3368C17.6702 15.2033 17.0166 15.885 16.1889 16.1154C15.5652 16.2887 14.3091 16.3908 13.0521 16.4497L12.6088 16.4699C11.3597 16.5192 10.1845 16.5315 9.71478 16.5333L9.50807 16.5341H9.28376C8.28978 16.528 4.13265 16.4831 2.80969 16.1154C1.97932 15.8814 1.32576 15.2006 1.10497 14.3368C0.753117 12.9646 0.709135 10.2888 0.703857 9.64047V9.35372C0.709135 8.70543 0.753117 6.02872 1.10497 4.65737C1.32839 3.79094 1.98196 3.10922 2.81057 2.87964C4.13265 2.51108 8.29066 2.46622 9.28465 2.46094H9.71478ZM7.74002 6.41927V12.5767L13.0178 9.49797L7.74002 6.41927Z" fill="white" fill-opacity="0.4"/>
</svg>